<?xml version="1.0" encoding="UTF-8" standalone="no"?>
<svg
   xmlns:dc="http://purl.org/dc/elements/1.1/"
   xmlns:cc="http://creativecommons.org/ns#"
   xmlns:rdf="http://www.w3.org/1999/02/22-rdf-syntax-ns#"
   xmlns:svg="http://www.w3.org/2000/svg"
   xmlns="http://www.w3.org/2000/svg"
   xmlns:sodipodi="http://sodipodi.sourceforge.net/DTD/sodipodi-0.dtd"
   xmlns:inkscape="http://www.inkscape.org/namespaces/inkscape"
   width="210mm"
   height="297mm"
   viewBox="0 0 210 297"
   version="1.1"
   id="svg8"
   inkscape:version="1.0.1 (3bc2e813f5, 2020-09-07)"
   sodipodi:docname="JamJarSolar_v2.svg">
  <defs
     id="defs2" />
  <sodipodi:namedview
     id="base"
     pagecolor="#ffffff"
     bordercolor="#666666"
     borderopacity="1.0"
     inkscape:pageopacity="0.0"
     inkscape:pageshadow="2"
     inkscape:zoom="2.8"
     inkscape:cx="81.572012"
     inkscape:cy="181.73932"
     inkscape:document-units="mm"
     inkscape:current-layer="layer1"
     showgrid="false"
     inkscape:window-width="1920"
     inkscape:window-height="1017"
     inkscape:window-x="-8"
     inkscape:window-y="-8"
     inkscape:window-maximized="1"
     inkscape:snap-bbox="true"
     inkscape:bbox-paths="true"
     inkscape:bbox-nodes="true"
     inkscape:snap-bbox-edge-midpoints="true"
     inkscape:snap-bbox-midpoints="true"
     inkscape:snap-object-midpoints="true"
     inkscape:document-rotation="0" />
  <metadata
     id="metadata5">
    <rdf:RDF>
      <cc:Work
         rdf:about="">
        <dc:format>image/svg+xml</dc:format>
        <dc:type
           rdf:resource="http://purl.org/dc/dcmitype/StillImage" />
        <dc:title></dc:title>
      </cc:Work>
    </rdf:RDF>
  </metadata>
  <g
     inkscape:label="Layer 1"
     inkscape:groupmode="layer"
     id="layer1">
    <path
       inkscape:connector-curvature="0"
       id="path842-8-2-7-1"
       d="m 33.559062,18.079365 a 1.5499994,1.55 0 0 1 -1.55,1.55 1.5499994,1.55 0 0 1 -1.55,-1.55 1.5499994,1.55 0 0 1 1.55,-1.55 1.5499994,1.55 0 0 1 1.55,1.55 z"
       style="fill:none;fill-opacity:0.995169;stroke:#000000;stroke-width:0.1;stroke-linejoin:miter;stroke-miterlimit:4;stroke-dasharray:none;stroke-dashoffset:0;stroke-opacity:1" />
    <ellipse
       style="opacity:1;fill:none;fill-opacity:0.99516913;stroke:#000000;stroke-width:0.5;stroke-linejoin:miter;stroke-miterlimit:4;stroke-dasharray:none;stroke-dashoffset:0;stroke-opacity:1"
       id="path815-8"
       cx="75.863098"
       cy="54.07143"
       r="32.75" />
    <circle
       style="opacity:1;fill:none;fill-opacity:0.99516913;stroke:#000000;stroke-width:0.5;stroke-linejoin:miter;stroke-miterlimit:4;stroke-dasharray:none;stroke-dashoffset:0;stroke-opacity:1"
       id="path876-1"
       cx="75.863098"
       cy="54.07143"
       r="0" />
    <circle
       style="opacity:1;fill:none;fill-opacity:0.99516913;stroke:#000000;stroke-width:0.5;stroke-linejoin:miter;stroke-miterlimit:4;stroke-dasharray:none;stroke-dashoffset:0;stroke-opacity:1"
       id="path876-3"
       cx="141.65285"
       cy="85.589806"
       r="0" />
    <circle
       style="opacity:1;fill:none;fill-opacity:0.99516913;stroke:#000000;stroke-width:0.5;stroke-linejoin:miter;stroke-miterlimit:4;stroke-dasharray:none;stroke-dashoffset:0;stroke-opacity:1"
       id="path876-6"
       cx="75.863098"
       cy="54.07143"
       r="0" />
    <path
       inkscape:connector-curvature="0"
       id="path842-6-0-8-8"
       d="m 24.759072,40.187856 a 2.7500001,2.7500001 0 0 1 -2.75,2.75 2.7500001,2.7500001 0 0 1 -2.75,-2.75 2.7500001,2.7500001 0 0 1 2.75,-2.75 2.7500001,2.7500001 0 0 1 2.75,2.75 z"
       style="fill:none;fill-opacity:0.995169;stroke:#000000;stroke-width:0.1;stroke-linejoin:miter;stroke-miterlimit:4;stroke-dasharray:none;stroke-dashoffset:0;stroke-opacity:1" />
    <path
       inkscape:connector-curvature="0"
       id="path876-0-8"
       d="M 51.959045,33.787697 A 19.949999,19.949996 0 0 1 32.009046,53.737701 19.949999,19.949996 0 0 1 12.059045,33.787697 19.949999,19.949996 0 0 1 32.009046,13.837701 19.949999,19.949996 0 0 1 51.959045,33.787697 Z"
       style="fill:none;fill-opacity:0.995169;stroke:#000000;stroke-width:0.0999997;stroke-linejoin:miter;stroke-miterlimit:4;stroke-dasharray:none;stroke-dashoffset:0;stroke-opacity:1" />
    <path
       inkscape:connector-curvature="0"
       id="path842-8-2-63"
       d="m 33.559062,49.496035 a 1.5499994,1.55 0 0 1 -1.55,1.55 1.5499994,1.55 0 0 1 -1.55,-1.55 1.5499994,1.55 0 0 1 1.55,-1.55 1.5499994,1.55 0 0 1 1.55,1.55 z"
       style="fill:none;fill-opacity:0.995169;stroke:#000000;stroke-width:0.1;stroke-linejoin:miter;stroke-miterlimit:4;stroke-dasharray:none;stroke-dashoffset:0;stroke-opacity:1" />
    <rect
       y="33.0877"
       x="22.641544"
       height="1.4"
       width="18.735001"
       id="rect907-5-6-5-7"
       style="fill:none;fill-opacity:1;stroke:#000000;stroke-width:0.0999995;stroke-miterlimit:4;stroke-dasharray:none;stroke-dashoffset:0;stroke-opacity:1" />
    <g
       id="g920"
       transform="rotate(-90,11.994769,45.564594)">
      <path
         inkscape:connector-curvature="0"
         id="path842-8-2-7-1-5"
         d="m 0.32174163,49.870373 a 1.5499994,1.55 0 0 1 -1.55000103,1.55 1.5499994,1.55 0 0 1 -1.55,-1.55 1.5499994,1.55 0 0 1 1.55,-1.55 1.5499994,1.55 0 0 1 1.55000103,1.55 z"
         style="fill:none;fill-opacity:0.995169;stroke:#000000;stroke-width:0.1;stroke-linejoin:miter;stroke-miterlimit:4;stroke-dasharray:none;stroke-dashoffset:0;stroke-opacity:1" />
      <path
         inkscape:connector-curvature="0"
         id="path842-8-2-63-6"
         d="m 0.32174163,81.287045 a 1.5499994,1.55 0 0 1 -1.55000103,1.549998 1.5499994,1.55 0 0 1 -1.55,-1.549998 1.5499994,1.55 0 0 1 1.55,-1.550001 1.5499994,1.55 0 0 1 1.55000103,1.550001 z"
         style="fill:none;fill-opacity:0.995169;stroke:#000000;stroke-width:0.1;stroke-linejoin:miter;stroke-miterlimit:4;stroke-dasharray:none;stroke-dashoffset:0;stroke-opacity:1" />
      <path
         id="rect875-9"
         style="fill:none;stroke:#000000;stroke-width:0.1"
         d="m -1.2682144,45.628923 a 19.949999,19.949996 0 0 0 -4.910294,0.623734 v 38.652422 a 19.949999,19.949996 0 0 0 4.950087,0.623737 19.949999,19.949996 0 0 0 4.950084,-0.624253 V 46.252657 a 19.949999,19.949996 0 0 0 -4.950084,-0.623734 19.949999,19.949996 0 0 0 -0.03979,0 z" />
    </g>
  </g>
</svg>
