<?xml version="1.0" encoding="UTF-8" standalone="no"?>
<svg
   xmlns:dc="http://purl.org/dc/elements/1.1/"
   xmlns:cc="http://creativecommons.org/ns#"
   xmlns:rdf="http://www.w3.org/1999/02/22-rdf-syntax-ns#"
   xmlns:svg="http://www.w3.org/2000/svg"
   xmlns="http://www.w3.org/2000/svg"
   xmlns:sodipodi="http://sodipodi.sourceforge.net/DTD/sodipodi-0.dtd"
   xmlns:inkscape="http://www.inkscape.org/namespaces/inkscape"
   width="210mm"
   height="297mm"
   viewBox="0 0 210 297"
   version="1.1"
   id="svg8"
   inkscape:version="1.0.1 (3bc2e813f5, 2020-09-07)"
   sodipodi:docname="JamJarSolar_v1.svg">
  <defs
     id="defs2" />
  <sodipodi:namedview
     id="base"
     pagecolor="#ffffff"
     bordercolor="#666666"
     borderopacity="1.0"
     inkscape:pageopacity="0.0"
     inkscape:pageshadow="2"
     inkscape:zoom="0.9899495"
     inkscape:cx="146.6392"
     inkscape:cy="568.38652"
     inkscape:document-units="mm"
     inkscape:current-layer="layer1"
     showgrid="false"
     inkscape:window-width="1920"
     inkscape:window-height="1017"
     inkscape:window-x="-8"
     inkscape:window-y="-8"
     inkscape:window-maximized="1"
     inkscape:snap-bbox="true"
     inkscape:bbox-paths="true"
     inkscape:bbox-nodes="true"
     inkscape:snap-bbox-edge-midpoints="true"
     inkscape:snap-bbox-midpoints="true"
     inkscape:snap-object-midpoints="true"
     inkscape:document-rotation="0" />
  <metadata
     id="metadata5">
    <rdf:RDF>
      <cc:Work
         rdf:about="">
        <dc:format>image/svg+xml</dc:format>
        <dc:type
           rdf:resource="http://purl.org/dc/dcmitype/StillImage" />
        <dc:title></dc:title>
      </cc:Work>
    </rdf:RDF>
  </metadata>
  <g
     inkscape:label="Layer 1"
     inkscape:groupmode="layer"
     id="layer1">
    <ellipse
       style="opacity:1;fill:none;fill-opacity:0.99516913;stroke:#000000;stroke-width:0.5;stroke-linejoin:miter;stroke-miterlimit:4;stroke-dasharray:none;stroke-dashoffset:0;stroke-opacity:1"
       id="path815-8"
       cx="75.863098"
       cy="54.07143"
       r="32.75" />
    <circle
       style="opacity:1;fill:none;fill-opacity:0.99516913;stroke:#000000;stroke-width:0.5;stroke-linejoin:miter;stroke-miterlimit:4;stroke-dasharray:none;stroke-dashoffset:0;stroke-opacity:1"
       id="path876-1"
       cx="75.863098"
       cy="54.07143"
       r="0" />
    <circle
       style="opacity:1;fill:none;fill-opacity:0.99516913;stroke:#000000;stroke-width:0.5;stroke-linejoin:miter;stroke-miterlimit:4;stroke-dasharray:none;stroke-dashoffset:0;stroke-opacity:1"
       id="path876-3"
       cx="141.65285"
       cy="85.589806"
       r="0" />
    <circle
       style="opacity:1;fill:none;fill-opacity:0.99516913;stroke:#000000;stroke-width:0.5;stroke-linejoin:miter;stroke-miterlimit:4;stroke-dasharray:none;stroke-dashoffset:0;stroke-opacity:1"
       id="path876-6"
       cx="75.863098"
       cy="54.07143"
       r="0" />
    <g
       id="g975">
      <path
         inkscape:connector-curvature="0"
         id="path1055"
         d="m 92.167859,113.15969 a 33.749999,33.749999 0 0 1 -33.749999,33.75 33.749999,33.749999 0 0 1 -33.749999,-33.75 33.749999,33.749999 0 0 1 33.749999,-33.750003 33.749999,33.749999 0 0 1 33.749999,33.750003 z"
         style="opacity:1;fill:none;fill-opacity:0.99516913;stroke:#000000;stroke-width:0.1;stroke-linejoin:miter;stroke-miterlimit:4;stroke-dasharray:none;stroke-dashoffset:0;stroke-opacity:1" />
      <path
         inkscape:connector-curvature="0"
         id="path842-8-8-3"
         d="m 38.16786,113.15969 a 2.25,2.25 0 0 1 -2.25,2.25 2.25,2.25 0 0 1 -2.25,-2.25 2.25,2.25 0 0 1 2.25,-2.25 2.25,2.25 0 0 1 2.25,2.25 z"
         style="opacity:1;fill:none;fill-opacity:0.99516913;stroke:#000000;stroke-width:0.1;stroke-linejoin:miter;stroke-miterlimit:4;stroke-dasharray:none;stroke-dashoffset:0;stroke-opacity:1" />
      <path
         inkscape:connector-curvature="0"
         id="path842-8-8-3-8"
         d="m 83.16786,113.15969 a 2.25,2.25 0 0 1 -2.25,2.25 2.25,2.25 0 0 1 -2.25,-2.25 2.25,2.25 0 0 1 2.25,-2.25 2.25,2.25 0 0 1 2.25,2.25 z"
         style="opacity:1;fill:none;fill-opacity:0.99516913;stroke:#000000;stroke-width:0.1;stroke-linejoin:miter;stroke-miterlimit:4;stroke-dasharray:none;stroke-dashoffset:0;stroke-opacity:1" />
      <path
         inkscape:connector-curvature="0"
         id="path842-8-2-0"
         d="m 59.96786,134.15969 a 1.5499994,1.55 0 0 1 -1.55,1.55 1.5499994,1.55 0 0 1 -1.55,-1.55 1.5499994,1.55 0 0 1 1.55,-1.55 1.5499994,1.55 0 0 1 1.55,1.55 z"
         style="opacity:1;fill:none;fill-opacity:0.99516913;stroke:#000000;stroke-width:0.1;stroke-linejoin:miter;stroke-miterlimit:4;stroke-dasharray:none;stroke-dashoffset:0;stroke-opacity:1" />
      <path
         inkscape:connector-curvature="0"
         id="path842-8-2-6"
         d="m 59.96786,92.159696 a 1.5499994,1.55 0 0 1 -1.55,1.55 1.5499994,1.55 0 0 1 -1.55,-1.55 1.5499994,1.55 0 0 1 1.55,-1.55 1.5499994,1.55 0 0 1 1.55,1.55 z"
         style="opacity:1;fill:none;fill-opacity:0.99516913;stroke:#000000;stroke-width:0.1;stroke-linejoin:miter;stroke-miterlimit:4;stroke-dasharray:none;stroke-dashoffset:0;stroke-opacity:1" />
      <path
         id="path842-6-0-8"
         transform="scale(0.26458333)"
         d="M 220.79102 390.47852 A 37.606298 37.606298 0 0 0 183.18555 428.08398 A 37.606298 37.606298 0 0 0 187.86719 446.17188 L 176.63477 457.66602 A 10.393701 10.393701 0 0 0 174.68164 459.66602 A 10.393701 10.393701 0 0 0 172.60352 465.87891 A 10.393701 10.393701 0 0 0 182.99609 476.27344 A 10.393701 10.393701 0 0 0 189.4082 474.05664 L 189.54883 474.19531 L 202.50977 460.93359 A 37.606298 37.606298 0 0 0 220.79102 465.69141 A 37.606298 37.606298 0 0 0 258.39844 428.08398 A 37.606298 37.606298 0 0 0 220.79102 390.47852 z "
         style="opacity:1;fill:none;fill-opacity:0.99516913;stroke:#000000;stroke-width:0.37795276;stroke-linejoin:miter;stroke-miterlimit:4;stroke-dasharray:none;stroke-dashoffset:0;stroke-opacity:1" />
      <path
         inkscape:connector-curvature="0"
         id="path842-8-2"
         d="m 59.96786,134.15969 a 1.5499994,1.55 0 0 1 -1.55,1.55 1.5499994,1.55 0 0 1 -1.55,-1.55 1.5499994,1.55 0 0 1 1.55,-1.55 1.5499994,1.55 0 0 1 1.55,1.55 z"
         style="opacity:1;fill:none;fill-opacity:0.99516913;stroke:#000000;stroke-width:0.1;stroke-linejoin:miter;stroke-miterlimit:4;stroke-dasharray:none;stroke-dashoffset:0;stroke-opacity:1" />
      <path
         inkscape:connector-curvature="0"
         id="path842-8-2-7"
         d="m 59.96786,92.15968 a 1.5499994,1.55 0 0 1 -1.55,1.55 1.5499994,1.55 0 0 1 -1.55,-1.55 1.5499994,1.55 0 0 1 1.55,-1.55 1.5499994,1.55 0 0 1 1.55,1.55 z"
         style="opacity:1;fill:none;fill-opacity:0.99516913;stroke:#000000;stroke-width:0.1;stroke-linejoin:miter;stroke-miterlimit:4;stroke-dasharray:none;stroke-dashoffset:0;stroke-opacity:1" />
    </g>
    <g
       id="g913">
      <path
         id="path958"
         d="m 92.55036,139.51397 a 24.8675,24.8675 0 0 0 0.505397,4.86741 h 48.744823 a 24.8675,24.8675 0 0 0 0.48473,-4.86741 24.8675,24.8675 0 0 0 -0.48473,-4.8674 H 93.055757 a 24.8675,24.8675 0 0 0 -0.505397,4.8674 z"
         style="fill:none;fill-opacity:1;stroke:#000000;stroke-width:0.1;stroke-miterlimit:4;stroke-dasharray:none;stroke-dashoffset:0;stroke-opacity:1"
         inkscape:connector-curvature="0" />
      <path
         inkscape:connector-curvature="0"
         id="path842-8-2-2"
         d="m 97.863514,139.51412 a 1.5499994,1.55 0 0 1 -1.55,1.55 1.5499994,1.55 0 0 1 -1.55,-1.55 1.5499994,1.55 0 0 1 1.55,-1.55 1.5499994,1.55 0 0 1 1.55,1.55 z"
         style="opacity:1;fill:none;fill-opacity:0.99516913;stroke:#000000;stroke-width:0.1;stroke-linejoin:miter;stroke-miterlimit:4;stroke-dasharray:none;stroke-dashoffset:0;stroke-opacity:1" />
      <path
         inkscape:connector-curvature="0"
         id="path842-8-2-1"
         d="m 139.86352,139.51412 a 1.5499994,1.55 0 0 1 -1.55,1.55 1.5499994,1.55 0 0 1 -1.55,-1.55 1.5499994,1.55 0 0 1 1.55,-1.55 1.5499994,1.55 0 0 1 1.55,1.55 z"
         style="opacity:1;fill:none;fill-opacity:0.99516913;stroke:#000000;stroke-width:0.1;stroke-linejoin:miter;stroke-miterlimit:4;stroke-dasharray:none;stroke-dashoffset:0;stroke-opacity:1" />
    </g>
    <g
       id="g961">
      <path
         inkscape:connector-curvature="0"
         id="path842-6-0-8-8"
         d="m 110.28532,119.79657 a 2.7500001,2.7500001 0 0 1 -2.75,2.75 2.7500001,2.7500001 0 0 1 -2.75,-2.75 2.7500001,2.7500001 0 0 1 2.75,-2.75 2.7500001,2.7500001 0 0 1 2.75,2.75 z"
         style="opacity:1;fill:none;fill-opacity:0.99516913;stroke:#000000;stroke-width:0.1;stroke-linejoin:miter;stroke-miterlimit:4;stroke-dasharray:none;stroke-dashoffset:0;stroke-opacity:1" />
      <path
         inkscape:connector-curvature="0"
         id="path876-0-8"
         d="m 142.28531,109.79656 a 24.75,24.75 0 0 1 -24.75,24.75001 24.75,24.75 0 0 1 -24.750002,-24.75001 24.75,24.75 0 0 1 24.750002,-24.75 24.75,24.75 0 0 1 24.75,24.75 z"
         style="opacity:1;fill:none;fill-opacity:0.99516913;stroke:#000000;stroke-width:0.1;stroke-linejoin:miter;stroke-miterlimit:4;stroke-dasharray:none;stroke-dashoffset:0;stroke-opacity:1" />
      <rect
         y="108.92474"
         x="108.16779"
         height="1.5350001"
         width="18.735001"
         id="rect907-5-6-5"
         style="fill:none;fill-opacity:1;stroke:#000000;stroke-width:0.1;stroke-miterlimit:4;stroke-dasharray:none;stroke-dashoffset:0;stroke-opacity:1" />
      <path
         inkscape:connector-curvature="0"
         id="path842-8-2-63"
         d="m 119.08531,130.69225 a 1.5499994,1.55 0 0 1 -1.55,1.55 1.5499994,1.55 0 0 1 -1.55,-1.55 1.5499994,1.55 0 0 1 1.55,-1.55 1.5499994,1.55 0 0 1 1.55,1.55 z"
         style="opacity:1;fill:none;fill-opacity:0.99516913;stroke:#000000;stroke-width:0.1;stroke-linejoin:miter;stroke-miterlimit:4;stroke-dasharray:none;stroke-dashoffset:0;stroke-opacity:1" />
      <path
         inkscape:connector-curvature="0"
         id="path842-8-2-7-1"
         d="m 119.08531,88.69224 a 1.5499994,1.55 0 0 1 -1.55,1.55 1.5499994,1.55 0 0 1 -1.55,-1.55 1.5499994,1.55 0 0 1 1.55,-1.55 1.5499994,1.55 0 0 1 1.55,1.55 z"
         style="opacity:1;fill:none;fill-opacity:0.99516913;stroke:#000000;stroke-width:0.1;stroke-linejoin:miter;stroke-miterlimit:4;stroke-dasharray:none;stroke-dashoffset:0;stroke-opacity:1" />
    </g>
  </g>
</svg>
