<?xml version="1.0" standalone="no"?>
 <!DOCTYPE svg PUBLIC "-//W3C//DTD SVG 1.1//EN" 
 "http://www.w3.org/Graphics/SVG/1.1/DTD/svg11.dtd"> 
<svg xmlns="http://www.w3.org/2000/svg" version="1.1" 
    width="29.7002cm" height="21.0007cm" viewBox="0 0 116930 82680 ">
<title>SVG Picture created as Jam Jar Solar PCB-Edge_Cuts.svg date 2020/12/11 15:29:22 </title>
  <desc>Picture generated by PCBNEW </desc>
<g style="fill:#000000; fill-opacity:1;stroke:#000000; stroke-opacity:1;
stroke-linecap:round; stroke-linejoin:round; "
 transform="translate(0 0) scale(1 1)">
</g>
<g style="fill:#000000; fill-opacity:0.0; 
stroke:#000000; stroke-width:-0.000393701; stroke-opacity:1; 
stroke-linecap:round; stroke-linejoin:round;">
</g>
<g style="fill:#000000; fill-opacity:0.0; 
stroke:#000000; stroke-width:39.3701; stroke-opacity:1; 
stroke-linecap:round; stroke-linejoin:round;">
<path d="M67604 10533
L67604 10533
" />
<path d="M74835 10533
L67604 10533
" />
<path d="M74835 11446
L74835 10533
" />
<path d="M74837 11472
L74835 11446
" />
<path d="M74840 11497
L74837 11472
" />
<path d="M74847 11522
L74840 11497
" />
<path d="M74855 11545
L74847 11522
" />
<path d="M74866 11567
L74855 11545
" />
<path d="M74878 11588
L74866 11567
" />
<path d="M74893 11607
L74878 11588
" />
<path d="M74909 11625
L74893 11607
" />
<path d="M74927 11641
L74909 11625
" />
<path d="M74946 11656
L74927 11641
" />
<path d="M74967 11668
L74946 11656
" />
<path d="M74989 11679
L74967 11668
" />
<path d="M75012 11687
L74989 11679
" />
<path d="M75037 11694
L75012 11687
" />
<path d="M75062 11697
L75037 11694
" />
<path d="M75088 11699
L75062 11697
" />
<path d="M75149 11699
L75088 11699
" />
<path d="M75210 11699
L75149 11699
" />
<path d="M76197 11699
L75210 11699
" />
<path d="M76243 11700
L76197 11699
" />
<path d="M76288 11703
L76243 11700
" />
<path d="M76333 11709
L76288 11703
" />
<path d="M76376 11717
L76333 11709
" />
<path d="M76419 11727
L76376 11717
" />
<path d="M76461 11738
L76419 11727
" />
<path d="M76502 11752
L76461 11738
" />
<path d="M76543 11768
L76502 11752
" />
<path d="M76582 11786
L76543 11768
" />
<path d="M76620 11805
L76582 11786
" />
<path d="M76657 11827
L76620 11805
" />
<path d="M76693 11850
L76657 11827
" />
<path d="M76728 11874
L76693 11850
" />
<path d="M76761 11900
L76728 11874
" />
<path d="M76793 11928
L76761 11900
" />
<path d="M76824 11957
L76793 11928
" />
<path d="M76853 11988
L76824 11957
" />
<path d="M76881 12020
L76853 11988
" />
<path d="M76907 12054
L76881 12020
" />
<path d="M76932 12088
L76907 12054
" />
<path d="M76955 12124
L76932 12088
" />
<path d="M76976 12161
L76955 12124
" />
<path d="M76996 12200
L76976 12161
" />
<path d="M77013 12239
L76996 12200
" />
<path d="M77029 12279
L77013 12239
" />
<path d="M77043 12320
L77029 12279
" />
<path d="M77055 12362
L77043 12320
" />
<path d="M77065 12405
L77055 12362
" />
<path d="M77073 12449
L77065 12405
" />
<path d="M77078 12493
L77073 12449
" />
<path d="M77082 12538
L77078 12493
" />
<path d="M77083 12584
L77082 12538
" />
<path d="M77083 33170
L77083 12584
" />
<path d="M77082 33215
L77083 33170
" />
<path d="M77078 33260
L77082 33215
" />
<path d="M77073 33305
L77078 33260
" />
<path d="M77065 33348
L77073 33305
" />
<path d="M77055 33391
L77065 33348
" />
<path d="M77043 33433
L77055 33391
" />
<path d="M77029 33475
L77043 33433
" />
<path d="M77013 33515
L77029 33475
" />
<path d="M76996 33554
L77013 33515
" />
<path d="M76976 33592
L76996 33554
" />
<path d="M76955 33629
L76976 33592
" />
<path d="M76932 33665
L76955 33629
" />
<path d="M76907 33700
L76932 33665
" />
<path d="M76881 33733
L76907 33700
" />
<path d="M76853 33766
L76881 33733
" />
<path d="M76824 33796
L76853 33766
" />
<path d="M76793 33826
L76824 33796
" />
<path d="M76761 33853
L76793 33826
" />
<path d="M76728 33880
L76761 33853
" />
<path d="M76693 33904
L76728 33880
" />
<path d="M76657 33927
L76693 33904
" />
<path d="M76620 33948
L76657 33927
" />
<path d="M76582 33968
L76620 33948
" />
<path d="M76543 33986
L76582 33968
" />
<path d="M76502 34002
L76543 33986
" />
<path d="M76461 34015
L76502 34002
" />
<path d="M76419 34027
L76461 34015
" />
<path d="M76376 34037
L76419 34027
" />
<path d="M76333 34045
L76376 34037
" />
<path d="M76288 34050
L76333 34045
" />
<path d="M76243 34054
L76288 34050
" />
<path d="M76197 34055
L76243 34054
" />
<path d="M66242 34055
L76197 34055
" />
<path d="M66196 34054
L66242 34055
" />
<path d="M66151 34050
L66196 34054
" />
<path d="M66107 34045
L66151 34050
" />
<path d="M66063 34037
L66107 34045
" />
<path d="M66020 34027
L66063 34037
" />
<path d="M65978 34015
L66020 34027
" />
<path d="M65937 34002
L65978 34015
" />
<path d="M65897 33986
L65937 34002
" />
<path d="M65857 33968
L65897 33986
" />
<path d="M65819 33948
L65857 33968
" />
<path d="M65782 33927
L65819 33948
" />
<path d="M65746 33904
L65782 33927
" />
<path d="M65711 33880
L65746 33904
" />
<path d="M65678 33853
L65711 33880
" />
<path d="M65646 33826
L65678 33853
" />
<path d="M65615 33796
L65646 33826
" />
<path d="M65586 33766
L65615 33796
" />
<path d="M65558 33733
L65586 33766
" />
<path d="M65532 33700
L65558 33733
" />
<path d="M65507 33665
L65532 33700
" />
<path d="M65484 33629
L65507 33665
" />
<path d="M65463 33592
L65484 33629
" />
<path d="M65444 33554
L65463 33592
" />
<path d="M65426 33515
L65444 33554
" />
<path d="M65410 33475
L65426 33515
" />
<path d="M65396 33433
L65410 33475
" />
<path d="M65384 33391
L65396 33433
" />
<path d="M65374 33348
L65384 33391
" />
<path d="M65367 33305
L65374 33348
" />
<path d="M65361 33260
L65367 33305
" />
<path d="M65358 33215
L65361 33260
" />
<path d="M65356 33170
L65358 33215
" />
<path d="M65356 12584
L65356 33170
" />
<path d="M65358 12538
L65356 12584
" />
<path d="M65361 12493
L65358 12538
" />
<path d="M65367 12449
L65361 12493
" />
<path d="M65374 12405
L65367 12449
" />
<path d="M65384 12362
L65374 12405
" />
<path d="M65396 12320
L65384 12362
" />
<path d="M65410 12279
L65396 12320
" />
<path d="M65426 12239
L65410 12279
" />
<path d="M65444 12200
L65426 12239
" />
<path d="M65463 12161
L65444 12200
" />
<path d="M65484 12124
L65463 12161
" />
<path d="M65507 12088
L65484 12124
" />
<path d="M65532 12054
L65507 12088
" />
<path d="M65558 12020
L65532 12054
" />
<path d="M65586 11988
L65558 12020
" />
<path d="M65615 11957
L65586 11988
" />
<path d="M65646 11928
L65615 11957
" />
<path d="M65678 11900
L65646 11928
" />
<path d="M65711 11874
L65678 11900
" />
<path d="M65746 11850
L65711 11874
" />
<path d="M65782 11827
L65746 11850
" />
<path d="M65819 11805
L65782 11827
" />
<path d="M65857 11786
L65819 11805
" />
<path d="M65897 11768
L65857 11786
" />
<path d="M65937 11752
L65897 11768
" />
<path d="M65978 11738
L65937 11752
" />
<path d="M66020 11727
L65978 11738
" />
<path d="M66063 11717
L66020 11727
" />
<path d="M66107 11709
L66063 11717
" />
<path d="M66151 11703
L66107 11709
" />
<path d="M66196 11700
L66151 11703
" />
<path d="M66242 11699
L66196 11700
" />
<path d="M67229 11699
L66242 11699
" />
<path d="M67290 11699
L67229 11699
" />
<path d="M67352 11699
L67290 11699
" />
<path d="M67377 11697
L67352 11699
" />
<path d="M67403 11694
L67377 11697
" />
<path d="M67427 11687
L67403 11694
" />
<path d="M67450 11679
L67427 11687
" />
<path d="M67472 11668
L67450 11679
" />
<path d="M67493 11656
L67472 11668
" />
<path d="M67512 11641
L67493 11656
" />
<path d="M67530 11625
L67512 11641
" />
<path d="M67547 11607
L67530 11625
" />
<path d="M67561 11588
L67547 11607
" />
<path d="M67574 11567
L67561 11588
" />
<path d="M67584 11545
L67574 11567
" />
<path d="M67593 11522
L67584 11545
" />
<path d="M67599 11497
L67593 11522
" />
<path d="M67603 11472
L67599 11497
" />
<path d="M67604 11446
L67603 11472
" />
<path d="M67604 10533
L67604 11446
" />
<g >
</g>
<g >
</g>
<g >
</g>
<g >
</g>
<g >
</g>
<g >
</g>
<g >
</g>
<g >
</g>
<g >
</g>
<g >
</g>
<g >
</g>
<g >
</g>
<g >
</g>
</g> 
</svg>
