G04 #@! TF.GenerationSoftware,KiCad,Pcbnew,(5.1.0)-1*
G04 #@! TF.CreationDate,2020-11-16T17:40:52+00:00*
G04 #@! TF.ProjectId,Jam Jar Solar PCB,4a616d20-4a61-4722-9053-6f6c61722050,rev?*
G04 #@! TF.SameCoordinates,Original*
G04 #@! TF.FileFunction,Profile,NP*
%FSLAX46Y46*%
G04 Gerber Fmt 4.6, Leading zero omitted, Abs format (unit mm)*
G04 Created by KiCad (PCBNEW (5.1.0)-1) date 2020-11-16 17:40:52*
%MOMM*%
%LPD*%
G04 APERTURE LIST*
%ADD10C,0.100000*%
G04 APERTURE END LIST*
D10*
X171715429Y-26756019D02*
X171715429Y-29074745D01*
X171715429Y-29074745D02*
X171712122Y-29140494D01*
X171712122Y-29140494D02*
X171702438Y-29204338D01*
X171702438Y-29204338D02*
X171686696Y-29265880D01*
X171686696Y-29265880D02*
X171665185Y-29324882D01*
X171665185Y-29324882D02*
X171638251Y-29380947D01*
X171638251Y-29380947D02*
X171606210Y-29433837D01*
X171606210Y-29433837D02*
X171569380Y-29483182D01*
X171569380Y-29483182D02*
X171528052Y-29528663D01*
X171528052Y-29528663D02*
X171482543Y-29569991D01*
X171482543Y-29569991D02*
X171433199Y-29606848D01*
X171433199Y-29606848D02*
X171380335Y-29638889D01*
X171380335Y-29638889D02*
X171324243Y-29665823D01*
X171324243Y-29665823D02*
X171265268Y-29687307D01*
X171265268Y-29687307D02*
X171203699Y-29703050D01*
X171203699Y-29703050D02*
X171139882Y-29712734D01*
X171139882Y-29712734D02*
X171074107Y-29716041D01*
X171074107Y-29716041D02*
X170919087Y-29716041D01*
X170919087Y-29716041D02*
X170764042Y-29716041D01*
X170764042Y-29716041D02*
X168255689Y-29716041D01*
X168255689Y-29716041D02*
X168139617Y-29718952D01*
X168139617Y-29718952D02*
X168025105Y-29727603D01*
X168025105Y-29727603D02*
X167912287Y-29741864D01*
X167912287Y-29741864D02*
X167801321Y-29761576D01*
X167801321Y-29761576D02*
X167692339Y-29786605D01*
X167692339Y-29786605D02*
X167585474Y-29816821D01*
X167585474Y-29816821D02*
X167480884Y-29852063D01*
X167480884Y-29852063D02*
X167378649Y-29892227D01*
X167378649Y-29892227D02*
X167278981Y-29937153D01*
X167278981Y-29937153D02*
X167181985Y-29986710D01*
X167181985Y-29986710D02*
X167087793Y-30040737D01*
X167087793Y-30040737D02*
X166996565Y-30099104D01*
X166996565Y-30099104D02*
X166908433Y-30161705D01*
X166908433Y-30161705D02*
X166823528Y-30228353D01*
X166823528Y-30228353D02*
X166742010Y-30298917D01*
X166742010Y-30298917D02*
X166663984Y-30373292D01*
X166663984Y-30373292D02*
X166589610Y-30451317D01*
X166589610Y-30451317D02*
X166519046Y-30532862D01*
X166519046Y-30532862D02*
X166452371Y-30617740D01*
X166452371Y-30617740D02*
X166389797Y-30705899D01*
X166389797Y-30705899D02*
X166331430Y-30797127D01*
X166331430Y-30797127D02*
X166277376Y-30891292D01*
X166277376Y-30891292D02*
X166227846Y-30988288D01*
X166227846Y-30988288D02*
X166182919Y-31087983D01*
X166182919Y-31087983D02*
X166142756Y-31190192D01*
X166142756Y-31190192D02*
X166107513Y-31294781D01*
X166107513Y-31294781D02*
X166077298Y-31401647D01*
X166077298Y-31401647D02*
X166052268Y-31510655D01*
X166052268Y-31510655D02*
X166032557Y-31621621D01*
X166032557Y-31621621D02*
X166018296Y-31734413D01*
X166018296Y-31734413D02*
X166009644Y-31848924D01*
X166009644Y-31848924D02*
X166006734Y-31964997D01*
X166006734Y-31964997D02*
X166006734Y-84252127D01*
X166006734Y-84252127D02*
X166009644Y-84368279D01*
X166009644Y-84368279D02*
X166018296Y-84482844D01*
X166018296Y-84482844D02*
X166032557Y-84595556D01*
X166032557Y-84595556D02*
X166052268Y-84706416D01*
X166052268Y-84706416D02*
X166077298Y-84815424D01*
X166077298Y-84815424D02*
X166107513Y-84922316D01*
X166107513Y-84922316D02*
X166142756Y-85027091D01*
X166142756Y-85027091D02*
X166182919Y-85129220D01*
X166182919Y-85129220D02*
X166227846Y-85228968D01*
X166227846Y-85228968D02*
X166277376Y-85325805D01*
X166277376Y-85325805D02*
X166331430Y-85419997D01*
X166331430Y-85419997D02*
X166389797Y-85511278D01*
X166389797Y-85511278D02*
X166452371Y-85599384D01*
X166452371Y-85599384D02*
X166519046Y-85684315D01*
X166519046Y-85684315D02*
X166589610Y-85765807D01*
X166589610Y-85765807D02*
X166663984Y-85843859D01*
X166663984Y-85843859D02*
X166742010Y-85918206D01*
X166742010Y-85918206D02*
X166823528Y-85988850D01*
X166823528Y-85988850D02*
X166908433Y-86055525D01*
X166908433Y-86055525D02*
X166996565Y-86117967D01*
X166996565Y-86117967D02*
X167087793Y-86176439D01*
X167087793Y-86176439D02*
X167181985Y-86230414D01*
X167181985Y-86230414D02*
X167278981Y-86279891D01*
X167278981Y-86279891D02*
X167378649Y-86324870D01*
X167378649Y-86324870D02*
X167480884Y-86365087D01*
X167480884Y-86365087D02*
X167585474Y-86400277D01*
X167585474Y-86400277D02*
X167692339Y-86430439D01*
X167692339Y-86430439D02*
X167801321Y-86455574D01*
X167801321Y-86455574D02*
X167912287Y-86475418D01*
X167912287Y-86475418D02*
X168025105Y-86489441D01*
X168025105Y-86489441D02*
X168139617Y-86498172D01*
X168139617Y-86498172D02*
X168255689Y-86501083D01*
X168255689Y-86501083D02*
X193542521Y-86501083D01*
X193542521Y-86501083D02*
X193658673Y-86498172D01*
X193658673Y-86498172D02*
X193772973Y-86489441D01*
X193772973Y-86489441D02*
X193885950Y-86475418D01*
X193885950Y-86475418D02*
X193996810Y-86455574D01*
X193996810Y-86455574D02*
X194105819Y-86430439D01*
X194105819Y-86430439D02*
X194212710Y-86400277D01*
X194212710Y-86400277D02*
X194317220Y-86365087D01*
X194317220Y-86365087D02*
X194419614Y-86324870D01*
X194419614Y-86324870D02*
X194519097Y-86279891D01*
X194519097Y-86279891D02*
X194616199Y-86230414D01*
X194616199Y-86230414D02*
X194710391Y-86176439D01*
X194710391Y-86176439D02*
X194801672Y-86117967D01*
X194801672Y-86117967D02*
X194889778Y-86055525D01*
X194889778Y-86055525D02*
X194974709Y-85988850D01*
X194974709Y-85988850D02*
X195056201Y-85918206D01*
X195056201Y-85918206D02*
X195134253Y-85843859D01*
X195134253Y-85843859D02*
X195208601Y-85765807D01*
X195208601Y-85765807D02*
X195279244Y-85684315D01*
X195279244Y-85684315D02*
X195345655Y-85599384D01*
X195345655Y-85599384D02*
X195408361Y-85511278D01*
X195408361Y-85511278D02*
X195466834Y-85419997D01*
X195466834Y-85419997D02*
X195520809Y-85325805D01*
X195520809Y-85325805D02*
X195570286Y-85228968D01*
X195570286Y-85228968D02*
X195615265Y-85129220D01*
X195615265Y-85129220D02*
X195655481Y-85027091D01*
X195655481Y-85027091D02*
X195690671Y-84922316D01*
X195690671Y-84922316D02*
X195720833Y-84815424D01*
X195720833Y-84815424D02*
X195745969Y-84706416D01*
X195745969Y-84706416D02*
X195765548Y-84595556D01*
X195765548Y-84595556D02*
X195779835Y-84482844D01*
X195779835Y-84482844D02*
X195788567Y-84368279D01*
X195788567Y-84368279D02*
X195791477Y-84252127D01*
X195791477Y-84252127D02*
X195791477Y-31964997D01*
X195791477Y-31964997D02*
X195788567Y-31848924D01*
X195788567Y-31848924D02*
X195779835Y-31734413D01*
X195779835Y-31734413D02*
X195765548Y-31621621D01*
X195765548Y-31621621D02*
X195745969Y-31510655D01*
X195745969Y-31510655D02*
X195720833Y-31401647D01*
X195720833Y-31401647D02*
X195690671Y-31294781D01*
X195690671Y-31294781D02*
X195655481Y-31190192D01*
X195655481Y-31190192D02*
X195615265Y-31087983D01*
X195615265Y-31087983D02*
X195570286Y-30988288D01*
X195570286Y-30988288D02*
X195520809Y-30891292D01*
X195520809Y-30891292D02*
X195466834Y-30797127D01*
X195466834Y-30797127D02*
X195408361Y-30705899D01*
X195408361Y-30705899D02*
X195345655Y-30617740D01*
X195345655Y-30617740D02*
X195279244Y-30532862D01*
X195279244Y-30532862D02*
X195208601Y-30451317D01*
X195208601Y-30451317D02*
X195134253Y-30373292D01*
X195134253Y-30373292D02*
X195056201Y-30298917D01*
X195056201Y-30298917D02*
X194974709Y-30228353D01*
X194974709Y-30228353D02*
X194889778Y-30161705D01*
X194889778Y-30161705D02*
X194801672Y-30099104D01*
X194801672Y-30099104D02*
X194710391Y-30040737D01*
X194710391Y-30040737D02*
X194616199Y-29986710D01*
X194616199Y-29986710D02*
X194519097Y-29937153D01*
X194519097Y-29937153D02*
X194419614Y-29892227D01*
X194419614Y-29892227D02*
X194317220Y-29852063D01*
X194317220Y-29852063D02*
X194212710Y-29816821D01*
X194212710Y-29816821D02*
X194105819Y-29786605D01*
X194105819Y-29786605D02*
X193996810Y-29761576D01*
X193996810Y-29761576D02*
X193885950Y-29741864D01*
X193885950Y-29741864D02*
X193772973Y-29727603D01*
X193772973Y-29727603D02*
X193658673Y-29718952D01*
X193658673Y-29718952D02*
X193542521Y-29716041D01*
X193542521Y-29716041D02*
X191034010Y-29716041D01*
X191034010Y-29716041D02*
X190878964Y-29716041D01*
X190878964Y-29716041D02*
X190724183Y-29716041D01*
X190724183Y-29716041D02*
X190658302Y-29712734D01*
X190658302Y-29712734D02*
X190594538Y-29703050D01*
X190594538Y-29703050D02*
X190532890Y-29687307D01*
X190532890Y-29687307D02*
X190473888Y-29665823D01*
X190473888Y-29665823D02*
X190417796Y-29638889D01*
X190417796Y-29638889D02*
X190364880Y-29606848D01*
X190364880Y-29606848D02*
X190315667Y-29569991D01*
X190315667Y-29569991D02*
X190270159Y-29528663D01*
X190270159Y-29528663D02*
X190228884Y-29483182D01*
X190228884Y-29483182D02*
X190191842Y-29433837D01*
X190191842Y-29433837D02*
X190159828Y-29380947D01*
X190159828Y-29380947D02*
X190133105Y-29324882D01*
X190133105Y-29324882D02*
X190111409Y-29265880D01*
X190111409Y-29265880D02*
X190095799Y-29204338D01*
X190095799Y-29204338D02*
X190086009Y-29140494D01*
X190086009Y-29140494D02*
X190082834Y-29074745D01*
X190082834Y-29074745D02*
X190082834Y-26756019D01*
X190082834Y-26756019D02*
X171715429Y-26756019D01*
X171715429Y-26756019D02*
X171715429Y-26756019D01*
M02*
