<?xml version="1.0" standalone="no"?>
 <!DOCTYPE svg PUBLIC "-//W3C//DTD SVG 1.1//EN" 
 "http://www.w3.org/Graphics/SVG/1.1/DTD/svg11.dtd"> 
<svg xmlns="http://www.w3.org/2000/svg" version="1.1" 
    width="29.7002cm" height="21.0007cm" viewBox="0 0 116930 82680 ">
<title>SVG Picture created as Jam Jar Solar PCB-B_Cu.svg date 2020/12/11 15:29:22 </title>
  <desc>Picture generated by PCBNEW </desc>
<g style="fill:#000000; fill-opacity:1;stroke:#000000; stroke-opacity:1;
stroke-linecap:round; stroke-linejoin:round; "
 transform="translate(0 0) scale(1 1)">
</g>
<g style="fill:#000000; fill-opacity:0.0; 
stroke:#000000; stroke-width:-0.000393701; stroke-opacity:1; 
stroke-linecap:round; stroke-linejoin:round;">
</g>
<g style="fill:#000000; fill-opacity:0.0; 
stroke:#000000; stroke-width:118.11; stroke-opacity:1; 
stroke-linecap:round; stroke-linejoin:round;">
<path d="M69615 15987
L69024 15987
L69615 16325
L69024 16325
" />
<path d="M69615 16606
L69221 16606
" />
<path d="M69024 16606
L69052 16578
L69080 16606
L69052 16634
L69024 16606
L69080 16606
" />
<path d="M69615 16887
L69024 16887
L69446 17084
L69024 17281
L69615 17281
" />
<path d="M69615 17562
L69024 17562
" />
<path d="M69305 17562
L69305 17900
" />
<path d="M69615 17900
L69024 17900
" />
<path d="M69615 18940
L69615 18603
" />
<path d="M69615 18771
L69024 18771
L69108 18715
L69165 18659
L69193 18603
" />
<path d="M69558 19193
L69587 19221
L69615 19193
L69587 19165
L69558 19193
L69615 19193
" />
<path d="M69080 19446
L69052 19474
L69024 19531
L69024 19671
L69052 19727
L69080 19756
L69137 19784
L69193 19784
L69277 19756
L69615 19418
L69615 19784
" />
<path d="M69024 19952
L69615 20149
L69024 20346
" />
<path d="M70562 16634
L70591 16606
L70619 16522
L70619 16465
L70591 16381
L70534 16325
L70478 16297
L70366 16269
L70281 16269
L70169 16297
L70112 16325
L70056 16381
L70028 16465
L70028 16522
L70056 16606
L70084 16634
" />
<path d="M70591 17112
L70619 17056
L70619 16943
L70591 16887
L70534 16859
L70309 16859
L70253 16887
L70225 16943
L70225 17056
L70253 17112
L70309 17140
L70366 17140
L70422 16859
" />
<path d="M70619 17478
L70591 17421
L70534 17393
L70028 17393
" />
<path d="M70619 17787
L70591 17731
L70534 17703
L70028 17703
" />
<path d="M70028 18574
L70028 18687
L70056 18743
L70112 18799
L70225 18828
L70422 18828
L70534 18799
L70591 18743
L70619 18687
L70619 18574
L70591 18518
L70534 18462
L70422 18434
L70225 18434
L70112 18462
L70056 18518
L70028 18574
" />
<path d="M70619 19081
L70028 19081
L70619 19418
L70028 19418
" />
<path d="M70619 19981
L70619 19699
L70028 19699
" />
<path d="M70337 20290
L70619 20290
" />
<path d="M70028 20093
L70337 20290
L70028 20487
" />
</g>
<g style="fill:#000000; fill-opacity:1.0; 
stroke:#000000; stroke-width:3.93701; stroke-opacity:1; 
stroke-linecap:round; stroke-linejoin:round;">
<path style="fill:#000000; fill-opacity:1.0; 
stroke:#000000; stroke-width:3.93701; stroke-opacity:1; 
stroke-linecap:round; stroke-linejoin:round;fill-rule:evenodd;"
d="M 70967,30084
70953,30096
70954,30104
70963,30129
70980,30176
71000,30233
71026,30303
71047,30347
71069,30371
71096,30381
71132,30383
71165,30381
71191,30370
71217,30346
71250,30301
71268,30276
71299,30234
71158,30234
71158,30259
71148,30277
71129,30293
71117,30280
71114,30272
71103,30240
71101,30229
71111,30217
71136,30219
71157,30231
71158,30234
71299,30234
71309,30219
71337,30193
71355,30197
71363,30232
71366,30299
71366,30304
71366,30400
71441,30400
71482,30398
71510,30389
71535,30367
71565,30325
71578,30305
71641,30210
71646,30305
71651,30360
71661,30388
71682,30395
71720,30388
71722,30388
71744,30371
71743,30344
71738,30307
71734,30252
71733,30212
71733,30116
71657,30116
71618,30117
71590,30125
71567,30146
71538,30185
71516,30219
71450,30321
71450,30125
71354,30125
71298,30128
71258,30136
71245,30144
71220,30155
71177,30156
71127,30146
71083,30129
71061,30114
71032,30094
70997,30084
70967,30084
Z" /> 
<path style="fill:#000000; fill-opacity:1.0; 
stroke:#000000; stroke-width:3.93701; stroke-opacity:1; 
stroke-linecap:round; stroke-linejoin:round;fill-rule:evenodd;"
d="M 71937,30069
71906,30077
71893,30098
71891,30134
71881,30185
71858,30246
71845,30270
71812,30332
71800,30369
71809,30381
71812,30381
71837,30376
71863,30371
71899,30349
71928,30307
71951,30265
71969,30252
71992,30266
72008,30283
72052,30309
72106,30315
72147,30301
72153,30288
72136,30265
72095,30230
72076,30216
72021,30171
71992,30135
71983,30105
71978,30076
71956,30068
71937,30069
Z" /> 
<path style="fill:#000000; fill-opacity:1.0; 
stroke:#000000; stroke-width:3.93701; stroke-opacity:1; 
stroke-linecap:round; stroke-linejoin:round;fill-rule:evenodd;"
d="M 70669,30020
70655,30046
70638,30097
70631,30119
70615,30178
70605,30227
70604,30254
70604,30255
70624,30270
70667,30288
70722,30307
70782,30322
70834,30331
70857,30333
70895,30322
70913,30304
70939,30236
70938,30222
70847,30222
70842,30232
70819,30241
70779,30238
70734,30224
70721,30218
70710,30197
70714,30187
70731,30175
70762,30178
70784,30185
70828,30200
70846,30211
70847,30222
70938,30222
70937,30185
70905,30147
70843,30119
70823,30114
70776,30099
70754,30081
70750,30058
70738,30026
70708,30012
70685,30010
70669,30020
Z" /> 
<path style="fill:#000000; fill-opacity:1.0; 
stroke:#000000; stroke-width:3.93701; stroke-opacity:1; 
stroke-linecap:round; stroke-linejoin:round;fill-rule:evenodd;"
d="M 70216,29836
70197,29875
70175,29925
70152,29977
70133,30022
70122,30052
70120,30058
70147,30074
70188,30094
70229,30110
70254,30116
70280,30105
70313,30077
70316,30075
70351,30042
70372,30038
70381,30064
70383,30107
70385,30155
70398,30183
70430,30206
70449,30216
70491,30236
70518,30248
70523,30250
70534,30236
70554,30198
70581,30145
70588,30129
70614,30071
70630,30026
70636,30000
70635,29997
70612,29984
70589,29976
70566,29974
70548,29988
70530,30026
70522,30045
70491,30125
70481,30037
70473,29982
70464,29939
70460,29925
70437,29903
70398,29904
70350,29929
70338,29937
70284,29981
70253,30003
70242,30005
70248,29986
70268,29946
70273,29937
70317,29849
70275,29830
70242,29818
70226,29818
70216,29836
Z" /> 
<path style="fill:#000000; fill-opacity:1.0; 
stroke:#000000; stroke-width:3.93701; stroke-opacity:1; 
stroke-linecap:round; stroke-linejoin:round;fill-rule:evenodd;"
d="M 70318,25224
70262,25245
70193,25276
70119,25312
70048,25349
69987,25385
69944,25414
69937,25420
69909,25459
69902,25507
69916,25570
69951,25653
69956,25663
69998,25740
70033,25789
70069,25815
70111,25821
70164,25813
70166,25812
70190,25810
70213,25820
70240,25848
70279,25899
70282,25903
70319,25956
70338,25988
70342,26007
70333,26019
70327,26023
70168,26131
70013,26255
69871,26390
69748,26529
69667,26641
69542,26858
69444,27081
69376,27305
69349,27447
69340,27538
69335,27657
69335,27798
69337,27871
69341,27990
69347,28083
69355,28160
69367,28229
69383,28299
69388,28321
69470,28567
69580,28798
69716,29011
69877,29205
70060,29378
70264,29528
70487,29653
70726,29750
70933,29809
71021,29824
71134,29836
71261,29843
71393,29846
71521,29845
71636,29838
71728,29828
71737,29826
71805,29813
71862,29801
71898,29792
71905,29790
71925,29800
71957,29837
72000,29900
72009,29915
72046,29973
72077,30018
72097,30045
72103,30049
72103,30035
72093,29996
72077,29939
72065,29905
72044,29842
72029,29792
72021,29763
72020,29758
72037,29751
72075,29737
72108,29725
72313,29635
72513,29516
72704,29370
72735,29341
72524,29341
72433,29402
72358,29448
72281,29492
72206,29531
72134,29564
72072,29590
72020,29608
71984,29617
71966,29614
71970,29599
71999,29571
72010,29561
72025,29549
71722,29549
71720,29571
71703,29603
71659,29667
71616,29704
71569,29716
71566,29716
71531,29713
71522,29707
71317,29707
71317,29707
71183,29707
71168,29716
71126,29710
71059,29691
71054,29689
70979,29656
70891,29603
70884,29598
70717,29598
70714,29599
70711,29600
70691,29593
70649,29576
70594,29552
70587,29549
70534,29523
70471,29489
70404,29452
70341,29415
70287,29381
70249,29355
70233,29341
70233,29340
70248,29336
70287,29333
70323,29333
70364,29334
70396,29339
70427,29353
70465,29379
70516,29421
70552,29452
70621,29511
70669,29551
70698,29577
70713,29592
70717,29598
70884,29598
70798,29538
70709,29466
70633,29394
70609,29369
70578,29333
70734,29333
70891,29334
70941,29404
70976,29451
71024,29511
71076,29573
71087,29586
71130,29637
71163,29678
71181,29703
71183,29707
71317,29707
71257,29649
71218,29608
71169,29551
71118,29488
71107,29473
71066,29420
71035,29376
71018,29349
71016,29344
71032,29339
71073,29336
71132,29336
71162,29336
71308,29341
71317,29707
71522,29707
71517,29704
71517,29704
71528,29686
71555,29651
71594,29606
71599,29600
71642,29554
71671,29530
71690,29523
71706,29532
71722,29549
72025,29549
72044,29534
72095,29492
72153,29443
72174,29424
72279,29334
72125,29334
72038,29417
71994,29457
71958,29487
71938,29499
71938,29500
71923,29486
71905,29452
71904,29447
71891,29395
71901,29360
71911,29355
71654,29355
71648,29375
71624,29413
71589,29464
71547,29520
71503,29575
71464,29622
71432,29655
71415,29666
71408,29651
71403,29609
71400,29548
71400,29500
71400,29333
71523,29333
71596,29335
71639,29343
71654,29355
71911,29355
71937,29340
72002,29333
72021,29333
72125,29334
72279,29334
72291,29323
72524,29341
72735,29341
72880,29204
73037,29019
73171,28820
73181,28804
73268,28632
73116,28632
73106,28661
73079,28710
73038,28774
72988,28847
72932,28924
72874,28999
72818,29067
72784,29106
72720,29171
72665,29213
72611,29237
72548,29248
72487,29249
72428,29248
72385,29245
72366,29241
72366,29240
72375,29224
72400,29186
72437,29134
72473,29082
72531,28998
72592,28903
72648,28810
72667,28776
72742,28640
72626,28640
72623,28656
72602,28707
72565,28777
72515,28859
72458,28946
72399,29032
72341,29110
72289,29172
72274,29188
72213,29251
72086,29246
71959,29241
71955,29229
71569,29229
71569,29244
71553,29249
71522,29248
71496,29246
71408,29241
71404,29100
71402,29029
71316,29029
71315,29107
71313,29173
71309,29219
71305,29238
71285,29243
71239,29247
71174,29249
71124,29250
71037,29248
70979,29243
70947,29235
70816,29235
70801,29241
70759,29246
70698,29249
70651,29250
70575,29249
70525,29247
70491,29240
70481,29235
70325,29235
70320,29245
70295,29249
70242,29249
70239,29250
70157,29243
70102,29224
70099,29222
70056,29190
70014,29154
69981,29121
69966,29099
69966,29097
69981,29087
70016,29080
70020,29080
70057,29072
70076,29050
70088,29012
70100,28972
70111,28951
70114,28950
70128,28964
70160,29003
70205,29064
70264,29145
70314,29217
70325,29235
70481,29235
70466,29228
70443,29207
70431,29195
70389,29149
70339,29088
70288,29022
70241,28955
70203,28897
70178,28852
70172,28838
70174,28784
70189,28749
70209,28702
70216,28659
70216,28616
70546,28616
70584,28712
70606,28764
70638,28837
70677,28922
70717,29008
70719,29014
70755,29090
70784,29156
70806,29205
70816,29232
70816,29235
70947,29235
70945,29234
70935,29227
70917,29199
70889,29147
70854,29078
70815,29000
70775,28918
70739,28840
70709,28772
70688,28721
70682,28704
70672,28658
70671,28626
70673,28620
70693,28616
70741,28612
70809,28609
70892,28606
70932,28606
71178,28604
71209,28656
71232,28701
71245,28739
71245,28741
71261,28777
71283,28802
71297,28817
71307,28838
71312,28872
71315,28924
71316,29002
71316,29029
71402,29029
71400,28958
71475,29075
71523,29148
71554,29198
71569,29229
71955,29229
71944,29188
71939,29161
71941,29131
71952,29091
71973,29034
72006,28954
72013,28938
72047,28857
72079,28782
72105,28721
72121,28682
72121,28681
72135,28652
72025,28652
72022,28670
72009,28712
71988,28770
71970,28817
71942,28886
71923,28927
71911,28944
71905,28939
71902,28924
71902,28879
71910,28819
71916,28787
71938,28719
71968,28678
71976,28672
72008,28655
72025,28652
72135,28652
72138,28646
72159,28627
72194,28616
72238,28610
72298,28607
72377,28606
72460,28609
72481,28610
72553,28616
72597,28621
72619,28629
72626,28640
72742,28640
72753,28620
72865,28609
72934,28605
73002,28606
73060,28611
73101,28620
73116,28632
73116,28632
73268,28632
73277,28615
73313,28517
71121,28517
70625,28508
70620,28496
70513,28496
70509,28506
70490,28513
70453,28515
70390,28516
70350,28516
70273,28516
70224,28514
70197,28510
70187,28501
70187,28488
70189,28479
70197,28441
70199,28422
70201,28419
69599,28419
69588,28438
69577,28445
69567,28435
69555,28403
69540,28355
69517,28275
69558,28325
69591,28377
69599,28419
70201,28419
70209,28397
70234,28361
70243,28350
70275,28300
70280,28251
70279,28251
70279,28219
70294,28197
70333,28176
70337,28175
70380,28158
70405,28156
70426,28168
70431,28172
70450,28205
70468,28262
70480,28320
70491,28385
70502,28442
70510,28478
70510,28479
70513,28496
70620,28496
70595,28418
70575,28352
70560,28284
70555,28255
70550,28210
70555,28189
70573,28183
70590,28183
70636,28168
70696,28124
70714,28108
70757,28070
70789,28043
70804,28033
70815,28046
70841,28083
70878,28138
70922,28206
70942,28237
70990,28313
71034,28382
71069,28437
71092,28473
71096,28479
71121,28517
73313,28517
73348,28419
73397,28212
73423,27986
73426,27939
73299,27939
73295,28010
73282,28096
73264,28190
73241,28284
73217,28370
73192,28441
73169,28487
73164,28494
73141,28506
73094,28513
73018,28516
72984,28516
72913,28515
72857,28513
72821,28509
72813,28507
72812,28488
72820,28444
72833,28383
72842,28345
72863,28254
72885,28150
72903,28050
72907,28025
72921,27954
72932,27908
72830,27908
72829,27965
72819,28041
72802,28130
72781,28223
72757,28314
72732,28393
72707,28454
72687,28487
72670,28501
72642,28509
72597,28514
72528,28516
72489,28516
72317,28516
72317,28513
72262,28513
72239,28516
72227,28516
72191,28508
72183,28491
72188,28474
72209,28479
72220,28485
72256,28504
72262,28513
72317,28513
72301,28454
72274,28348
72257,28267
72248,28206
72247,28156
72249,28138
71505,28138
71501,28156
71497,28161
71478,28177
71461,28164
71455,28156
71440,28131
71438,28122
71456,28122
71480,28127
71505,28138
72249,28138
72252,28113
72253,28106
72270,28053
72295,28022
72314,28012
72358,27987
72404,27955
72405,27954
72444,27929
72479,27916
72482,27916
72513,27909
72560,27889
72563,27888
69580,27888
69576,27897
69559,27915
69550,27911
69550,27909
69561,27895
69569,27890
69580,27888
72563,27888
72591,27874
72607,27867
72183,27867
72177,27882
72165,27869
72160,27857
72159,27840
72166,27841
72182,27863
72183,27867
72607,27867
72661,27844
72727,27835
72748,27836
72795,27841
72818,27851
72827,27876
72830,27908
72932,27908
72935,27895
72947,27857
72954,27846
72981,27840
73031,27836
73094,27834
73160,27834
73218,27837
73259,27843
73262,27843
73284,27854
73296,27875
73299,27917
73299,27939
73426,27939
73428,27891
73426,27670
73301,27670
73301,27719
73286,27744
73262,27755
73228,27759
73175,27760
73111,27760
73047,27758
72991,27755
72952,27750
72941,27746
72935,27726
72929,27680
72922,27619
72848,27619
72848,27672
72840,27718
72823,27747
72820,27749
72789,27756
72744,27757
72699,27752
72670,27742
72669,27741
72671,27727
72427,27727
72415,27757
72380,27766
72320,27756
72295,27743
72284,27714
72283,27681
72284,27664
72199,27664
72196,27703
72186,27737
72180,27746
72156,27759
72144,27744
72145,27706
72151,27678
72165,27639
72180,27617
72184,27616
72195,27630
72199,27664
72284,27664
72285,27639
72296,27621
72326,27616
72340,27616
72380,27620
72402,27639
72416,27674
72427,27727
72671,27727
72672,27723
72689,27687
72716,27640
72740,27601
71491,27601
71489,27614
71462,27607
71442,27600
71410,27579
71400,27543
71400,27531
71404,27498
71419,27495
71445,27523
71471,27565
71491,27601
72740,27601
72746,27591
72776,27549
72798,27522
72807,27516
72827,27531
72841,27569
72848,27619
72922,27619
72921,27613
72914,27534
72908,27450
71316,27450
71315,27508
71308,27538
71290,27546
71255,27539
71239,27534
71208,27524
71151,27506
71075,27482
70986,27454
70920,27433
70822,27402
70752,27379
70399,27379
70322,27387
70259,27402
70216,27432
70210,27439
70178,27471
70140,27492
70088,27504
70013,27509
69984,27510
69922,27510
69886,27506
69870,27497
69866,27483
69875,27459
69783,27459
69774,27480
69766,27483
69753,27469
69750,27449
69756,27425
69766,27425
69782,27449
69783,27459
69875,27459
69878,27451
69901,27423
69925,27407
69960,27398
70012,27395
70061,27396
70187,27400
70178,27352
70175,27319
70190,27297
70226,27277
70284,27255
70320,27252
70333,27268
70342,27293
70364,27329
70366,27332
70399,27379
70752,27379
70750,27378
70702,27360
70672,27345
70656,27332
70650,27318
70650,27306
70640,27250
70615,27212
70582,27200
70556,27187
70550,27156
70566,27116
70578,27106
70603,27099
70647,27094
70712,27090
70805,27087
70853,27086
71125,27080
71220,27216
71265,27279
71293,27325
71308,27362
71315,27399
71316,27445
71316,27450
72908,27450
72908,27448
72902,27363
72898,27286
72897,27235
72898,27164
72906,27119
72928,27095
72968,27085
73025,27083
73096,27085
73143,27094
73173,27117
73195,27159
73213,27213
73247,27335
73274,27457
73293,27572
73301,27670
73426,27670
73426,27634
73399,27396
73346,27173
73277,26992
73110,26992
73088,27007
73044,27015
72989,27015
72941,27008
71066,27008
71051,27014
71010,27017
70953,27018
70886,27016
70818,27013
70757,27009
70710,27003
70687,26997
70686,26996
70669,26964
70666,26941
70659,26904
70649,26889
70644,26865
70655,26816
70679,26748
70705,26684
70729,26643
70753,26626
70782,26633
70818,26664
70866,26723
70928,26808
70932,26812
70980,26881
71021,26940
71051,26983
71065,27006
71066,27008
72941,27008
72934,27007
72907,26999
72877,26985
72874,26968
72889,26942
72906,26900
72915,26834
72916,26771
72916,26748
72010,26748
72009,26771
71997,26785
71971,26790
71936,26788
71911,26780
71907,26777
71901,26754
71890,26708
71876,26647
71862,26581
71848,26518
71840,26474
70676,26474
70661,26496
70660,26498
70640,26536
70633,26576
70621,26644
70590,26704
70545,26744
70521,26753
70481,26771
70458,26804
70451,26827
70433,26872
70408,26915
70383,26943
70370,26950
70354,26940
70323,26916
70315,26909
70278,26881
70251,26864
70248,26863
70242,26854
70133,26854
70123,26859
70108,26850
70087,26824
70083,26812
70093,26807
70108,26816
70129,26841
70133,26854
70242,26854
70238,26847
70246,26821
70267,26796
70293,26783
70296,26783
70341,26770
70380,26739
70393,26712
69926,26712
69909,26715
69888,26712
69887,26706
69910,26702
69919,26705
69926,26712
70393,26712
70399,26700
70400,26693
70388,26657
70367,26625
70083,26625
70075,26633
70066,26625
70075,26616
70083,26625
70367,26625
70361,26615
70350,26602
70319,26565
70301,26535
70300,26528
70310,26503
70336,26465
70359,26436
70395,26397
70403,26391
70275,26391
70265,26410
70236,26432
70211,26422
70211,26422
70208,26402
70226,26383
70252,26376
70259,26377
70275,26391
70403,26391
70424,26376
70461,26368
70516,26366
70573,26368
70608,26375
70632,26393
70650,26417
70673,26452
70676,26474
71840,26474
71838,26467
71833,26437
71833,26433
71839,26419
71857,26434
71885,26474
71920,26539
71938,26575
71976,26655
72000,26711
72010,26748
72916,26748
72916,26645
72116,26645
72110,26664
72100,26666
72083,26653
72060,26618
72048,26595
72012,26525
72064,26573
72099,26613
72116,26645
72916,26645
72916,26641
72957,26691
72991,26740
73027,26799
73061,26862
73089,26920
73107,26966
73110,26992
73277,26992
73264,26959
73153,26749
73012,26540
73006,26532
72860,26360
72768,26275
70550,26275
70541,26283
70533,26275
70541,26266
70550,26275
72768,26275
72742,26251
72114,26251
72092,26245
72091,26245
72053,26232
72005,26215
72002,26213
71963,26200
71940,26204
71919,26227
71918,26228
71891,26265
71828,26195
71822,26188
70478,26188
70457,26211
70421,26239
70351,26274
70287,26283
70244,26280
70219,26272
70216,26268
70229,26253
70263,26225
70312,26191
70320,26186
70374,26151
70408,26134
70429,26130
70447,26139
70453,26144
70476,26168
70478,26188
71822,26188
71790,26150
71761,26109
71751,26091
71737,26049
71726,26011
71715,25965
71770,25993
71824,26024
71889,26065
71957,26111
72019,26156
72068,26195
72091,26217
72113,26243
72114,26251
72742,26251
72697,26209
72582,26127
72332,26127
72326,26142
72304,26170
72300,26174
72285,26191
72273,26201
72259,26205
72239,26198
72208,26181
72162,26150
72097,26104
72021,26050
71961,26006
71913,25970
71882,25945
71874,25936
71892,25939
71934,25952
71992,25974
72062,26002
72135,26032
72205,26063
72266,26091
72310,26113
72332,26127
72582,26127
72512,26076
72302,25959
72217,25920
72117,25880
72012,25842
71910,25809
71820,25785
71751,25772
71750,25772
71694,25760
71666,25742
71661,25733
71650,25721
71621,25710
71573,25702
71503,25695
71409,25690
71289,25686
71141,25684
70963,25683
70883,25683
70442,25683
70504,25641
70544,25608
70562,25577
70566,25540
70560,25507
70398,25507
70395,25537
70377,25555
70338,25580
70287,25610
70234,25637
70188,25658
70158,25666
70157,25666
70134,25653
70109,25624
70085,25576
70073,25536
70070,25512
70077,25493
70098,25474
70140,25450
70191,25424
70319,25359
70351,25400
70383,25455
70398,25507
70560,25507
70557,25491
70534,25425
70502,25356
70466,25293
70432,25249
70391,25224
70352,25216
70318,25224
Z" /> 
<path style="fill:#000000; fill-opacity:1.0; 
stroke:#000000; stroke-width:3.93701; stroke-opacity:1; 
stroke-linecap:round; stroke-linejoin:round;fill-rule:evenodd;"
d="M 69907,29612
69874,29644
69839,29687
69809,29731
69798,29753
69787,29789
69796,29817
69817,29842
69861,29882
69917,29922
69974,29956
70022,29978
70045,29983
70078,29971
70115,29941
70123,29932
70163,29871
70180,29815
70077,29815
70070,29837
70064,29846
70043,29874
70020,29880
69985,29865
69955,29845
69911,29806
69901,29768
69920,29736
69945,29719
69974,29723
70014,29748
70032,29763
70065,29793
70077,29815
70180,29815
70180,29814
70172,29769
70171,29768
70150,29746
70110,29714
70060,29677
70009,29642
69965,29615
69935,29600
69931,29600
69907,29612
Z" /> 
<path style="fill:#000000; fill-opacity:1.0; 
stroke:#000000; stroke-width:3.93701; stroke-opacity:1; 
stroke-linecap:round; stroke-linejoin:round;fill-rule:evenodd;"
d="M 69632,29378
69590,29409
69548,29450
69515,29491
69500,29525
69500,29528
69511,29551
69540,29588
69580,29633
69624,29679
69665,29718
69697,29744
69710,29750
69735,29740
69759,29725
69781,29701
69775,29675
69773,29671
69742,29644
69721,29636
69688,29621
69649,29591
69643,29585
69599,29539
69641,29500
69683,29460
69733,29508
69763,29543
69776,29570
69776,29576
69781,29601
69800,29625
69829,29644
69852,29637
69858,29633
69881,29599
69877,29558
69844,29507
69792,29452
69739,29406
69693,29376
69665,29366
69632,29378
Z" /> 
<path style="fill:#000000; fill-opacity:1.0; 
stroke:#000000; stroke-width:3.93701; stroke-opacity:1; 
stroke-linecap:round; stroke-linejoin:round;fill-rule:evenodd;"
d="M 69347,29010
69296,29037
69248,29072
69214,29107
69207,29121
69210,29155
69230,29204
69264,29262
69306,29319
69322,29337
69357,29371
69383,29381
69411,29369
69422,29362
69441,29332
69433,29298
69401,29270
69393,29267
69361,29243
69330,29205
69328,29202
69310,29167
69311,29147
69333,29128
69343,29122
69373,29104
69393,29106
69417,29129
69427,29142
69452,29181
69461,29215
69460,29219
69464,29254
69477,29282
69501,29305
69529,29301
69534,29299
69562,29268
69562,29219
69535,29153
69498,29095
69456,29041
69423,29010
69394,29000
69388,29000
69347,29010
Z" /> 
<path style="fill:#000000; fill-opacity:1.0; 
stroke:#000000; stroke-width:3.93701; stroke-opacity:1; 
stroke-linecap:round; stroke-linejoin:round;fill-rule:evenodd;"
d="M 69170,28558
69123,28573
69092,28584
69035,28606
68992,28627
68972,28642
68972,28642
68974,28666
68986,28711
69005,28767
69027,28825
69049,28875
69066,28908
69069,28911
69104,28930
69150,28929
69193,28907
69196,28904
69223,28887
69260,28874
69295,28868
69315,28871
69316,28875
69303,28885
69267,28906
69217,28934
69216,28934
69166,28962
69130,28985
69117,28998
69117,28998
69124,29019
69138,29045
69158,29082
69278,29015
69337,28982
69371,28959
69386,28942
69386,28924
69380,28908
69362,28877
69348,28866
69335,28852
69319,28819
69319,28817
69315,28810
69150,28810
69143,28832
69128,28827
69107,28798
69095,28770
69078,28718
69081,28690
69099,28683
69113,28697
69129,28731
69143,28772
69149,28808
69150,28810
69315,28810
69301,28783
69276,28776
69270,28777
69247,28775
69227,28751
69212,28718
69197,28676
69195,28654
69208,28644
69218,28641
69245,28626
69245,28604
69227,28575
69214,28560
69197,28554
69170,28558
Z" /> 
<path style="fill:#000000; fill-opacity:1.0; 
stroke:#000000; stroke-width:3.93701; stroke-opacity:1; 
stroke-linecap:round; stroke-linejoin:round;fill-rule:evenodd;"
d="M 68907,28280
68877,28288
68868,28292
68869,28310
68877,28353
68891,28412
68900,28449
68919,28520
68934,28564
68948,28588
68963,28598
68979,28600
69004,28597
69013,28582
69010,28545
69008,28536
68998,28472
69090,28450
69142,28436
69168,28424
69175,28407
69172,28384
69163,28351
69157,28336
69140,28337
69101,28345
69061,28355
68970,28379
68954,28327
68937,28289
68913,28279
68907,28280
Z" /> 
<path style="fill:#000000; fill-opacity:1.0; 
stroke:#000000; stroke-width:3.93701; stroke-opacity:1; 
stroke-linecap:round; stroke-linejoin:round;fill-rule:evenodd;"
d="M 68953,27899
68897,27908
68852,27922
68829,27936
68822,27967
68822,28019
68827,28081
68837,28142
68850,28192
68860,28212
68885,28236
68917,28249
68943,28248
68951,28237
68951,28200
68942,28165
68933,28149
68921,28129
68910,28089
68908,28079
68902,28037
68911,28015
68939,28000
68943,27999
68980,27989
69003,28000
69012,28010
69031,28062
69026,28120
69014,28148
69002,28187
69014,28219
69046,28233
69047,28233
69084,28224
69106,28193
69113,28138
69110,28074
69101,28000
69091,27951
69077,27922
69056,27906
69045,27901
69006,27896
68953,27899
Z" /> 
<path style="fill:#000000; fill-opacity:1.0; 
stroke:#000000; stroke-width:3.93701; stroke-opacity:1; 
stroke-linecap:round; stroke-linejoin:round;fill-rule:evenodd;"
d="M 68966,26928
68954,26951
68938,26996
68922,27053
68907,27111
68896,27162
68892,27195
68893,27202
68915,27214
68931,27216
68952,27207
68969,27175
68983,27125
68997,27075
69010,27041
69018,27033
69021,27047
69015,27084
69006,27118
68991,27181
68994,27216
68997,27220
69025,27232
69051,27211
69074,27160
69081,27135
69096,27087
69111,27056
69119,27050
69129,27059
69128,27062
69119,27084
69106,27127
69092,27172
69064,27270
69003,27258
68951,27248
68907,27239
68904,27238
68877,27236
68867,27254
68866,27280
68868,27309
68880,27328
68907,27341
68957,27352
68988,27357
69030,27368
69044,27384
69043,27396
69025,27472
69021,27522
69031,27548
69035,27551
69033,27559
69000,27564
68941,27566
68937,27566
68816,27566
68816,27716
68817,27787
68819,27832
68825,27855
68836,27865
68849,27866
68871,27860
68886,27839
68896,27796
68904,27726
68905,27716
68908,27686
68910,27686
68912,27718
68913,27754
68916,27814
68921,27848
68932,27863
68950,27866
68970,27862
68980,27842
68983,27799
68983,27787
68987,27734
68995,27693
69000,27683
69009,27679
69014,27704
69016,27760
69020,27826
69033,27865
69057,27881
69074,27883
69080,27868
69088,27834
69089,27831
69094,27788
69098,27726
69099,27655
69100,27649
69106,27541
69124,27411
69152,27272
69111,27272
69108,27282
69100,27283
69086,27277
69088,27272
69108,27270
69111,27272
69152,27272
69153,27268
69190,27121
69197,27097
69229,26987
69104,26950
69043,26935
68995,26926
68968,26926
68966,26928
Z" /> 
<path style="fill:#000000; fill-opacity:1.0; 
stroke:#000000; stroke-width:3.93701; stroke-opacity:1; 
stroke-linecap:round; stroke-linejoin:round;fill-rule:evenodd;"
d="M 69173,26156
69130,26198
69083,26259
69037,26328
68996,26398
68966,26460
68951,26507
68950,26517
68961,26560
68988,26597
69022,26616
69028,26616
69051,26603
69075,26571
69095,26533
69102,26501
69099,26491
69101,26470
69117,26431
69142,26385
69172,26340
69200,26305
69215,26292
69235,26287
69235,26308
69216,26356
69177,26429
69162,26455
69118,26536
69094,26596
69091,26642
69108,26679
69145,26714
69165,26728
69225,26759
69276,26761
69323,26733
69336,26720
69377,26671
69423,26606
69467,26536
69506,26468
69533,26410
69544,26377
69546,26334
69528,26304
69506,26284
69458,26247
69420,26294
69392,26346
69392,26380
69389,26414
69373,26458
69347,26507
69316,26552
69285,26587
69259,26606
69242,26601
69246,26580
69263,26538
69291,26481
69316,26437
69351,26372
69379,26316
69396,26276
69400,26263
69388,26237
69358,26201
69341,26185
69280,26143
69226,26133
69173,26156
Z" /> 
<path style="fill:#000000; fill-opacity:1.0; 
stroke:#000000; stroke-width:3.93701; stroke-opacity:1; 
stroke-linecap:round; stroke-linejoin:round;fill-rule:evenodd;"
d="M 73447,26194
73433,26208
73421,26233
73435,26259
73439,26264
73461,26294
73460,26320
73435,26348
73400,26375
73353,26411
73335,26441
73343,26468
73353,26480
73376,26496
73402,26494
73440,26473
73472,26450
73536,26401
73575,26446
73602,26475
73621,26480
73641,26465
73642,26464
73654,26449
73655,26432
73644,26407
73618,26367
73576,26310
73534,26255
73499,26212
73475,26187
73468,26183
73447,26194
Z" /> 
<path style="fill:#000000; fill-opacity:1.0; 
stroke:#000000; stroke-width:3.93701; stroke-opacity:1; 
stroke-linecap:round; stroke-linejoin:round;fill-rule:evenodd;"
d="M 73185,25907
73151,25934
73109,25971
73060,26016
73033,26046
73023,26068
73027,26087
73031,26096
73058,26128
73089,26127
73116,26108
73135,26096
73154,26100
73183,26125
73199,26141
73232,26176
73244,26198
73239,26216
73224,26233
73204,26259
73206,26278
73226,26299
73243,26314
73259,26317
73280,26306
73314,26277
73354,26241
73399,26197
73432,26162
73449,26141
73450,26139
73439,26119
73422,26096
73400,26076
73382,26078
73358,26099
73323,26133
73266,26075
73233,26039
73221,26018
73227,26000
73241,25983
73262,25956
73260,25937
73240,25916
73223,25901
73207,25896
73185,25907
Z" /> 
<path style="fill:#000000; fill-opacity:1.0; 
stroke:#000000; stroke-width:3.93701; stroke-opacity:1; 
stroke-linecap:round; stroke-linejoin:round;fill-rule:evenodd;"
d="M 69663,25611
69611,25664
69714,25777
69759,25829
69794,25873
69814,25903
69816,25910
69804,25931
69774,25965
69732,26005
69688,26042
69650,26071
69626,26083
69625,26083
69604,26071
69568,26041
69523,25996
69501,25974
69399,25865
69341,25911
69306,25941
69285,25963
69283,25967
69294,25982
69325,26015
69370,26061
69422,26113
69492,26179
69546,26222
69589,26244
69627,26246
69666,26230
69709,26202
69770,26153
69831,26095
69888,26035
69936,25977
69970,25928
69983,25895
69983,25893
69971,25858
69940,25807
69894,25745
69837,25679
69774,25614
69768,25609
69715,25559
69663,25611
Z" /> 
<path style="fill:#000000; fill-opacity:1.0; 
stroke:#000000; stroke-width:3.93701; stroke-opacity:1; 
stroke-linecap:round; stroke-linejoin:round;fill-rule:evenodd;"
d="M 72910,25665
72899,25684
72889,25714
72905,25737
72916,25744
72949,25770
72982,25798
73009,25823
73022,25839
73016,25840
72987,25822
72947,25793
72937,25786
72894,25762
72857,25756
72835,25769
72833,25781
72845,25800
72876,25831
72908,25859
72947,25893
72971,25919
72975,25929
72959,25924
72926,25902
72891,25875
72837,25838
72796,25824
72771,25834
72766,25856
72778,25875
72810,25908
72854,25948
72902,25988
72946,26022
72980,26044
72994,26049
73010,26036
73040,26003
73078,25956
73087,25945
73165,25841
73112,25796
73064,25757
73008,25715
72988,25700
72947,25670
72924,25659
72910,25665
Z" /> 
<path style="fill:#000000; fill-opacity:1.0; 
stroke:#000000; stroke-width:3.93701; stroke-opacity:1; 
stroke-linecap:round; stroke-linejoin:round;fill-rule:evenodd;"
d="M 72262,25164
72236,25192
72211,25227
72200,25254
72200,25256
72214,25276
72250,25296
72294,25311
72333,25315
72352,25311
72381,25308
72428,25318
72482,25337
72532,25360
72568,25383
72579,25396
72578,25423
72567,25468
72558,25492
72536,25538
72509,25561
72472,25564
72417,25545
72365,25520
72309,25488
72282,25461
72279,25446
72269,25421
72237,25394
72196,25373
72160,25366
72139,25380
72119,25416
72116,25424
72107,25468
72112,25506
72135,25541
72180,25576
72251,25613
72349,25658
72352,25659
72423,25686
72491,25706
72542,25716
72550,25716
72596,25711
72627,25690
72647,25662
72678,25604
72708,25537
72732,25470
72747,25415
72750,25393
72738,25355
72712,25320
72670,25290
72606,25254
72530,25219
72453,25187
72384,25163
72340,25153
72292,25152
72262,25164
Z" /> 
<path style="fill:#000000; fill-opacity:1.0; 
stroke:#000000; stroke-width:3.93701; stroke-opacity:1; 
stroke-linecap:round; stroke-linejoin:round;fill-rule:evenodd;"
d="M 70636,25111
70595,25123
70562,25137
70549,25146
70553,25174
70564,25223
70580,25288
70600,25359
70621,25431
70641,25495
70658,25546
70670,25576
70674,25581
70700,25575
70743,25564
70754,25561
70796,25544
70810,25524
70809,25517
70801,25492
70787,25441
70769,25373
70748,25300
70728,25225
70710,25163
70697,25120
70691,25103
70673,25102
70636,25111
Z" /> 
<path style="fill:#000000; fill-opacity:1.0; 
stroke:#000000; stroke-width:3.93701; stroke-opacity:1; 
stroke-linecap:round; stroke-linejoin:round;fill-rule:evenodd;"
d="M 71329,24991
71284,24995
71219,25002
71138,25012
71103,25016
70994,25030
70915,25044
70860,25060
70825,25081
70807,25109
70801,25147
70803,25197
70804,25198
70815,25267
70836,25306
70840,25309
70857,25330
70850,25341
70839,25364
70833,25406
70835,25454
70843,25490
70852,25506
70869,25513
70902,25509
70941,25501
70977,25488
70990,25462
70991,25442
70994,25414
71008,25395
71038,25381
71090,25371
71162,25361
71250,25351
71250,25469
71320,25457
71365,25449
71394,25441
71398,25439
71398,25422
71395,25379
71389,25318
71382,25246
71378,25214
71227,25214
71216,25228
71184,25235
71162,25237
71079,25244
71022,25246
70988,25244
70968,25236
70959,25222
70957,25191
70963,25179
70984,25171
71026,25161
71079,25151
71134,25142
71179,25136
71205,25136
71208,25137
71214,25154
71222,25186
71227,25214
71378,25214
71373,25171
71364,25101
71356,25042
71349,25003
71346,24991
71329,24991
Z" /> 
<path style="fill:#000000; fill-opacity:1.0; 
stroke:#000000; stroke-width:3.93701; stroke-opacity:1; 
stroke-linecap:round; stroke-linejoin:round;fill-rule:evenodd;"
d="M 71507,24986
71501,25007
71494,25052
71487,25114
71481,25185
71475,25254
71472,25316
71472,25360
71473,25376
71492,25409
71531,25436
71594,25458
71686,25476
71722,25481
71818,25493
71888,25498
71939,25496
71975,25486
71995,25474
72024,25441
72047,25385
72064,25303
72074,25225
72081,25164
72088,25113
72092,25089
72092,25066
72076,25053
72035,25047
72029,25046
71983,25045
71952,25051
71947,25055
71940,25078
71933,25125
71926,25186
71925,25192
71916,25272
71903,25323
71881,25351
71844,25360
71789,25356
71758,25352
71685,25337
71641,25318
71622,25293
71624,25266
71629,25238
71635,25187
71641,25125
71641,25123
71652,25004
71582,24993
71538,24987
71511,24986
71507,24986
Z" /> 
<g >
</g>
<g style="fill:#000000; fill-opacity:1.0; 
stroke:#000000; stroke-width:0; stroke-opacity:1; 
stroke-linecap:round; stroke-linejoin:round;">
<circle cx="75750" cy="24208.7" r="236.22" /> 
</g>
<g style="fill:#000000; fill-opacity:1.0; 
stroke:#000000; stroke-width:196.85; stroke-opacity:1; 
stroke-linecap:round; stroke-linejoin:round;">
</g>
<g style="fill:#000000; fill-opacity:1.0; 
stroke:#000000; stroke-width:0; stroke-opacity:1; 
stroke-linecap:round; stroke-linejoin:round;">
<path style="fill:#000000; fill-opacity:1.0; 
stroke:#000000; stroke-width:0; stroke-opacity:1; 
stroke-linecap:round; stroke-linejoin:round;fill-rule:evenodd;"
d="M 75513,22318
75513,21846
75986,21846
75986,22318
75513,22318
Z" /> 
<circle cx="75750" cy="23500" r="236.22" /> 
</g>
<g style="fill:#000000; fill-opacity:1.0; 
stroke:#000000; stroke-width:196.85; stroke-opacity:1; 
stroke-linecap:round; stroke-linejoin:round;">
</g>
<g style="fill:#000000; fill-opacity:1.0; 
stroke:#000000; stroke-width:0; stroke-opacity:1; 
stroke-linecap:round; stroke-linejoin:round;">
<circle cx="75750" cy="22791.3" r="236.22" /> 
</g>
<g style="fill:#000000; fill-opacity:1.0; 
stroke:#000000; stroke-width:196.85; stroke-opacity:1; 
stroke-linecap:round; stroke-linejoin:round;">
</g>
<g >
</g>
<g >
</g>
<g style="fill:#000000; fill-opacity:1.0; 
stroke:#000000; stroke-width:0; stroke-opacity:1; 
stroke-linecap:round; stroke-linejoin:round;">
<path style="fill:#000000; fill-opacity:1.0; 
stroke:#000000; stroke-width:0; stroke-opacity:1; 
stroke-linecap:round; stroke-linejoin:round;fill-rule:evenodd;"
d="M 68340,13909
68340,15090
67159,15090
67159,13909
68340,13909
Z" /> 
<circle cx="66250" cy="14500" r="590.551" /> 
</g>
<g style="fill:#000000; fill-opacity:1.0; 
stroke:#000000; stroke-width:196.85; stroke-opacity:1; 
stroke-linecap:round; stroke-linejoin:round;">
</g>
<g >
</g>
<g style="fill:#000000; fill-opacity:1.0; 
stroke:#000000; stroke-width:1000; stroke-opacity:1; 
stroke-linecap:round; stroke-linejoin:round;">
</g>
<g style="fill:#000000; fill-opacity:0.0; 
stroke:#000000; stroke-width:1000; stroke-opacity:1; 
stroke-linecap:round; stroke-linejoin:round;">
<path d="M71750 15000
L70750 15000
" />
<path d="M71750 33110
L70750 33110
" />
</g>
<g >
</g>
<g style="fill:#000000; fill-opacity:0.0; 
stroke:#000000; stroke-width:0; stroke-opacity:1; 
stroke-linecap:round; stroke-linejoin:round;">
</g>
<g style="fill:#000000; fill-opacity:1.0; 
stroke:#000000; stroke-width:0; stroke-opacity:1; 
stroke-linecap:round; stroke-linejoin:round;">
<path style="fill:#000000; fill-opacity:1.0; 
stroke:#000000; stroke-width:0; stroke-opacity:1; 
stroke-linecap:round; stroke-linejoin:round;fill-rule:evenodd;"
d="M 67100,32400
67100,31600
67900,31600
67900,32400
67100,32400
Z" /> 
<circle cx="66500" cy="32000" r="400" /> 
</g>
<g style="fill:#000000; fill-opacity:1.0; 
stroke:#000000; stroke-width:196.85; stroke-opacity:1; 
stroke-linecap:round; stroke-linejoin:round;">
</g>
<g >
</g>
<g style="fill:#000000; fill-opacity:1.0; 
stroke:#000000; stroke-width:0; stroke-opacity:1; 
stroke-linecap:round; stroke-linejoin:round;">
<path style="fill:#000000; fill-opacity:1.0; 
stroke:#000000; stroke-width:0; stroke-opacity:1; 
stroke-linecap:round; stroke-linejoin:round;fill-rule:evenodd;"
d="M 67100,27900
67100,27100
67900,27100
67900,27900
67100,27900
Z" /> 
<circle cx="66500" cy="27500" r="400" /> 
</g>
<g style="fill:#000000; fill-opacity:1.0; 
stroke:#000000; stroke-width:196.85; stroke-opacity:1; 
stroke-linecap:round; stroke-linejoin:round;">
</g>
<g >
</g>
<g style="fill:#000000; fill-opacity:1.0; 
stroke:#000000; stroke-width:0; stroke-opacity:1; 
stroke-linecap:round; stroke-linejoin:round;">
<path style="fill:#000000; fill-opacity:1.0; 
stroke:#000000; stroke-width:0; stroke-opacity:1; 
stroke-linecap:round; stroke-linejoin:round;fill-rule:evenodd;"
d="M 75600,27900
75600,27100
76400,27100
76400,27900
75600,27900
Z" /> 
<circle cx="75000" cy="27500" r="400" /> 
</g>
<g style="fill:#000000; fill-opacity:1.0; 
stroke:#000000; stroke-width:196.85; stroke-opacity:1; 
stroke-linecap:round; stroke-linejoin:round;">
</g>
<g >
</g>
<g style="fill:#000000; fill-opacity:1.0; 
stroke:#000000; stroke-width:0; stroke-opacity:1; 
stroke-linecap:round; stroke-linejoin:round;">
<path style="fill:#000000; fill-opacity:1.0; 
stroke:#000000; stroke-width:0; stroke-opacity:1; 
stroke-linecap:round; stroke-linejoin:round;fill-rule:evenodd;"
d="M 75600,32400
75600,31600
76400,31600
76400,32400
75600,32400
Z" /> 
<circle cx="75000" cy="32000" r="400" /> 
</g>
<g style="fill:#000000; fill-opacity:1.0; 
stroke:#000000; stroke-width:196.85; stroke-opacity:1; 
stroke-linecap:round; stroke-linejoin:round;">
</g>
<g >
</g>
<g >
</g>
<g >
</g>
<g >
</g>
<g style="fill:#000000; fill-opacity:1.0; 
stroke:#000000; stroke-width:0; stroke-opacity:1; 
stroke-linecap:round; stroke-linejoin:round;">
<circle cx="67000" cy="21500" r="400" /> 
</g>
<g style="fill:#000000; fill-opacity:1.0; 
stroke:#000000; stroke-width:196.85; stroke-opacity:1; 
stroke-linecap:round; stroke-linejoin:round;">
</g>
<g style="fill:#000000; fill-opacity:1.0; 
stroke:#000000; stroke-width:0; stroke-opacity:1; 
stroke-linecap:round; stroke-linejoin:round;">
<circle cx="67000" cy="25500" r="400" /> 
</g>
<g style="fill:#000000; fill-opacity:1.0; 
stroke:#000000; stroke-width:196.85; stroke-opacity:1; 
stroke-linecap:round; stroke-linejoin:round;">
</g>
<g >
</g>
<g >
</g>
<g style="fill:#000000; fill-opacity:1.0; 
stroke:#000000; stroke-width:393.701; stroke-opacity:1; 
stroke-linecap:round; stroke-linejoin:round;">
</g>
<g style="fill:#000000; fill-opacity:0.0; 
stroke:#000000; stroke-width:393.701; stroke-opacity:1; 
stroke-linecap:round; stroke-linejoin:round;">
<path d="M71250 22282
L71258 22291
" />
<path d="M71250 19850
L71250 15000
" />
<path d="M69774 22791
L69257 23307
" />
<path d="M71241 21408
L71250 21400
" />
<path d="M71241 22791
L71241 21408
" />
<path d="M71250 21400
L71250 22282
" />
<path d="M71250 19850
L71250 21400
" />
<path d="M75750 22791
L71241 22791
" />
<path d="M69708 22791
L70208 22791
" />
<path d="M67000 25500
L69708 22791
" />
<path d="M71241 22791
L70208 22791
" />
<path d="M70208 22791
L69774 22791
" />
<path d="M71250 33110
L67960 33110
" />
<path d="M67500 32650
L67500 32000
" />
<path d="M67960 33110
L67500 32650
" />
<path d="M76000 32000
L76000 32750
" />
<path d="M71250 33110
L75639 33110
" />
<path d="M76000 32750
L75639 33110
" />
<path d="M67500 31206
L67500 27500
" />
<path d="M67500 32000
L67500 31206
" />
<path d="M76000 32000
L76000 27500
" />
<path d="M76000 26450
L76000 27500
" />
<path d="M68800 14500
L69550 13750
" />
<path d="M69550 13750
L73900 13750
" />
<path d="M67750 14500
L68800 14500
" />
<path d="M73900 13750
L76600 16450
" />
<path d="M76600 25850
L76000 26450
" />
<path d="M76084 23500
L76600 23500
" />
<path d="M75750 23500
L76084 23500
" />
<path d="M76600 16450
L76600 23500
" />
<path d="M76600 23500
L76600 25850
" />
</g>
<g >
</g>
<g style="fill:#000000; fill-opacity:1.0; 
stroke:#000000; stroke-width:100; stroke-opacity:1; 
stroke-linecap:round; stroke-linejoin:round;">
<path style="fill:#000000; fill-opacity:1.0; 
stroke:#000000; stroke-width:100; stroke-opacity:1; 
stroke-linecap:round; stroke-linejoin:round;fill-rule:evenodd;"
d="M 74566,11440
74565,11446
74566,11453
74566,11459
74566,11463
74567,11486
74568,11498
74568,11499
74568,11500
74570,11512
74574,11538
74574,11538
74576,11551
74576,11551
74576,11551
74579,11563
74579,11564
74585,11589
74588,11601
74589,11601
74589,11602
74593,11614
74602,11638
74602,11639
74606,11649
74606,11650
74607,11650
74611,11659
74611,11659
74622,11683
74628,11695
74628,11695
74628,11695
74634,11705
74634,11705
74641,11717
74648,11729
74649,11729
74654,11739
74654,11739
74655,11739
74662,11750
74678,11770
74678,11771
74684,11778
74685,11779
74685,11780
74694,11789
74709,11806
74718,11816
74718,11816
74718,11816
74728,11825
74745,11841
74755,11849
74755,11849
74755,11850
74765,11857
74783,11871
74795,11880
74795,11880
74795,11880
74808,11887
74829,11900
74829,11900
74838,11906
74839,11906
74839,11906
74849,11911
74849,11911
74872,11922
74884,11928
74884,11928
74885,11928
74895,11932
74895,11932
74915,11939
74922,11941
74922,11941
74933,11945
74933,11945
74933,11945
74944,11948
74945,11948
74959,11952
74971,11955
74971,11955
74983,11958
74983,11958
74983,11958
74995,11960
74996,11960
75013,11963
75022,11964
75022,11964
75034,11966
75035,11966
75035,11966
75048,11967
75069,11968
75075,11968
75081,11968
75087,11969
75094,11968
76194,11968
76230,11969
76261,11972
76292,11976
76322,11981
76352,11988
76381,11996
76410,12006
76438,12017
76465,12029
76492,12043
76517,12057
76542,12073
76566,12090
76590,12109
76612,12128
76633,12148
76654,12170
76673,12192
76691,12215
76708,12239
76724,12264
76739,12290
76753,12316
76765,12344
76776,12372
76785,12400
76794,12429
76800,12459
76806,12489
76810,12521
76812,12552
76813,12588
76813,33166
76812,33202
76810,33233
76806,33264
76800,33295
76794,33324
76785,33354
76776,33382
76765,33410
76753,33437
76739,33464
76724,33490
76708,33514
76691,33539
76673,33562
76654,33584
76633,33606
76612,33626
76590,33645
76566,33663
76542,33681
76517,33697
76492,33711
76465,33725
76438,33737
76410,33748
76382,33758
76352,33766
76322,33773
76292,33778
76261,33782
76229,33784
76194,33785
72078,33785
72083,33784
72208,33706
72315,33605
72401,33485
72462,33351
72481,33276
72435,33160
71300,33160
71300,33168
71200,33168
71200,33160
70064,33160
70018,33276
70037,33351
70098,33485
70184,33605
70291,33706
70416,33784
70421,33785
66245,33785
66210,33784
66178,33782
66147,33778
66117,33773
66087,33766
66058,33758
66029,33748
66001,33737
65974,33725
65948,33711
65922,33697
65897,33681
65873,33663
65850,33645
65827,33626
65806,33606
65786,33584
65766,33562
65748,33539
65731,33515
65715,33490
65700,33464
65687,33437
65674,33410
65663,33382
65654,33354
65646,33325
65639,33295
65633,33264
65629,33233
65627,33202
65626,33166
65626,32943
70018,32943
70064,33060
71200,33060
71200,33052
71300,33052
71300,33060
72435,33060
72481,32943
72462,32869
72401,32735
72315,32615
72208,32514
72083,32436
71945,32384
71800,32360
70700,32360
70554,32384
70416,32436
70291,32514
70184,32615
70098,32735
70037,32869
70018,32943
65626,32943
65626,31935
65850,31935
65850,32064
65874,32189
65923,32307
65995,32414
66085,32504
66192,32576
66310,32625
66435,32650
66564,32650
66689,32625
66807,32576
66883,32525
66891,32539
66922,32577
66960,32608
67003,32632
67050,32646
67100,32651
67387,32650
67450,32587
67450,32050
67550,32050
67550,32587
67612,32650
67900,32651
67949,32646
67996,32632
68039,32608
68077,32577
68108,32539
68132,32496
68146,32449
68151,32400
68150,32112
68087,32050
67550,32050
67450,32050
67442,32050
67442,31950
67450,31950
67450,31412
67550,31412
67550,31950
68087,31950
68101,31935
74350,31935
74350,32064
74374,32189
74423,32307
74495,32414
74585,32504
74692,32576
74810,32625
74935,32650
75064,32650
75189,32625
75307,32576
75383,32525
75391,32539
75422,32577
75460,32608
75503,32632
75550,32646
75600,32651
75887,32650
75950,32587
75950,32050
76050,32050
76050,32587
76112,32650
76400,32651
76449,32646
76496,32632
76539,32608
76577,32577
76608,32539
76632,32496
76646,32449
76651,32400
76650,32112
76587,32050
76050,32050
75950,32050
75942,32050
75942,31950
75950,31950
75950,31412
76050,31412
76050,31950
76587,31950
76650,31887
76651,31600
76646,31550
76632,31503
76608,31460
76577,31422
76539,31391
76496,31367
76449,31353
76400,31348
76112,31350
76050,31412
75950,31412
75887,31350
75600,31348
75550,31353
75503,31367
75460,31391
75422,31422
75391,31460
75383,31474
75307,31423
75189,31374
75064,31350
74935,31350
74810,31374
74692,31423
74585,31495
74495,31585
74423,31692
74374,31810
74350,31935
68101,31935
68150,31887
68151,31600
68146,31550
68132,31503
68108,31460
68077,31422
68039,31391
67996,31367
67949,31353
67900,31348
67612,31350
67550,31412
67450,31412
67387,31350
67100,31348
67050,31353
67003,31367
66960,31391
66922,31422
66891,31460
66883,31474
66807,31423
66689,31374
66564,31350
66435,31350
66310,31374
66192,31423
66085,31495
65995,31585
65923,31692
65874,31810
65850,31935
65626,31935
65626,27435
65850,27435
65850,27564
65874,27689
65923,27807
65995,27914
66085,28004
66192,28076
66310,28125
66435,28150
66564,28150
66689,28125
66807,28076
66883,28025
66891,28039
66922,28077
66960,28108
67003,28132
67050,28146
67100,28151
67387,28150
67450,28087
67450,27550
67550,27550
67550,28087
67612,28150
67900,28151
67949,28146
67996,28132
68039,28108
68077,28077
68108,28039
68132,27996
68146,27949
68151,27900
68150,27612
68104,27566
68564,27566
68564,27716
68564,27716
68564,27718
68565,27789
68565,27794
68565,27799
68565,27802
68568,27847
68571,27869
68575,27891
68575,27895
68578,27905
68577,27910
68577,27912
68576,27913
68573,27936
68570,27959
68571,27960
68570,27962
68570,27966
68570,28018
68571,28027
68571,28037
68571,28041
68576,28103
68578,28110
68578,28117
68579,28121
68589,28182
68591,28193
68593,28203
68594,28207
68607,28256
68614,28275
68617,28286
68616,28304
68616,28307
68618,28325
68620,28340
68621,28354
68622,28358
68630,28400
68631,28403
68631,28406
68632,28409
68646,28469
68646,28470
68646,28470
68647,28474
68656,28510
68656,28511
68656,28511
68657,28514
68676,28585
68678,28590
68679,28596
68680,28599
68695,28644
68704,28665
68713,28686
68715,28689
68715,28689
68715,28689
68715,28689
68727,28710
68730,28729
68731,28733
68743,28778
68745,28783
68746,28788
68747,28791
68766,28848
68767,28850
68768,28854
68769,28857
68791,28915
68793,28918
68794,28922
68796,28925
68817,28975
68822,28984
68826,28993
68828,28996
68845,29029
68855,29043
68864,29058
68866,29061
68869,29064
68869,29065
68870,29066
68872,29068
68873,29070
68877,29074
68879,29082
68880,29085
68888,29106
68894,29118
68898,29130
68900,29133
68913,29159
68915,29161
68916,29164
68918,29167
68938,29204
68951,29223
68964,29243
68965,29243
68966,29244
68980,29257
68997,29300
69004,29314
69011,29328
69013,29331
69046,29389
69053,29399
69059,29410
69062,29412
69104,29469
69110,29476
69115,29483
69117,29486
69133,29504
69139,29510
69145,29516
69147,29519
69182,29552
69201,29567
69220,29583
69221,29583
69221,29583
69243,29594
69259,29603
69260,29608
69267,29622
69272,29636
69273,29639
69285,29662
69297,29682
69309,29702
69311,29704
69311,29704
69311,29704
69311,29704
69340,29742
69345,29747
69349,29752
69351,29755
69391,29800
69394,29803
69396,29806
69398,29808
69442,29854
69446,29857
69448,29860
69451,29862
69492,29902
69500,29907
69506,29914
69509,29916
69541,29941
69546,29944
69550,29948
69566,29958
69582,29968
69588,29970
69593,29973
69596,29974
69601,29977
69601,29977
69603,29979
69603,29979
69603,29979
69603,29979
69624,30004
69636,30015
69646,30027
69649,30029
69693,30069
69703,30076
69711,30084
69714,30086
69770,30126
69777,30131
69785,30136
69788,30138
69844,30172
69855,30177
69866,30184
69869,30185
69917,30207
69929,30220
69940,30235
69945,30239
69949,30243
69964,30254
69978,30266
69983,30269
69988,30273
69991,30275
70018,30291
70028,30295
70037,30301
70040,30303
70081,30322
70087,30324
70092,30327
70096,30328
70136,30344
70149,30348
70162,30353
70166,30354
70191,30360
70198,30361
70205,30363
70223,30365
70224,30365
70226,30367
70238,30377
70250,30387
70253,30389
70284,30412
70297,30419
70310,30427
70313,30429
70332,30439
70334,30440
70335,30441
70338,30442
70380,30463
70384,30464
70388,30466
70391,30468
70419,30480
70435,30485
70450,30491
70454,30492
70459,30493
70463,30494
70466,30495
70474,30496
70483,30497
70507,30501
70507,30501
70507,30501
70522,30500
70525,30502
70567,30520
70576,30523
70585,30527
70588,30528
70644,30546
70650,30547
70656,30550
70659,30551
70718,30566
70726,30567
70734,30569
70738,30570
70791,30579
70803,30580
70814,30583
70818,30583
70840,30584
70857,30584
70875,30584
70882,30583
70890,30583
70906,30579
70923,30576
70923,30576
70926,30577
70934,30584
70947,30590
70959,30598
70969,30601
70978,30606
70981,30607
71008,30617
71019,30620
71030,30624
71043,30626
71056,30630
71067,30630
71079,30632
71082,30632
71118,30634
71132,30634
71145,30634
71149,30634
71182,30632
71195,30630
71209,30629
71220,30626
71230,30624
71243,30619
71245,30619
71246,30620
71267,30631
71268,30631
71269,30632
71292,30639
71314,30646
71315,30646
71316,30646
71339,30649
71363,30651
71365,30651
71365,30651
71365,30651
71366,30651
71441,30651
71444,30651
71447,30651
71450,30651
71491,30650
71498,30649
71504,30649
71522,30646
71540,30643
71546,30641
71553,30640
71556,30639
71584,30630
71586,30629
71599,30634
71613,30637
71627,30641
71637,30643
71647,30645
71662,30646
71676,30647
71686,30647
71696,30647
71711,30645
71725,30644
71729,30643
71767,30636
71773,30634
71774,30634
71778,30633
71778,30633
71779,30633
71782,30632
71785,30632
71785,30632
71799,30632
71806,30632
71811,30632
71821,30633
71827,30632
71833,30632
71837,30631
71840,30631
71847,30629
71855,30629
71858,30628
71883,30624
71883,30624
71884,30623
71910,30618
71927,30613
71945,30609
71951,30606
71957,30605
71973,30596
71990,30589
71993,30587
72029,30565
72031,30563
72034,30562
72035,30561
72080,30566
72082,30566
72084,30566
72107,30566
72130,30566
72131,30565
72133,30565
72155,30561
72178,30556
72179,30556
72181,30555
72184,30554
72226,30541
72234,30537
72243,30534
72257,30527
72271,30521
72278,30516
72286,30511
72298,30502
72311,30493
72317,30486
72325,30480
72334,30468
72345,30457
72350,30449
72356,30442
72363,30429
72372,30416
72375,30407
72379,30399
72381,30396
72386,30383
72387,30379
72389,30376
72394,30356
72400,30336
72400,30332
72401,30329
72403,30308
72405,30287
72404,30283
72404,30279
72402,30259
72400,30238
72398,30234
72398,30231
72391,30211
72385,30191
72383,30188
72382,30184
72372,30166
72362,30147
72359,30145
72358,30142
72356,30139
72344,30122
72344,30120
72346,30111
72349,30103
72351,30087
72354,30072
72353,30063
72355,30054
72355,30050
72355,30036
72354,30032
72355,30028
72352,30008
72350,29987
72349,29983
72349,29979
72348,29976
72338,29937
72337,29932
72336,29927
72335,29924
72329,29904
72414,29866
72427,29859
72439,29853
72442,29852
72643,29732
72653,29725
72663,29718
72666,29716
72857,29571
72865,29563
72874,29556
72877,29553
72908,29524
73053,29386
73061,29378
73069,29370
73072,29367
73229,29182
73236,29172
73244,29163
73246,29160
73380,28961
73383,28955
73387,28950
73389,28947
73398,28931
73401,28926
73404,28921
73405,28918
73493,28746
73502,28729
73506,28716
73512,28704
73514,28701
73549,28604
73585,28506
73588,28493
73593,28480
73594,28476
73642,28269
73644,28257
73646,28245
73647,28242
73674,28016
73674,28009
73675,28003
73675,27999
73677,27952
73680,27905
73680,27899
73680,27893
73680,27889
73678,27667
73678,27667
73678,27632
73677,27621
73677,27609
73677,27606
73657,27435
74350,27435
74350,27564
74374,27689
74423,27807
74495,27914
74585,28004
74692,28076
74810,28125
74935,28150
75064,28150
75189,28125
75307,28076
75383,28025
75391,28039
75422,28077
75460,28108
75503,28132
75550,28146
75600,28151
75887,28150
75950,28087
75950,27550
76050,27550
76050,28087
76112,28150
76400,28151
76449,28146
76496,28132
76539,28108
76577,28077
76608,28039
76632,27996
76646,27949
76651,27900
76650,27612
76587,27550
76050,27550
75950,27550
75942,27550
75942,27450
75950,27450
75950,26912
76050,26912
76050,27450
76587,27450
76650,27387
76651,27100
76646,27050
76632,27003
76608,26960
76577,26922
76539,26891
76496,26867
76449,26853
76400,26848
76112,26850
76050,26912
75950,26912
75887,26850
75600,26848
75550,26853
75503,26867
75460,26891
75422,26922
75391,26960
75383,26974
75307,26923
75189,26874
75064,26850
74935,26850
74810,26874
74692,26923
74585,26995
74495,27085
74423,27192
74374,27310
74350,27435
73657,27435
73649,27368
73647,27355
73645,27341
73644,27338
73591,27114
73586,27100
73582,27086
73581,27083
73512,26902
73512,26902
73500,26869
73494,26857
73488,26844
73487,26841
73435,26743
73446,26741
73464,26738
73470,26736
73476,26735
73493,26728
73511,26722
73516,26718
73522,26716
73525,26714
73525,26714
73530,26716
73534,26717
73552,26722
73568,26725
73583,26729
73592,26730
73600,26731
73616,26731
73632,26732
73641,26730
73650,26730
73665,26727
73681,26725
73689,26722
73698,26720
73712,26714
73727,26708
73735,26704
73743,26700
73756,26691
73769,26683
73772,26681
73793,26666
73798,26661
73802,26658
73808,26653
73815,26647
73817,26645
73818,26644
73823,26638
73829,26633
73832,26628
73837,26623
73839,26620
73851,26606
73863,26587
73875,26570
73876,26567
73878,26564
73886,26544
73894,26524
73895,26521
73896,26519
73900,26497
73904,26476
73905,26473
73906,26456
73906,26443
73907,26431
73906,26419
73906,26407
73903,26394
73902,26382
73899,26370
73896,26358
73891,26347
73888,26335
73886,26332
73875,26306
73866,26289
73857,26271
73855,26268
73828,26228
73826,26225
73824,26221
73822,26218
73780,26161
73779,26160
73778,26159
73776,26156
73734,26101
73732,26099
73730,26096
73728,26094
73693,26051
73687,26045
73682,26039
73680,26037
73679,26035
73677,26030
73675,26027
73665,26007
73665,26007
73665,26007
73652,25986
73639,25965
73639,25965
73639,25965
73637,25962
73619,25940
73608,25928
73597,25915
73594,25913
73573,25893
73565,25887
73558,25880
73546,25872
73534,25863
73525,25858
73517,25853
73503,25847
73492,25842
73487,25832
73477,25810
73477,25810
73477,25810
73463,25790
73448,25771
73448,25770
73448,25770
73446,25767
73426,25746
73418,25739
73410,25730
73408,25728
73391,25713
73383,25707
73376,25700
73371,25697
73364,25687
73359,25681
73355,25676
73343,25664
73330,25651
73328,25649
73274,25603
73273,25603
73273,25602
73270,25600
73222,25561
73221,25561
73220,25560
73217,25558
73162,25515
73161,25514
73161,25514
73158,25512
73137,25497
73137,25496
73136,25496
73133,25494
73092,25465
73075,25455
73059,25445
73055,25443
73032,25432
73026,25430
73021,25427
73003,25422
73000,25420
73000,25397
73001,25374
73001,25373
73001,25372
72996,25348
72992,25325
72992,25324
72992,25323
72991,25320
72979,25282
72972,25266
72967,25250
72963,25243
72960,25236
72951,25222
72942,25207
72940,25205
72914,25169
72905,25160
72898,25150
72889,25142
72881,25133
72871,25125
72861,25117
72858,25115
72816,25085
72805,25078
72794,25071
72791,25069
72727,25034
72722,25031
72717,25028
72714,25027
72638,24991
72634,24989
72630,24987
72626,24986
72549,24954
72543,24952
72538,24949
72534,24948
72466,24925
72454,24922
72442,24918
72439,24917
72394,24907
72373,24905
72353,24902
72349,24902
72302,24900
72301,24900
72299,24900
72283,24901
72279,24897
72275,24892
72261,24880
72247,24867
72245,24865
72228,24853
72220,24848
72213,24842
72199,24835
72187,24827
72178,24824
72169,24819
72155,24815
72140,24810
72131,24808
72122,24806
72118,24805
72077,24798
72071,24798
72065,24796
72061,24796
72055,24795
72046,24795
72037,24794
72034,24794
71988,24793
71987,24793
71986,24793
71962,24795
71939,24797
71938,24797
71937,24797
71933,24798
71902,24804
71896,24806
71889,24807
71872,24813
71855,24818
71849,24822
71843,24824
71833,24830
71826,24821
71819,24816
71812,24809
71799,24801
71787,24791
71779,24787
71771,24782
71757,24776
71743,24769
71734,24767
71726,24763
71711,24760
71696,24756
71692,24755
71622,24744
71620,24744
71619,24744
71615,24743
71571,24737
71563,24737
71555,24736
71552,24735
71524,24734
71515,24734
71506,24734
71491,24735
71484,24736
71482,24736
71481,24736
71475,24736
71466,24738
71457,24739
71454,24740
71450,24741
71442,24744
71433,24746
71428,24748
71427,24748
71423,24750
71421,24751
71409,24748
71393,24743
71385,24743
71378,24741
71361,24741
71344,24739
71340,24739
71323,24739
71316,24740
71310,24740
71306,24740
71262,24744
71261,24745
71261,24745
71257,24745
71192,24752
71192,24752
71190,24752
71109,24761
71109,24761
71108,24762
71073,24766
71073,24766
71070,24766
70961,24780
70958,24781
70955,24782
70951,24782
70871,24796
70859,24799
70847,24801
70844,24802
70789,24819
70783,24821
70777,24822
70760,24830
70743,24837
70738,24840
70732,24843
70729,24845
70716,24853
70706,24851
70702,24851
70697,24851
70694,24851
70675,24850
70672,24851
70669,24850
70648,24853
70626,24855
70624,24856
70620,24856
70617,24857
70581,24865
70573,24867
70566,24869
70562,24870
70521,24882
70513,24886
70505,24888
70502,24889
70469,24902
70463,24905
70457,24907
70441,24916
70425,24925
70420,24929
70415,24932
70412,24934
70399,24943
70392,24950
70384,24955
70374,24966
70374,24966
70354,24964
70351,24964
70349,24964
70327,24967
70305,24969
70302,24969
70300,24970
70296,24970
70262,24978
70247,24983
70231,24987
70228,24988
70173,25010
70168,25012
70163,25013
70160,25015
70091,25045
70089,25047
70086,25047
70083,25049
70009,25085
70007,25086
70005,25087
70002,25089
69931,25126
69928,25128
69924,25130
69921,25131
69860,25167
69854,25171
69847,25175
69844,25177
69801,25207
69792,25214
69782,25221
69780,25223
69773,25230
69770,25232
69768,25234
69753,25250
69739,25265
69737,25268
69735,25270
69733,25273
69708,25307
69689,25310
69669,25312
69664,25313
69660,25313
69641,25320
69622,25325
69618,25327
69613,25329
69596,25339
69578,25348
69574,25351
69570,25353
69555,25366
69540,25379
69537,25381
69485,25433
69485,25433
69433,25485
69422,25499
69410,25511
69406,25518
69402,25523
69394,25539
69385,25553
69382,25560
69379,25567
69373,25583
69367,25599
69366,25607
69364,25614
69364,25616
69360,25616
69346,25620
69333,25622
69322,25626
69312,25628
69300,25635
69287,25640
69277,25645
69268,25650
69257,25658
69245,25666
69242,25668
69184,25714
69182,25716
69180,25717
69178,25720
69142,25750
69135,25757
69127,25764
69125,25766
69104,25788
69098,25795
69091,25803
69083,25815
69074,25826
69069,25835
69066,25839
69065,25840
69063,25843
69062,25847
69059,25851
69054,25863
69051,25870
69050,25873
69045,25884
69044,25890
69041,25897
69038,25914
69033,25931
69033,25938
69032,25945
69032,25948
69031,25948
69016,25960
69001,25972
68999,25974
68955,26016
68945,26029
68933,26041
68931,26043
68884,26104
68880,26111
68875,26116
68873,26119
68827,26189
68824,26194
68820,26199
68819,26202
68778,26272
68775,26278
68771,26285
68770,26288
68739,26350
68734,26364
68728,26377
68727,26381
68711,26427
68711,26428
68711,26429
68706,26452
68701,26475
68701,26476
68700,26477
68700,26480
68699,26491
68699,26511
68698,26531
68699,26536
68699,26540
68702,26560
68705,26580
68706,26583
68718,26625
68725,26645
68732,26665
68734,26668
68735,26671
68746,26689
68757,26707
68759,26710
68787,26747
68787,26748
68788,26749
68789,26750
68788,26750
68785,26754
68769,26771
68768,26772
68767,26773
68754,26793
68742,26812
68740,26815
68740,26815
68740,26815
68740,26815
68728,26839
68723,26852
68717,26866
68716,26869
68700,26914
68699,26918
68698,26922
68697,26925
68680,26982
68680,26984
68679,26986
68678,26990
68663,27048
68662,27051
68661,27054
68661,27058
68650,27109
68649,27117
68647,27126
68646,27129
68645,27136
68645,27137
68641,27144
68635,27160
68628,27175
68626,27183
68624,27190
68621,27207
68617,27223
68617,27231
68616,27239
68616,27242
68614,27268
68615,27282
68615,27295
68615,27299
68617,27328
68618,27335
68619,27342
68623,27359
68625,27377
68628,27383
68630,27390
68632,27395
68623,27406
68608,27424
68608,27425
68607,27426
68596,27446
68585,27467
68584,27468
68584,27469
68577,27491
68570,27514
68570,27515
68569,27516
68567,27539
68564,27563
68564,27565
68564,27565
68564,27565
68564,27566
68104,27566
68087,27550
67550,27550
67450,27550
67442,27550
67442,27450
67450,27450
67450,26912
67550,26912
67550,27450
68087,27450
68150,27387
68151,27100
68146,27050
68132,27003
68108,26960
68077,26922
68039,26891
67996,26867
67949,26853
67900,26848
67612,26850
67550,26912
67450,26912
67387,26850
67100,26848
67050,26853
67003,26867
66960,26891
66922,26922
66891,26960
66883,26974
66807,26923
66689,26874
66564,26850
66435,26850
66310,26874
66192,26923
66085,26995
65995,27085
65923,27192
65874,27310
65850,27435
65626,27435
65626,25435
66350,25435
66350,25564
66374,25689
66423,25807
66495,25914
66585,26004
66692,26076
66810,26125
66935,26150
67064,26150
67189,26125
67307,26076
67414,26004
67504,25914
67576,25807
67625,25689
67650,25564
67650,25481
68971,24160
75263,24160
75263,24256
75282,24350
75319,24438
75372,24518
75440,24586
75519,24639
75608,24676
75702,24694
75797,24694
75891,24676
75980,24639
76059,24586
76127,24518
76180,24438
76217,24350
76236,24256
76236,24160
76217,24066
76180,23978
76127,23898
76059,23830
75980,23777
75940,23761
75750,23570
75559,23761
75519,23777
75440,23830
75372,23898
75319,23978
75282,24066
75263,24160
68971,24160
69400,23731
69429,23722
69507,23681
69558,23639
69959,23238
71219,23238
71241,23240
71263,23238
75405,23238
75327,23254
75287,23341
75265,23435
75262,23530
75277,23625
75311,23715
75327,23745
75415,23763
75679,23500
75820,23500
76084,23763
76172,23745
76212,23658
76234,23564
76237,23469
76222,23374
76188,23284
76172,23254
76084,23236
75820,23500
75679,23500
75673,23494
75744,23423
75750,23429
75940,23238
75980,23222
76059,23169
76127,23101
76180,23021
76217,22933
76236,22839
76236,22743
76217,22649
76180,22561
76147,22510
76163,22496
76195,22458
76218,22415
76232,22367
76237,22318
76237,21846
76232,21797
76218,21750
76195,21706
76163,21668
76125,21637
76082,21614
76035,21600
75986,21595
75513,21595
75464,21600
75417,21614
75374,21637
75336,21668
75304,21706
75281,21750
75267,21797
75262,21846
75262,22318
75265,22344
71702,22344
71707,22291
71699,22203
71696,22196
71696,21421
71699,21400
71696,21378
71696,15750
71786,15750
71897,15739
72038,15696
72168,15626
72282,15532
72376,15418
72446,15288
72489,15147
72503,15000
72489,14852
72446,14711
72376,14581
72282,14467
72168,14373
72038,14303
71897,14260
71786,14250
70713,14250
70602,14260
70461,14303
70331,14373
70217,14467
70123,14581
70053,14711
70010,14852
69996,15000
70010,15147
70053,15288
70123,15418
70217,15532
70223,15538
68643,15538
68643,21161
70803,21161
70803,21313
70800,21321
70792,21408
70794,21430
70794,22344
69796,22344
69774,22342
69752,22344
69730,22344
69708,22342
69686,22344
69686,22344
69621,22350
69536,22376
69459,22417
69391,22473
69377,22490
67018,24850
66935,24850
66810,24874
66692,24923
66585,24995
66495,25085
66423,25192
66374,25310
66350,25435
65626,25435
65626,21435
66350,21435
66350,21564
66374,21689
66423,21807
66495,21914
66585,22004
66692,22076
66810,22125
66935,22150
67064,22150
67189,22125
67307,22076
67414,22004
67504,21914
67576,21807
67625,21689
67650,21564
67650,21435
67625,21310
67576,21192
67504,21085
67414,20995
67307,20923
67189,20874
67064,20850
66935,20850
66810,20874
66692,20923
66585,20995
66495,21085
66423,21192
66374,21310
66350,21435
65626,21435
65626,15065
65714,15152
65851,15244
66004,15308
66167,15340
66332,15340
66495,15308
66648,15244
66785,15152
66902,15035
66908,15027
66908,15090
66913,15139
66927,15186
66950,15230
66981,15268
67019,15299
67063,15322
67110,15336
67159,15341
67637,15340
67700,15278
67700,14550
67800,14550
67800,15278
67862,15340
68340,15341
68389,15336
68436,15322
68480,15299
68518,15268
68549,15230
68572,15186
68586,15139
68591,15090
68590,14612
68528,14550
67800,14550
67700,14550
67692,14550
67692,14450
67700,14450
67700,13721
67800,13721
67800,14450
68528,14450
68590,14387
68591,13909
68586,13860
68572,13813
68549,13769
68518,13731
68480,13700
68436,13677
68389,13663
68340,13658
67862,13659
67800,13721
67700,13721
67637,13659
67159,13658
67110,13663
67063,13677
67019,13700
66981,13731
66950,13769
66927,13813
66913,13860
66908,13909
66908,13972
66902,13964
66785,13847
66648,13755
66495,13691
66332,13659
66167,13659
66004,13691
65851,13755
65714,13847
65626,13934
65626,12588
65627,12552
65629,12520
65633,12489
65639,12459
65646,12429
65654,12400
65663,12372
65674,12344
65687,12316
65700,12290
65701,12289
68593,12289
68611,12469
68664,12642
68749,12802
68864,12942
69004,13057
69164,13142
69337,13195
69472,13208
72948,13208
73083,13195
73257,13142
73416,13057
73556,12942
73671,12802
73756,12642
73809,12469
73827,12289
73809,12109
73756,11935
73671,11776
73556,11636
73416,11521
73257,11435
73083,11383
72948,11370
69472,11370
69337,11383
69164,11435
69004,11521
68864,11636
68749,11776
68664,11935
68611,12109
68593,12289
65701,12289
65715,12264
65731,12239
65748,12215
65766,12192
65786,12170
65806,12148
65827,12128
65850,12109
65873,12090
65897,12073
65922,12057
65948,12042
65974,12029
66001,12017
66029,12006
66058,11996
66087,11988
66117,11981
66147,11976
66178,11972
66210,11969
66245,11968
67345,11968
67352,11969
67358,11968
67365,11968
67371,11968
67391,11967
67404,11966
67404,11966
67405,11966
67417,11964
67417,11964
67428,11963
67444,11960
67444,11960
67456,11958
67456,11958
67457,11958
67468,11955
67468,11955
67478,11953
67495,11948
67495,11948
67506,11945
67507,11945
67507,11945
67517,11941
67517,11941
67522,11940
67544,11932
67544,11932
67555,11928
67555,11928
67555,11928
67568,11922
67591,11911
67591,11911
67601,11906
67601,11906
67601,11906
67612,11899
67633,11886
67644,11880
67644,11880
67644,11880
67654,11872
67673,11857
67684,11850
67684,11850
67684,11849
67694,11841
67711,11825
67721,11816
67721,11816
67721,11816
67730,11806
67746,11788
67755,11779
67755,11779
67755,11779
67763,11768
67777,11749
67785,11739
67785,11738
67785,11738
67792,11727
67804,11707
67811,11696
67811,11695
67811,11695
67816,11685
67826,11664
67833,11650
67833,11650
67833,11650
67837,11639
67837,11639
67846,11615
67847,11612
67847,11612
67851,11601
67851,11601
67851,11601
67854,11590
67854,11589
67858,11573
67861,11563
67861,11563
67863,11551
67863,11551
67864,11551
67865,11539
67865,11538
67868,11524
67869,11512
67869,11512
67871,11499
67871,11499
67871,11499
67872,11486
67873,11465
67874,11459
67874,11453
67874,11447
67874,11440
67874,10803
74566,10803
74566,11440
Z" /> 
</g>
</g> 
</svg>
