<?xml version="1.0" standalone="no"?>
 <!DOCTYPE svg PUBLIC "-//W3C//DTD SVG 1.1//EN" 
 "http://www.w3.org/Graphics/SVG/1.1/DTD/svg11.dtd"> 
<svg xmlns="http://www.w3.org/2000/svg" version="1.1" 
    width="29.7002cm" height="21.0007cm" viewBox="0 0 116930 82680 ">
<title>SVG Picture created as Jam Jar Solar PCB-F_Cu.svg date 2020/12/11 15:29:21 </title>
  <desc>Picture generated by PCBNEW </desc>
<g style="fill:#000000; fill-opacity:1;stroke:#000000; stroke-opacity:1;
stroke-linecap:round; stroke-linejoin:round; "
 transform="translate(0 0) scale(1 1)">
</g>
<g style="fill:#000000; fill-opacity:0.0; 
stroke:#000000; stroke-width:-0.000393701; stroke-opacity:1; 
stroke-linecap:round; stroke-linejoin:round;">
<g >
</g>
<g style="fill:#000000; fill-opacity:1.0; 
stroke:#000000; stroke-width:0; stroke-opacity:1; 
stroke-linecap:round; stroke-linejoin:round;">
<circle cx="75750" cy="24208.7" r="236.22" /> 
</g>
<g style="fill:#000000; fill-opacity:1.0; 
stroke:#000000; stroke-width:196.85; stroke-opacity:1; 
stroke-linecap:round; stroke-linejoin:round;">
</g>
<g style="fill:#000000; fill-opacity:1.0; 
stroke:#000000; stroke-width:0; stroke-opacity:1; 
stroke-linecap:round; stroke-linejoin:round;">
<path style="fill:#000000; fill-opacity:1.0; 
stroke:#000000; stroke-width:0; stroke-opacity:1; 
stroke-linecap:round; stroke-linejoin:round;fill-rule:evenodd;"
d="M 75513,22318
75513,21846
75986,21846
75986,22318
75513,22318
Z" /> 
<circle cx="75750" cy="23500" r="236.22" /> 
</g>
<g style="fill:#000000; fill-opacity:1.0; 
stroke:#000000; stroke-width:196.85; stroke-opacity:1; 
stroke-linecap:round; stroke-linejoin:round;">
</g>
<g style="fill:#000000; fill-opacity:1.0; 
stroke:#000000; stroke-width:0; stroke-opacity:1; 
stroke-linecap:round; stroke-linejoin:round;">
<circle cx="75750" cy="22791.3" r="236.22" /> 
</g>
<g style="fill:#000000; fill-opacity:1.0; 
stroke:#000000; stroke-width:196.85; stroke-opacity:1; 
stroke-linecap:round; stroke-linejoin:round;">
</g>
<g >
</g>
<g >
</g>
<g style="fill:#000000; fill-opacity:1.0; 
stroke:#000000; stroke-width:0; stroke-opacity:1; 
stroke-linecap:round; stroke-linejoin:round;">
<path style="fill:#000000; fill-opacity:1.0; 
stroke:#000000; stroke-width:0; stroke-opacity:1; 
stroke-linecap:round; stroke-linejoin:round;fill-rule:evenodd;"
d="M 68340,13909
68340,15090
67159,15090
67159,13909
68340,13909
Z" /> 
<circle cx="66250" cy="14500" r="590.551" /> 
</g>
<g style="fill:#000000; fill-opacity:1.0; 
stroke:#000000; stroke-width:196.85; stroke-opacity:1; 
stroke-linecap:round; stroke-linejoin:round;">
</g>
<g style="fill:#000000; fill-opacity:1.0; 
stroke:#000000; stroke-width:0; stroke-opacity:1; 
stroke-linecap:round; stroke-linejoin:round;">
<path style="fill:#000000; fill-opacity:1.0; 
stroke:#000000; stroke-width:0; stroke-opacity:1; 
stroke-linecap:round; stroke-linejoin:round;fill-rule:evenodd;"
d="M 68340,13159
68340,14340
67159,14340
67159,13159
68340,13159
Z" /> 
<path style="fill:#000000; fill-opacity:1.0; 
stroke:#000000; stroke-width:0; stroke-opacity:1; 
stroke-linecap:round; stroke-linejoin:round;fill-rule:evenodd;"
d="M 66840,13159
66840,14340
65659,14340
65659,13159
66840,13159
Z" /> 
</g>
<g >
</g>
<g style="fill:#000000; fill-opacity:1.0; 
stroke:#000000; stroke-width:1000; stroke-opacity:1; 
stroke-linecap:round; stroke-linejoin:round;">
</g>
<g style="fill:#000000; fill-opacity:0.0; 
stroke:#000000; stroke-width:1000; stroke-opacity:1; 
stroke-linecap:round; stroke-linejoin:round;">
<path d="M71750 15000
L70750 15000
" />
<path d="M71750 33110
L70750 33110
" />
</g>
<g >
</g>
<g style="fill:#000000; fill-opacity:0.0; 
stroke:#000000; stroke-width:0; stroke-opacity:1; 
stroke-linecap:round; stroke-linejoin:round;">
</g>
<g style="fill:#000000; fill-opacity:1.0; 
stroke:#000000; stroke-width:0; stroke-opacity:1; 
stroke-linecap:round; stroke-linejoin:round;">
<path style="fill:#000000; fill-opacity:1.0; 
stroke:#000000; stroke-width:0; stroke-opacity:1; 
stroke-linecap:round; stroke-linejoin:round;fill-rule:evenodd;"
d="M 67100,32400
67100,31600
67900,31600
67900,32400
67100,32400
Z" /> 
<circle cx="66500" cy="32000" r="400" /> 
</g>
<g style="fill:#000000; fill-opacity:1.0; 
stroke:#000000; stroke-width:196.85; stroke-opacity:1; 
stroke-linecap:round; stroke-linejoin:round;">
</g>
<g >
</g>
<g style="fill:#000000; fill-opacity:1.0; 
stroke:#000000; stroke-width:0; stroke-opacity:1; 
stroke-linecap:round; stroke-linejoin:round;">
<path style="fill:#000000; fill-opacity:1.0; 
stroke:#000000; stroke-width:0; stroke-opacity:1; 
stroke-linecap:round; stroke-linejoin:round;fill-rule:evenodd;"
d="M 67100,27900
67100,27100
67900,27100
67900,27900
67100,27900
Z" /> 
<circle cx="66500" cy="27500" r="400" /> 
</g>
<g style="fill:#000000; fill-opacity:1.0; 
stroke:#000000; stroke-width:196.85; stroke-opacity:1; 
stroke-linecap:round; stroke-linejoin:round;">
</g>
<g >
</g>
<g style="fill:#000000; fill-opacity:1.0; 
stroke:#000000; stroke-width:0; stroke-opacity:1; 
stroke-linecap:round; stroke-linejoin:round;">
<path style="fill:#000000; fill-opacity:1.0; 
stroke:#000000; stroke-width:0; stroke-opacity:1; 
stroke-linecap:round; stroke-linejoin:round;fill-rule:evenodd;"
d="M 75600,27900
75600,27100
76400,27100
76400,27900
75600,27900
Z" /> 
<circle cx="75000" cy="27500" r="400" /> 
</g>
<g style="fill:#000000; fill-opacity:1.0; 
stroke:#000000; stroke-width:196.85; stroke-opacity:1; 
stroke-linecap:round; stroke-linejoin:round;">
</g>
<g >
</g>
<g style="fill:#000000; fill-opacity:1.0; 
stroke:#000000; stroke-width:0; stroke-opacity:1; 
stroke-linecap:round; stroke-linejoin:round;">
<path style="fill:#000000; fill-opacity:1.0; 
stroke:#000000; stroke-width:0; stroke-opacity:1; 
stroke-linecap:round; stroke-linejoin:round;fill-rule:evenodd;"
d="M 75600,32400
75600,31600
76400,31600
76400,32400
75600,32400
Z" /> 
<circle cx="75000" cy="32000" r="400" /> 
</g>
<g style="fill:#000000; fill-opacity:1.0; 
stroke:#000000; stroke-width:196.85; stroke-opacity:1; 
stroke-linecap:round; stroke-linejoin:round;">
</g>
<g >
</g>
<g >
</g>
<g >
</g>
<g >
</g>
<g style="fill:#000000; fill-opacity:1.0; 
stroke:#000000; stroke-width:0; stroke-opacity:1; 
stroke-linecap:round; stroke-linejoin:round;">
<circle cx="67000" cy="21500" r="400" /> 
</g>
<g style="fill:#000000; fill-opacity:1.0; 
stroke:#000000; stroke-width:196.85; stroke-opacity:1; 
stroke-linecap:round; stroke-linejoin:round;">
</g>
<g style="fill:#000000; fill-opacity:1.0; 
stroke:#000000; stroke-width:0; stroke-opacity:1; 
stroke-linecap:round; stroke-linejoin:round;">
<circle cx="67000" cy="25500" r="400" /> 
</g>
<g style="fill:#000000; fill-opacity:1.0; 
stroke:#000000; stroke-width:196.85; stroke-opacity:1; 
stroke-linecap:round; stroke-linejoin:round;">
</g>
<g >
</g>
<g >
</g>
<g style="fill:#000000; fill-opacity:1.0; 
stroke:#000000; stroke-width:393.701; stroke-opacity:1; 
stroke-linecap:round; stroke-linejoin:round;">
</g>
<g style="fill:#000000; fill-opacity:0.0; 
stroke:#000000; stroke-width:393.701; stroke-opacity:1; 
stroke-linecap:round; stroke-linejoin:round;">
<path d="M67750 14500
L67750 13750
" />
<path d="M75000 32000
L75000 31434
" />
<path d="M74900 31000
L75000 30900
" />
<path d="M66500 31250
L66750 31000
" />
<path d="M66500 32000
L66500 31250
" />
<path d="M75000 24958
L75750 24208
" />
<path d="M75000 27500
L75000 24958
" />
<path d="M66550 31000
L66500 30950
" />
<path d="M66750 31000
L66550 31000
" />
<path d="M66500 32000
L66500 30950
" />
<path d="M66700 31000
L66500 30800
" />
<path d="M67250 31000
L66700 31000
" />
<path d="M66500 30800
L66500 27500
" />
<path d="M66500 30950
L66500 30800
" />
<path d="M66750 31000
L67250 31000
" />
<path d="M74800 31000
L75000 30800
" />
<path d="M75000 30800
L75000 27500
" />
<path d="M75000 30900
L75000 30800
" />
<path d="M74600 31000
L74900 31000
" />
<path d="M67250 31000
L74600 31000
" />
<path d="M74800 31000
L75000 31200
" />
<path d="M74600 31000
L74800 31000
" />
<path d="M75000 31434
L75000 31200
" />
<path d="M75000 31200
L75000 30900
" />
<path d="M65900 22600
L67000 21500
" />
<path d="M66500 27500
L65900 26900
" />
<path d="M65900 26900
L65900 22600
" />
<path d="M66250 15900
L66250 14500
" />
<path d="M66600 16250
L66250 15900
" />
<path d="M66250 14500
L66250 13750
" />
<path d="M69050 17300
L68000 16250
" />
<path d="M68000 16250
L66600 16250
" />
<path d="M75750 22082
L70682 22082
" />
<path d="M69050 20450
L69050 17800
" />
<path d="M70682 22082
L69050 20450
" />
<path d="M69050 19100
L69050 17800
" />
<path d="M69050 17800
L69050 17300
" />
</g>
<g >
</g>
<g style="fill:#000000; fill-opacity:1.0; 
stroke:#000000; stroke-width:100; stroke-opacity:1; 
stroke-linecap:round; stroke-linejoin:round;">
<path style="fill:#000000; fill-opacity:1.0; 
stroke:#000000; stroke-width:100; stroke-opacity:1; 
stroke-linecap:round; stroke-linejoin:round;fill-rule:evenodd;"
d="M 74566,11440
74565,11446
74566,11453
74566,11459
74566,11463
74567,11486
74568,11498
74568,11499
74568,11500
74570,11512
74574,11538
74574,11538
74576,11551
74576,11551
74576,11551
74579,11563
74579,11564
74585,11589
74588,11601
74589,11601
74589,11602
74593,11614
74602,11638
74602,11639
74606,11649
74606,11650
74607,11650
74611,11659
74611,11659
74622,11683
74628,11695
74628,11695
74628,11695
74634,11705
74634,11705
74641,11717
74648,11729
74649,11729
74654,11739
74654,11739
74655,11739
74662,11750
74678,11770
74678,11771
74684,11778
74685,11779
74685,11780
74694,11789
74709,11806
74718,11816
74718,11816
74718,11816
74728,11825
74745,11841
74755,11849
74755,11849
74755,11850
74765,11857
74783,11871
74795,11880
74795,11880
74795,11880
74808,11887
74829,11900
74829,11900
74838,11906
74839,11906
74839,11906
74849,11911
74849,11911
74872,11922
74884,11928
74884,11928
74885,11928
74895,11932
74895,11932
74915,11939
74922,11941
74922,11941
74933,11945
74933,11945
74933,11945
74944,11948
74945,11948
74959,11952
74971,11955
74971,11955
74983,11958
74983,11958
74983,11958
74995,11960
74996,11960
75013,11963
75022,11964
75022,11964
75034,11966
75035,11966
75035,11966
75048,11967
75069,11968
75075,11968
75081,11968
75087,11969
75094,11968
76194,11968
76230,11969
76261,11972
76292,11976
76322,11981
76352,11988
76381,11996
76410,12006
76438,12017
76465,12029
76492,12043
76517,12057
76542,12073
76566,12090
76590,12109
76612,12128
76633,12148
76654,12170
76673,12192
76691,12215
76708,12239
76724,12264
76739,12290
76753,12316
76765,12344
76776,12372
76785,12400
76794,12429
76800,12459
76806,12489
76810,12521
76812,12552
76813,12588
76813,33166
76812,33202
76810,33233
76806,33264
76800,33295
76794,33324
76785,33354
76776,33382
76765,33410
76753,33437
76739,33464
76724,33490
76708,33514
76691,33539
76673,33562
76654,33584
76633,33606
76612,33626
76590,33645
76566,33663
76542,33681
76517,33697
76492,33711
76465,33725
76438,33737
76410,33748
76382,33758
76352,33766
76322,33773
76292,33778
76261,33782
76229,33784
76194,33785
72078,33785
72083,33784
72208,33706
72315,33605
72401,33485
72462,33351
72481,33276
72435,33160
71300,33160
71300,33168
71200,33168
71200,33160
70064,33160
70018,33276
70037,33351
70098,33485
70184,33605
70291,33706
70416,33784
70421,33785
66245,33785
66210,33784
66178,33782
66147,33778
66117,33773
66087,33766
66058,33758
66029,33748
66001,33737
65974,33725
65948,33711
65922,33697
65897,33681
65873,33663
65850,33645
65827,33626
65806,33606
65786,33584
65766,33562
65748,33539
65731,33515
65715,33490
65700,33464
65687,33437
65674,33410
65663,33382
65654,33354
65646,33325
65639,33295
65633,33264
65629,33233
65627,33202
65626,33166
65626,32943
70018,32943
70064,33060
71200,33060
71200,33052
71300,33052
71300,33060
72435,33060
72481,32943
72462,32869
72401,32735
72315,32615
72208,32514
72083,32436
71945,32384
71800,32360
70700,32360
70554,32384
70416,32436
70291,32514
70184,32615
70098,32735
70037,32869
70018,32943
65626,32943
65626,27258
65850,27481
65850,27564
65874,27689
65923,27807
65995,27914
66053,27972
66053,30778
66050,30800
66053,30821
66053,30928
66050,30950
66053,30971
66053,30971
66053,31228
66050,31250
66053,31271
66053,31527
65995,31585
65923,31692
65874,31810
65850,31935
65850,32064
65874,32189
65923,32307
65995,32414
66085,32504
66192,32576
66310,32625
66435,32650
66564,32650
66689,32625
66807,32576
66883,32525
66891,32539
66922,32577
66960,32608
67003,32632
67050,32646
67100,32651
67387,32650
67450,32587
67450,32050
67550,32050
67550,32587
67612,32650
67900,32651
67949,32646
67996,32632
68039,32608
68077,32577
68108,32539
68132,32496
68146,32449
68151,32400
68150,32112
68087,32050
67550,32050
67450,32050
67442,32050
67442,31950
67450,31950
67450,31942
67550,31942
67550,31950
68087,31950
68150,31887
68151,31600
68146,31550
68132,31503
68108,31460
68097,31446
74553,31446
74553,31527
74495,31585
74423,31692
74374,31810
74350,31935
74350,32064
74374,32189
74423,32307
74495,32414
74585,32504
74692,32576
74810,32625
74935,32650
75064,32650
75189,32625
75307,32576
75383,32525
75391,32539
75422,32577
75460,32608
75503,32632
75550,32646
75600,32651
75887,32650
75950,32587
75950,32050
76050,32050
76050,32587
76112,32650
76400,32651
76449,32646
76496,32632
76539,32608
76577,32577
76608,32539
76632,32496
76646,32449
76651,32400
76650,32112
76587,32050
76050,32050
75950,32050
75942,32050
75942,31950
75950,31950
75950,31412
76050,31412
76050,31950
76587,31950
76650,31887
76651,31600
76646,31550
76632,31503
76608,31460
76577,31422
76539,31391
76496,31367
76449,31353
76400,31348
76112,31350
76050,31412
75950,31412
75887,31350
75600,31348
75550,31353
75503,31367
75460,31391
75446,31402
75446,31221
75449,31199
75446,31178
75446,30921
75449,30900
75446,30878
75446,30821
75449,30800
75446,30778
75446,28097
75460,28108
75503,28132
75550,28146
75600,28151
75887,28150
75950,28087
75950,27550
76050,27550
76050,28087
76112,28150
76400,28151
76449,28146
76496,28132
76539,28108
76577,28077
76608,28039
76632,27996
76646,27949
76651,27900
76650,27612
76587,27550
76050,27550
75950,27550
75942,27550
75942,27450
75950,27450
75950,26912
76050,26912
76050,27450
76587,27450
76650,27387
76651,27100
76646,27050
76632,27003
76608,26960
76577,26922
76539,26891
76496,26867
76449,26853
76400,26848
76112,26850
76050,26912
75950,26912
75887,26850
75600,26848
75550,26853
75503,26867
75460,26891
75446,26902
75446,25143
75930,24660
75980,24639
76059,24586
76127,24518
76180,24438
76217,24350
76236,24256
76236,24160
76217,24066
76180,23978
76127,23898
76059,23830
75980,23777
75940,23761
75750,23570
75559,23761
75519,23777
75440,23830
75372,23898
75319,23978
75298,24028
74699,24627
74682,24641
74626,24709
74604,24750
74585,24786
74559,24871
74550,24958
74553,24980
74553,27027
74495,27085
74423,27192
74374,27310
74350,27435
74350,27564
74374,27689
74423,27807
74495,27914
74553,27972
74553,30553
66946,30553
66946,28097
66960,28108
67003,28132
67050,28146
67100,28151
67387,28150
67450,28087
67450,27550
67550,27550
67550,28087
67612,28150
67900,28151
67949,28146
67996,28132
68039,28108
68077,28077
68108,28039
68132,27996
68146,27949
68151,27900
68150,27612
68087,27550
67550,27550
67450,27550
67442,27550
67442,27450
67450,27450
67450,26912
67550,26912
67550,27450
68087,27450
68150,27387
68151,27100
68146,27050
68132,27003
68108,26960
68077,26922
68039,26891
67996,26867
67949,26853
67900,26848
67612,26850
67550,26912
67450,26912
67387,26850
67100,26848
67050,26853
67003,26867
66960,26891
66922,26922
66891,26960
66883,26974
66807,26923
66689,26874
66564,26850
66481,26850
66346,26714
66346,25435
66350,25435
66350,25564
66374,25689
66423,25807
66495,25914
66585,26004
66692,26076
66810,26125
66935,26150
67064,26150
67189,26125
67307,26076
67414,26004
67504,25914
67576,25807
67625,25689
67650,25564
67650,25435
67625,25310
67576,25192
67504,25085
67414,24995
67307,24923
67189,24874
67064,24850
66935,24850
66810,24874
66692,24923
66585,24995
66495,25085
66423,25192
66374,25310
66350,25435
66346,25435
66346,23530
75262,23530
75277,23625
75311,23715
75327,23745
75415,23763
75679,23500
75820,23500
76084,23763
76172,23745
76212,23658
76234,23564
76237,23469
76222,23374
76188,23284
76172,23254
76084,23236
75820,23500
75679,23500
75415,23236
75327,23254
75287,23341
75265,23435
75262,23530
66346,23530
66346,22785
66981,22150
67064,22150
67189,22125
67307,22076
67414,22004
67504,21914
67576,21807
67625,21689
67650,21564
67650,21435
67625,21310
67576,21192
67504,21085
67414,20995
67307,20923
67189,20874
67064,20850
66935,20850
66810,20874
66692,20923
66585,20995
66495,21085
66423,21192
66374,21310
66350,21435
66350,21518
65626,22241
65626,15065
65714,15152
65803,15212
65803,15878
65800,15900
65803,15921
65809,15987
65835,16071
65876,16149
65932,16217
65949,16231
66268,16550
66282,16567
66350,16623
66428,16664
66512,16690
66600,16699
66621,16696
67814,16696
68603,17485
68603,17821
68603,17821
68603,19121
68603,19121
68603,20428
68600,20450
68603,20471
68609,20537
68635,20621
68676,20699
68732,20767
68749,20781
70351,22383
70365,22400
70382,22414
70382,22414
70433,22456
70510,22497
70595,22523
70682,22531
70704,22529
75340,22529
75319,22561
75282,22649
75263,22743
75263,22839
75282,22933
75319,23021
75372,23101
75440,23169
75519,23222
75559,23238
75750,23429
75940,23238
75980,23222
76059,23169
76127,23101
76180,23021
76217,22933
76236,22839
76236,22743
76217,22649
76180,22561
76147,22510
76163,22496
76195,22458
76218,22415
76232,22367
76237,22318
76237,21846
76232,21797
76218,21750
76195,21706
76163,21668
76125,21637
76082,21614
76035,21600
75986,21595
75513,21595
75464,21600
75417,21614
75377,21635
70867,21635
69496,20264
69496,17321
69499,17300
69490,17212
69464,17128
69423,17050
69381,16999
69381,16999
69367,16982
69350,16968
68331,15949
68317,15932
68249,15876
68171,15835
68087,15809
68021,15803
68021,15803
68000,15800
67978,15803
66785,15803
66696,15714
66696,15212
66785,15152
66902,15035
66908,15027
66908,15090
66913,15139
66927,15186
66950,15230
66981,15268
67019,15299
67063,15322
67110,15336
67159,15341
67637,15340
67700,15278
67700,14550
67692,14550
67692,14535
67700,14528
67700,13721
67692,13714
67692,13700
67700,13700
67700,12971
67800,12971
67800,13700
67821,13700
67800,13721
67800,14528
67821,14550
67800,14550
67800,15278
67862,15340
68340,15341
68389,15336
68436,15322
68480,15299
68518,15268
68549,15230
68572,15186
68586,15139
68591,15090
68591,15000
69996,15000
70010,15147
70053,15288
70123,15418
70217,15532
70331,15626
70461,15696
70602,15739
70713,15750
71786,15750
71897,15739
72038,15696
72168,15626
72282,15532
72376,15418
72446,15288
72489,15147
72503,15000
72489,14852
72446,14711
72376,14581
72282,14467
72168,14373
72038,14303
71897,14260
71786,14250
70713,14250
70602,14260
70461,14303
70331,14373
70217,14467
70123,14581
70053,14711
70010,14852
69996,15000
68591,15000
68590,14612
68528,14550
68479,14550
68480,14549
68518,14518
68549,14480
68572,14436
68586,14391
68590,14387
68590,14351
68591,14340
68591,14125
68591,13909
68590,13898
68590,13862
68586,13858
68572,13813
68549,13769
68518,13731
68480,13700
68479,13700
68528,13700
68590,13637
68591,13159
68586,13110
68572,13063
68549,13019
68518,12981
68480,12950
68436,12927
68389,12913
68340,12908
67862,12909
67800,12971
67700,12971
67637,12909
67159,12908
67110,12913
67063,12927
67019,12950
67000,12966
66980,12950
66936,12927
66889,12913
66840,12908
65659,12908
65626,12911
65626,12588
65627,12552
65629,12520
65633,12489
65639,12459
65646,12429
65654,12400
65663,12372
65674,12344
65687,12316
65700,12290
65701,12289
68593,12289
68611,12469
68664,12642
68749,12802
68864,12942
69004,13057
69164,13142
69337,13195
69472,13208
72948,13208
73083,13195
73257,13142
73416,13057
73556,12942
73671,12802
73756,12642
73809,12469
73827,12289
73809,12109
73756,11935
73671,11776
73556,11636
73416,11521
73257,11435
73083,11383
72948,11370
69472,11370
69337,11383
69164,11435
69004,11521
68864,11636
68749,11776
68664,11935
68611,12109
68593,12289
65701,12289
65715,12264
65731,12239
65748,12215
65766,12192
65786,12170
65806,12148
65827,12128
65850,12109
65873,12090
65897,12073
65922,12057
65948,12042
65974,12029
66001,12017
66029,12006
66058,11996
66087,11988
66117,11981
66147,11976
66178,11972
66210,11969
66245,11968
67345,11968
67352,11969
67358,11968
67365,11968
67371,11968
67391,11967
67404,11966
67404,11966
67405,11966
67417,11964
67417,11964
67428,11963
67444,11960
67444,11960
67456,11958
67456,11958
67457,11958
67468,11955
67468,11955
67478,11953
67495,11948
67495,11948
67506,11945
67507,11945
67507,11945
67517,11941
67517,11941
67522,11940
67544,11932
67544,11932
67555,11928
67555,11928
67555,11928
67568,11922
67591,11911
67591,11911
67601,11906
67601,11906
67601,11906
67612,11899
67633,11886
67644,11880
67644,11880
67644,11880
67654,11872
67673,11857
67684,11850
67684,11850
67684,11849
67694,11841
67711,11825
67721,11816
67721,11816
67721,11816
67730,11806
67746,11788
67755,11779
67755,11779
67755,11779
67763,11768
67777,11749
67785,11739
67785,11738
67785,11738
67792,11727
67804,11707
67811,11696
67811,11695
67811,11695
67816,11685
67826,11664
67833,11650
67833,11650
67833,11650
67837,11639
67837,11639
67846,11615
67847,11612
67847,11612
67851,11601
67851,11601
67851,11601
67854,11590
67854,11589
67858,11573
67861,11563
67861,11563
67863,11551
67863,11551
67864,11551
67865,11539
67865,11538
67868,11524
67869,11512
67869,11512
67871,11499
67871,11499
67871,11499
67872,11486
67873,11465
67874,11459
67874,11453
67874,11447
67874,11440
67874,10803
74566,10803
74566,11440
Z" /> 
</g>
</g> 
</svg>
