<?xml version="1.0" standalone="no"?>
 <!DOCTYPE svg PUBLIC "-//W3C//DTD SVG 1.1//EN" 
 "http://www.w3.org/Graphics/SVG/1.1/DTD/svg11.dtd"> 
<svg xmlns="http://www.w3.org/2000/svg" version="1.1" 
    width="29.7002cm" height="21.0007cm" viewBox="0 0 116930 82680 ">
<title>SVG Picture created as Jam Jar Solar PCB-B_SilkS.svg date 2020/12/11 15:29:22 </title>
  <desc>Picture generated by PCBNEW </desc>
<g style="fill:#000000; fill-opacity:1;stroke:#000000; stroke-opacity:1;
stroke-linecap:round; stroke-linejoin:round; "
 transform="translate(0 0) scale(1 1)">
</g>
<g style="fill:#000000; fill-opacity:0.0; 
stroke:#000000; stroke-width:-0.000393701; stroke-opacity:1; 
stroke-linecap:round; stroke-linejoin:round;">
</g>
<g style="fill:#000000; fill-opacity:0.0; 
stroke:#000000; stroke-width:80; stroke-opacity:1; 
stroke-linecap:round; stroke-linejoin:round;">
<path d="M68120 31250
L68120 32750
" />
</g>
<g style="fill:#000000; fill-opacity:0.0; 
stroke:#000000; stroke-width:100; stroke-opacity:1; 
stroke-linecap:round; stroke-linejoin:round;">
<path d="M68100 31250 A1250 1250 0.0 1 0 68099.2 32751.1 " />
</g>
<g style="fill:#000000; fill-opacity:0.0; 
stroke:#000000; stroke-width:80; stroke-opacity:1; 
stroke-linecap:round; stroke-linejoin:round;">
<path d="M76620 26750
L76620 28250
" />
</g>
<g style="fill:#000000; fill-opacity:0.0; 
stroke:#000000; stroke-width:100; stroke-opacity:1; 
stroke-linecap:round; stroke-linejoin:round;">
<path d="M76600 26750 A1250 1250 0.0 1 0 76599.2 28251.1 " />
</g>
<g style="fill:#000000; fill-opacity:0.0; 
stroke:#000000; stroke-width:118.11; stroke-opacity:1; 
stroke-linecap:round; stroke-linejoin:round;">
<path d="M68377 30581
L68377 30069
L68255 30069
L68182 30094
L68134 30142
L68109 30191
L68085 30289
L68085 30362
L68109 30459
L68134 30508
L68182 30557
L68255 30581
L68377 30581
" />
<path d="M67914 30069
L67597 30069
L67768 30264
L67695 30264
L67646 30289
L67622 30313
L67597 30362
L67597 30484
L67622 30532
L67646 30557
L67695 30581
L67841 30581
L67890 30557
L67914 30532
" />
<path d="M66094 30736
L65705 30736
" />
<path d="M65900 30931
L65900 30541
" />
<path d="M74877 29331
L74877 28819
L74755 28819
L74682 28844
L74634 28892
L74609 28941
L74585 29039
L74585 29112
L74609 29209
L74634 29258
L74682 29307
L74755 29331
L74877 29331
" />
<path d="M74390 28868
L74365 28844
L74317 28819
L74195 28819
L74146 28844
L74122 28868
L74097 28917
L74097 28965
L74122 29039
L74414 29331
L74097 29331
" />
<path d="M74494 26386
L74105 26386
" />
<path d="M74300 26581
L74300 26191
" />
<g >
</g>
</g> 
</svg>
