G04 #@! TF.GenerationSoftware,KiCad,Pcbnew,(5.1.0)-1*
G04 #@! TF.CreationDate,2020-11-16T17:40:50+00:00*
G04 #@! TF.ProjectId,Jam Jar Solar PCB,4a616d20-4a61-4722-9053-6f6c61722050,rev?*
G04 #@! TF.SameCoordinates,Original*
G04 #@! TF.FileFunction,Soldermask,Top*
G04 #@! TF.FilePolarity,Negative*
%FSLAX46Y46*%
G04 Gerber Fmt 4.6, Leading zero omitted, Abs format (unit mm)*
G04 Created by KiCad (PCBNEW (5.1.0)-1) date 2020-11-16 17:40:50*
%MOMM*%
%LPD*%
G04 APERTURE LIST*
%ADD10C,0.500000*%
G04 APERTURE END LIST*
D10*
G36*
X182374580Y-82785371D02*
G01*
X182503961Y-82798114D01*
X182752971Y-82873651D01*
X182752973Y-82873652D01*
X182982458Y-82996314D01*
X183183608Y-83161392D01*
X183348685Y-83362541D01*
X183471349Y-83592029D01*
X183546886Y-83841039D01*
X183572391Y-84100000D01*
X183546886Y-84358961D01*
X183471349Y-84607971D01*
X183471348Y-84607973D01*
X183348686Y-84837458D01*
X183183608Y-85038608D01*
X182982458Y-85203686D01*
X182752973Y-85326348D01*
X182752971Y-85326349D01*
X182503961Y-85401886D01*
X182374580Y-85414629D01*
X182309891Y-85421000D01*
X179640109Y-85421000D01*
X179575420Y-85414629D01*
X179446039Y-85401886D01*
X179197029Y-85326349D01*
X179197027Y-85326348D01*
X178967542Y-85203686D01*
X178766392Y-85038608D01*
X178601314Y-84837458D01*
X178478652Y-84607973D01*
X178478651Y-84607971D01*
X178403114Y-84358961D01*
X178377609Y-84100000D01*
X178403114Y-83841039D01*
X178478651Y-83592029D01*
X178601315Y-83362541D01*
X178766392Y-83161392D01*
X178967542Y-82996314D01*
X179197027Y-82873652D01*
X179197029Y-82873651D01*
X179446039Y-82798114D01*
X179575420Y-82785371D01*
X179640109Y-82779000D01*
X182309891Y-82779000D01*
X182374580Y-82785371D01*
X182374580Y-82785371D01*
G37*
G36*
X190811231Y-80254003D02*
G01*
X191005412Y-80334436D01*
X191005414Y-80334437D01*
X191180173Y-80451207D01*
X191328793Y-80599827D01*
X191445563Y-80774586D01*
X191445564Y-80774588D01*
X191525997Y-80968769D01*
X191567000Y-81174908D01*
X191567000Y-81385092D01*
X191525997Y-81591231D01*
X191445564Y-81785412D01*
X191445563Y-81785414D01*
X191328793Y-81960173D01*
X191180173Y-82108793D01*
X191005414Y-82225563D01*
X191005413Y-82225564D01*
X191005412Y-82225564D01*
X190811231Y-82305997D01*
X190605092Y-82347000D01*
X190394908Y-82347000D01*
X190188769Y-82305997D01*
X189994588Y-82225564D01*
X189994587Y-82225564D01*
X189994586Y-82225563D01*
X189819827Y-82108793D01*
X189671207Y-81960173D01*
X189554437Y-81785414D01*
X189554436Y-81785412D01*
X189474003Y-81591231D01*
X189433000Y-81385092D01*
X189433000Y-81174908D01*
X189474003Y-80968769D01*
X189554436Y-80774588D01*
X189554437Y-80774586D01*
X189671207Y-80599827D01*
X189819827Y-80451207D01*
X189994586Y-80334437D01*
X189994588Y-80334436D01*
X190188769Y-80254003D01*
X190394908Y-80213000D01*
X190605092Y-80213000D01*
X190811231Y-80254003D01*
X190811231Y-80254003D01*
G37*
G36*
X194107000Y-82347000D02*
G01*
X191973000Y-82347000D01*
X191973000Y-80213000D01*
X194107000Y-80213000D01*
X194107000Y-82347000D01*
X194107000Y-82347000D01*
G37*
G36*
X172517000Y-82347000D02*
G01*
X170383000Y-82347000D01*
X170383000Y-80213000D01*
X172517000Y-80213000D01*
X172517000Y-82347000D01*
X172517000Y-82347000D01*
G37*
G36*
X169221231Y-80254003D02*
G01*
X169415412Y-80334436D01*
X169415414Y-80334437D01*
X169590173Y-80451207D01*
X169738793Y-80599827D01*
X169855563Y-80774586D01*
X169855564Y-80774588D01*
X169935997Y-80968769D01*
X169977000Y-81174908D01*
X169977000Y-81385092D01*
X169935997Y-81591231D01*
X169855564Y-81785412D01*
X169855563Y-81785414D01*
X169738793Y-81960173D01*
X169590173Y-82108793D01*
X169415414Y-82225563D01*
X169415413Y-82225564D01*
X169415412Y-82225564D01*
X169221231Y-82305997D01*
X169015092Y-82347000D01*
X168804908Y-82347000D01*
X168598769Y-82305997D01*
X168404588Y-82225564D01*
X168404587Y-82225564D01*
X168404586Y-82225563D01*
X168229827Y-82108793D01*
X168081207Y-81960173D01*
X167964437Y-81785414D01*
X167964436Y-81785412D01*
X167884003Y-81591231D01*
X167843000Y-81385092D01*
X167843000Y-81174908D01*
X167884003Y-80968769D01*
X167964436Y-80774588D01*
X167964437Y-80774586D01*
X168081207Y-80599827D01*
X168229827Y-80451207D01*
X168404586Y-80334437D01*
X168404588Y-80334436D01*
X168598769Y-80254003D01*
X168804908Y-80213000D01*
X169015092Y-80213000D01*
X169221231Y-80254003D01*
X169221231Y-80254003D01*
G37*
G36*
X169221231Y-68824003D02*
G01*
X169415412Y-68904436D01*
X169415414Y-68904437D01*
X169590173Y-69021207D01*
X169738793Y-69169827D01*
X169855563Y-69344586D01*
X169855564Y-69344588D01*
X169935997Y-69538769D01*
X169977000Y-69744908D01*
X169977000Y-69955092D01*
X169935997Y-70161231D01*
X169855564Y-70355412D01*
X169855563Y-70355414D01*
X169738793Y-70530173D01*
X169590173Y-70678793D01*
X169415414Y-70795563D01*
X169415413Y-70795564D01*
X169415412Y-70795564D01*
X169221231Y-70875997D01*
X169015092Y-70917000D01*
X168804908Y-70917000D01*
X168598769Y-70875997D01*
X168404588Y-70795564D01*
X168404587Y-70795564D01*
X168404586Y-70795563D01*
X168229827Y-70678793D01*
X168081207Y-70530173D01*
X167964437Y-70355414D01*
X167964436Y-70355412D01*
X167884003Y-70161231D01*
X167843000Y-69955092D01*
X167843000Y-69744908D01*
X167884003Y-69538769D01*
X167964436Y-69344588D01*
X167964437Y-69344586D01*
X168081207Y-69169827D01*
X168229827Y-69021207D01*
X168404586Y-68904437D01*
X168404588Y-68904436D01*
X168598769Y-68824003D01*
X168804908Y-68783000D01*
X169015092Y-68783000D01*
X169221231Y-68824003D01*
X169221231Y-68824003D01*
G37*
G36*
X172517000Y-70917000D02*
G01*
X170383000Y-70917000D01*
X170383000Y-68783000D01*
X172517000Y-68783000D01*
X172517000Y-70917000D01*
X172517000Y-70917000D01*
G37*
G36*
X190811231Y-68824003D02*
G01*
X191005412Y-68904436D01*
X191005414Y-68904437D01*
X191180173Y-69021207D01*
X191328793Y-69169827D01*
X191445563Y-69344586D01*
X191445564Y-69344588D01*
X191525997Y-69538769D01*
X191567000Y-69744908D01*
X191567000Y-69955092D01*
X191525997Y-70161231D01*
X191445564Y-70355412D01*
X191445563Y-70355414D01*
X191328793Y-70530173D01*
X191180173Y-70678793D01*
X191005414Y-70795563D01*
X191005413Y-70795564D01*
X191005412Y-70795564D01*
X190811231Y-70875997D01*
X190605092Y-70917000D01*
X190394908Y-70917000D01*
X190188769Y-70875997D01*
X189994588Y-70795564D01*
X189994587Y-70795564D01*
X189994586Y-70795563D01*
X189819827Y-70678793D01*
X189671207Y-70530173D01*
X189554437Y-70355414D01*
X189554436Y-70355412D01*
X189474003Y-70161231D01*
X189433000Y-69955092D01*
X189433000Y-69744908D01*
X189474003Y-69538769D01*
X189554436Y-69344588D01*
X189554437Y-69344586D01*
X189671207Y-69169827D01*
X189819827Y-69021207D01*
X189994586Y-68904437D01*
X189994588Y-68904436D01*
X190188769Y-68824003D01*
X190394908Y-68783000D01*
X190605092Y-68783000D01*
X190811231Y-68824003D01*
X190811231Y-68824003D01*
G37*
G36*
X194107000Y-70917000D02*
G01*
X191973000Y-70917000D01*
X191973000Y-68783000D01*
X194107000Y-68783000D01*
X194107000Y-70917000D01*
X194107000Y-70917000D01*
G37*
G36*
X170491231Y-63744003D02*
G01*
X170685412Y-63824436D01*
X170685414Y-63824437D01*
X170860173Y-63941207D01*
X171008793Y-64089827D01*
X171125563Y-64264586D01*
X171125564Y-64264588D01*
X171205997Y-64458769D01*
X171247000Y-64664908D01*
X171247000Y-64875092D01*
X171205997Y-65081231D01*
X171125564Y-65275412D01*
X171125563Y-65275414D01*
X171008793Y-65450173D01*
X170860173Y-65598793D01*
X170685414Y-65715563D01*
X170685413Y-65715564D01*
X170685412Y-65715564D01*
X170491231Y-65795997D01*
X170285092Y-65837000D01*
X170074908Y-65837000D01*
X169868769Y-65795997D01*
X169674588Y-65715564D01*
X169674587Y-65715564D01*
X169674586Y-65715563D01*
X169499827Y-65598793D01*
X169351207Y-65450173D01*
X169234437Y-65275414D01*
X169234436Y-65275412D01*
X169154003Y-65081231D01*
X169113000Y-64875092D01*
X169113000Y-64664908D01*
X169154003Y-64458769D01*
X169234436Y-64264588D01*
X169234437Y-64264586D01*
X169351207Y-64089827D01*
X169499827Y-63941207D01*
X169674586Y-63824437D01*
X169674588Y-63824436D01*
X169868769Y-63744003D01*
X170074908Y-63703000D01*
X170285092Y-63703000D01*
X170491231Y-63744003D01*
X170491231Y-63744003D01*
G37*
G36*
X192594890Y-60864017D02*
G01*
X192713364Y-60913091D01*
X192819988Y-60984335D01*
X192910665Y-61075012D01*
X192981909Y-61181636D01*
X193030983Y-61300110D01*
X193056000Y-61425882D01*
X193056000Y-61554118D01*
X193030983Y-61679890D01*
X192981909Y-61798364D01*
X192910665Y-61904988D01*
X192819988Y-61995665D01*
X192713364Y-62066909D01*
X192713363Y-62066910D01*
X192713362Y-62066910D01*
X192594890Y-62115983D01*
X192469119Y-62141000D01*
X192340881Y-62141000D01*
X192215110Y-62115983D01*
X192096638Y-62066910D01*
X192096637Y-62066910D01*
X192096636Y-62066909D01*
X191990012Y-61995665D01*
X191899335Y-61904988D01*
X191828091Y-61798364D01*
X191779017Y-61679890D01*
X191754000Y-61554118D01*
X191754000Y-61425882D01*
X191779017Y-61300110D01*
X191828091Y-61181636D01*
X191899335Y-61075012D01*
X191990012Y-60984335D01*
X192096636Y-60913091D01*
X192215110Y-60864017D01*
X192340881Y-60839000D01*
X192469119Y-60839000D01*
X192594890Y-60864017D01*
X192594890Y-60864017D01*
G37*
G36*
X192594890Y-59064017D02*
G01*
X192713364Y-59113091D01*
X192819988Y-59184335D01*
X192910665Y-59275012D01*
X192981909Y-59381636D01*
X193030983Y-59500110D01*
X193056000Y-59625882D01*
X193056000Y-59754118D01*
X193030983Y-59879890D01*
X192981909Y-59998364D01*
X192910665Y-60104988D01*
X192819988Y-60195665D01*
X192713364Y-60266909D01*
X192713363Y-60266910D01*
X192713362Y-60266910D01*
X192594890Y-60315983D01*
X192469119Y-60341000D01*
X192340881Y-60341000D01*
X192215110Y-60315983D01*
X192096638Y-60266910D01*
X192096637Y-60266910D01*
X192096636Y-60266909D01*
X191990012Y-60195665D01*
X191899335Y-60104988D01*
X191828091Y-59998364D01*
X191779017Y-59879890D01*
X191754000Y-59754118D01*
X191754000Y-59625882D01*
X191779017Y-59500110D01*
X191828091Y-59381636D01*
X191899335Y-59275012D01*
X191990012Y-59184335D01*
X192096636Y-59113091D01*
X192215110Y-59064017D01*
X192340881Y-59039000D01*
X192469119Y-59039000D01*
X192594890Y-59064017D01*
X192594890Y-59064017D01*
G37*
G36*
X192594890Y-57264017D02*
G01*
X192713364Y-57313091D01*
X192819988Y-57384335D01*
X192910665Y-57475012D01*
X192981909Y-57581636D01*
X193030983Y-57700110D01*
X193056000Y-57825882D01*
X193056000Y-57954118D01*
X193030983Y-58079890D01*
X192981909Y-58198364D01*
X192910665Y-58304988D01*
X192819988Y-58395665D01*
X192713364Y-58466909D01*
X192713363Y-58466910D01*
X192713362Y-58466910D01*
X192594890Y-58515983D01*
X192469119Y-58541000D01*
X192340881Y-58541000D01*
X192215110Y-58515983D01*
X192096638Y-58466910D01*
X192096637Y-58466910D01*
X192096636Y-58466909D01*
X191990012Y-58395665D01*
X191899335Y-58304988D01*
X191828091Y-58198364D01*
X191779017Y-58079890D01*
X191754000Y-57954118D01*
X191754000Y-57825882D01*
X191779017Y-57700110D01*
X191828091Y-57581636D01*
X191899335Y-57475012D01*
X191990012Y-57384335D01*
X192096636Y-57313091D01*
X192215110Y-57264017D01*
X192340881Y-57239000D01*
X192469119Y-57239000D01*
X192594890Y-57264017D01*
X192594890Y-57264017D01*
G37*
G36*
X193056000Y-56741000D02*
G01*
X191754000Y-56741000D01*
X191754000Y-55439000D01*
X193056000Y-55439000D01*
X193056000Y-56741000D01*
X193056000Y-56741000D01*
G37*
G36*
X170491231Y-53584003D02*
G01*
X170685412Y-53664436D01*
X170685414Y-53664437D01*
X170860173Y-53781207D01*
X171008793Y-53929827D01*
X171125563Y-54104586D01*
X171125564Y-54104588D01*
X171205997Y-54298769D01*
X171247000Y-54504908D01*
X171247000Y-54715092D01*
X171205997Y-54921231D01*
X171125564Y-55115412D01*
X171125563Y-55115414D01*
X171008793Y-55290173D01*
X170860173Y-55438793D01*
X170685414Y-55555563D01*
X170685413Y-55555564D01*
X170685412Y-55555564D01*
X170491231Y-55635997D01*
X170285092Y-55677000D01*
X170074908Y-55677000D01*
X169868769Y-55635997D01*
X169674588Y-55555564D01*
X169674587Y-55555564D01*
X169674586Y-55555563D01*
X169499827Y-55438793D01*
X169351207Y-55290173D01*
X169234437Y-55115414D01*
X169234436Y-55115412D01*
X169154003Y-54921231D01*
X169113000Y-54715092D01*
X169113000Y-54504908D01*
X169154003Y-54298769D01*
X169234436Y-54104588D01*
X169234437Y-54104586D01*
X169351207Y-53929827D01*
X169499827Y-53781207D01*
X169674586Y-53664437D01*
X169674588Y-53664436D01*
X169868769Y-53584003D01*
X170074908Y-53543000D01*
X170285092Y-53543000D01*
X170491231Y-53584003D01*
X170491231Y-53584003D01*
G37*
G36*
X182374580Y-36785371D02*
G01*
X182503961Y-36798114D01*
X182752971Y-36873651D01*
X182752973Y-36873652D01*
X182982458Y-36996314D01*
X183183608Y-37161392D01*
X183348686Y-37362542D01*
X183471348Y-37592027D01*
X183471349Y-37592029D01*
X183546886Y-37841039D01*
X183572391Y-38100000D01*
X183546886Y-38358961D01*
X183540200Y-38381000D01*
X183471348Y-38607973D01*
X183348686Y-38837458D01*
X183183608Y-39038608D01*
X182982458Y-39203686D01*
X182752973Y-39326348D01*
X182752971Y-39326349D01*
X182503961Y-39401886D01*
X182374580Y-39414629D01*
X182309891Y-39421000D01*
X179640109Y-39421000D01*
X179575420Y-39414629D01*
X179446039Y-39401886D01*
X179197029Y-39326349D01*
X179197027Y-39326348D01*
X178967542Y-39203686D01*
X178766392Y-39038608D01*
X178601314Y-38837458D01*
X178478652Y-38607973D01*
X178409800Y-38381000D01*
X178403114Y-38358961D01*
X178377609Y-38100000D01*
X178403114Y-37841039D01*
X178478651Y-37592029D01*
X178478652Y-37592027D01*
X178601314Y-37362542D01*
X178766392Y-37161392D01*
X178967542Y-36996314D01*
X179197027Y-36873652D01*
X179197029Y-36873651D01*
X179446039Y-36798114D01*
X179575420Y-36785371D01*
X179640109Y-36779000D01*
X182309891Y-36779000D01*
X182374580Y-36785371D01*
X182374580Y-36785371D01*
G37*
G36*
X169826000Y-36547173D02*
G01*
X169822798Y-36553164D01*
X169815685Y-36576613D01*
X169813283Y-36600999D01*
X169815684Y-36625380D01*
X169826000Y-36677240D01*
X169826000Y-36982760D01*
X169766396Y-37282410D01*
X169649479Y-37564674D01*
X169479741Y-37818705D01*
X169263705Y-38034741D01*
X169009674Y-38204479D01*
X168727410Y-38321396D01*
X168577585Y-38351198D01*
X168427761Y-38381000D01*
X168122239Y-38381000D01*
X167972415Y-38351198D01*
X167822590Y-38321396D01*
X167540326Y-38204479D01*
X167286295Y-38034741D01*
X167070259Y-37818705D01*
X166900521Y-37564674D01*
X166783604Y-37282410D01*
X166724000Y-36982760D01*
X166724000Y-36677240D01*
X166734316Y-36625380D01*
X166736717Y-36601000D01*
X166734315Y-36576614D01*
X166727202Y-36553165D01*
X166724000Y-36547174D01*
X166724000Y-33374000D01*
X169826000Y-33374000D01*
X169826000Y-36547173D01*
X169826000Y-36547173D01*
G37*
G36*
X173636000Y-38381000D02*
G01*
X170534000Y-38381000D01*
X170534000Y-33374000D01*
X173636000Y-33374000D01*
X173636000Y-38381000D01*
X173636000Y-38381000D01*
G37*
G36*
X185518254Y-29489335D02*
G01*
X185683289Y-29539398D01*
X185848321Y-29589460D01*
X186152510Y-29752052D01*
X186419135Y-29970865D01*
X186637948Y-30237490D01*
X186781945Y-30506890D01*
X186800539Y-30541677D01*
X186900665Y-30871746D01*
X186934472Y-31215000D01*
X186900665Y-31558254D01*
X186900664Y-31558256D01*
X186800540Y-31888321D01*
X186637948Y-32192510D01*
X186419135Y-32459135D01*
X186152510Y-32677948D01*
X185848321Y-32840540D01*
X185683288Y-32890602D01*
X185518254Y-32940665D01*
X185261021Y-32966000D01*
X176488979Y-32966000D01*
X176231746Y-32940665D01*
X176066712Y-32890602D01*
X175901679Y-32840540D01*
X175597490Y-32677948D01*
X175330865Y-32459135D01*
X175112052Y-32192510D01*
X174949460Y-31888321D01*
X174849336Y-31558256D01*
X174849335Y-31558254D01*
X174815528Y-31215000D01*
X174849335Y-30871746D01*
X174949461Y-30541677D01*
X174968055Y-30506890D01*
X175112052Y-30237490D01*
X175330865Y-29970865D01*
X175597490Y-29752052D01*
X175901679Y-29589460D01*
X176066711Y-29539398D01*
X176231746Y-29489335D01*
X176488979Y-29464000D01*
X185261021Y-29464000D01*
X185518254Y-29489335D01*
X185518254Y-29489335D01*
G37*
M02*
