G04 #@! TF.GenerationSoftware,KiCad,Pcbnew,(5.1.0)-1*
G04 #@! TF.CreationDate,2020-11-16T17:40:50+00:00*
G04 #@! TF.ProjectId,Jam Jar Solar PCB,4a616d20-4a61-4722-9053-6f6c61722050,rev?*
G04 #@! TF.SameCoordinates,Original*
G04 #@! TF.FileFunction,Legend,Bot*
G04 #@! TF.FilePolarity,Positive*
%FSLAX46Y46*%
G04 Gerber Fmt 4.6, Leading zero omitted, Abs format (unit mm)*
G04 Created by KiCad (PCBNEW (5.1.0)-1) date 2020-11-16 17:40:50*
%MOMM*%
%LPD*%
G04 APERTURE LIST*
%ADD10C,0.254000*%
%ADD11C,0.203200*%
%ADD12C,0.300000*%
G04 APERTURE END LIST*
D10*
X172971997Y-83187668D02*
G75*
G02X172974000Y-79375000I-2537997J1907668D01*
G01*
D11*
X173024800Y-79375000D02*
X173024800Y-83185000D01*
D10*
X194561997Y-71757668D02*
G75*
G02X194564000Y-67945000I-2537997J1907668D01*
G01*
D11*
X194614800Y-67945000D02*
X194614800Y-71755000D01*
D12*
X173679523Y-77677095D02*
X173679523Y-76377095D01*
X173370000Y-76377095D01*
X173184285Y-76439000D01*
X173060476Y-76562809D01*
X172998571Y-76686619D01*
X172936666Y-76934238D01*
X172936666Y-77119952D01*
X172998571Y-77367571D01*
X173060476Y-77491380D01*
X173184285Y-77615190D01*
X173370000Y-77677095D01*
X173679523Y-77677095D01*
X172503333Y-76377095D02*
X171698571Y-76377095D01*
X172131904Y-76872333D01*
X171946190Y-76872333D01*
X171822380Y-76934238D01*
X171760476Y-76996142D01*
X171698571Y-77119952D01*
X171698571Y-77429476D01*
X171760476Y-77553285D01*
X171822380Y-77615190D01*
X171946190Y-77677095D01*
X172317619Y-77677095D01*
X172441428Y-77615190D01*
X172503333Y-77553285D01*
X167881238Y-78070857D02*
X166890761Y-78070857D01*
X167386000Y-78566095D02*
X167386000Y-77575619D01*
X190189523Y-74502095D02*
X190189523Y-73202095D01*
X189880000Y-73202095D01*
X189694285Y-73264000D01*
X189570476Y-73387809D01*
X189508571Y-73511619D01*
X189446666Y-73759238D01*
X189446666Y-73944952D01*
X189508571Y-74192571D01*
X189570476Y-74316380D01*
X189694285Y-74440190D01*
X189880000Y-74502095D01*
X190189523Y-74502095D01*
X188951428Y-73325904D02*
X188889523Y-73264000D01*
X188765714Y-73202095D01*
X188456190Y-73202095D01*
X188332380Y-73264000D01*
X188270476Y-73325904D01*
X188208571Y-73449714D01*
X188208571Y-73573523D01*
X188270476Y-73759238D01*
X189013333Y-74502095D01*
X188208571Y-74502095D01*
X189217238Y-67021857D02*
X188226761Y-67021857D01*
X188722000Y-67517095D02*
X188722000Y-66526619D01*
M02*
