G04 #@! TF.GenerationSoftware,KiCad,Pcbnew,(5.1.0)-1*
G04 #@! TF.CreationDate,2020-11-16T17:40:51+00:00*
G04 #@! TF.ProjectId,Jam Jar Solar PCB,4a616d20-4a61-4722-9053-6f6c61722050,rev?*
G04 #@! TF.SameCoordinates,Original*
G04 #@! TF.FileFunction,Soldermask,Bot*
G04 #@! TF.FilePolarity,Negative*
%FSLAX46Y46*%
G04 Gerber Fmt 4.6, Leading zero omitted, Abs format (unit mm)*
G04 Created by KiCad (PCBNEW (5.1.0)-1) date 2020-11-16 17:40:51*
%MOMM*%
%LPD*%
G04 APERTURE LIST*
%ADD10C,0.010000*%
%ADD11C,0.500000*%
G04 APERTURE END LIST*
D10*
G36*
X181629120Y-63466846D02*
G01*
X181613962Y-63519066D01*
X181596520Y-63634552D01*
X181578636Y-63792003D01*
X181562156Y-63970120D01*
X181548924Y-64147603D01*
X181540785Y-64303150D01*
X181539583Y-64415464D01*
X181543500Y-64455620D01*
X181590409Y-64541237D01*
X181689604Y-64609513D01*
X181850822Y-64664590D01*
X182083799Y-64710608D01*
X182174442Y-64724006D01*
X182419648Y-64754499D01*
X182597962Y-64766701D01*
X182725252Y-64760178D01*
X182817388Y-64734493D01*
X182869366Y-64704950D01*
X182943386Y-64621119D01*
X183000778Y-64479857D01*
X183044656Y-64271326D01*
X183069890Y-64071500D01*
X183087247Y-63918049D01*
X183104624Y-63787532D01*
X183114757Y-63726668D01*
X183115940Y-63668271D01*
X183074786Y-63637072D01*
X182971336Y-63619567D01*
X182953781Y-63617744D01*
X182837057Y-63615329D01*
X182759179Y-63630912D01*
X182746834Y-63640427D01*
X182729695Y-63700268D01*
X182710114Y-63819753D01*
X182692082Y-63974103D01*
X182690644Y-63989153D01*
X182667381Y-64191392D01*
X182634254Y-64321642D01*
X182578106Y-64392514D01*
X182485779Y-64416620D01*
X182344113Y-64406574D01*
X182266977Y-64395242D01*
X182080174Y-64357095D01*
X181968293Y-64309372D01*
X181921656Y-64245900D01*
X181925429Y-64177334D01*
X181937752Y-64105151D01*
X181953756Y-63976121D01*
X181970039Y-63817764D01*
X181970490Y-63812918D01*
X181998387Y-63512003D01*
X181819709Y-63483431D01*
X181707718Y-63468455D01*
X181638292Y-63464721D01*
X181629120Y-63466846D01*
X181629120Y-63466846D01*
G37*
X181629120Y-63466846D02*
X181613962Y-63519066D01*
X181596520Y-63634552D01*
X181578636Y-63792003D01*
X181562156Y-63970120D01*
X181548924Y-64147603D01*
X181540785Y-64303150D01*
X181539583Y-64415464D01*
X181543500Y-64455620D01*
X181590409Y-64541237D01*
X181689604Y-64609513D01*
X181850822Y-64664590D01*
X182083799Y-64710608D01*
X182174442Y-64724006D01*
X182419648Y-64754499D01*
X182597962Y-64766701D01*
X182725252Y-64760178D01*
X182817388Y-64734493D01*
X182869366Y-64704950D01*
X182943386Y-64621119D01*
X183000778Y-64479857D01*
X183044656Y-64271326D01*
X183069890Y-64071500D01*
X183087247Y-63918049D01*
X183104624Y-63787532D01*
X183114757Y-63726668D01*
X183115940Y-63668271D01*
X183074786Y-63637072D01*
X182971336Y-63619567D01*
X182953781Y-63617744D01*
X182837057Y-63615329D01*
X182759179Y-63630912D01*
X182746834Y-63640427D01*
X182729695Y-63700268D01*
X182710114Y-63819753D01*
X182692082Y-63974103D01*
X182690644Y-63989153D01*
X182667381Y-64191392D01*
X182634254Y-64321642D01*
X182578106Y-64392514D01*
X182485779Y-64416620D01*
X182344113Y-64406574D01*
X182266977Y-64395242D01*
X182080174Y-64357095D01*
X181968293Y-64309372D01*
X181921656Y-64245900D01*
X181925429Y-64177334D01*
X181937752Y-64105151D01*
X181953756Y-63976121D01*
X181970039Y-63817764D01*
X181970490Y-63812918D01*
X181998387Y-63512003D01*
X181819709Y-63483431D01*
X181707718Y-63468455D01*
X181638292Y-63464721D01*
X181629120Y-63466846D01*
G36*
X181176043Y-63479416D02*
G01*
X181063220Y-63489591D01*
X180896851Y-63507350D01*
X180692156Y-63531126D01*
X180603220Y-63541937D01*
X180326912Y-63578269D01*
X180124264Y-63613634D01*
X179984596Y-63654513D01*
X179897230Y-63707385D01*
X179851485Y-63778730D01*
X179836683Y-63875028D01*
X179842145Y-64002759D01*
X179842222Y-64003693D01*
X179872130Y-64179453D01*
X179925599Y-64278706D01*
X179933792Y-64285447D01*
X179977345Y-64339234D01*
X179961533Y-64366268D01*
X179931580Y-64425319D01*
X179917822Y-64532903D01*
X179922024Y-64654123D01*
X179942362Y-64745371D01*
X179965743Y-64787665D01*
X180008011Y-64803085D01*
X180092576Y-64794412D01*
X180191833Y-64775011D01*
X180283324Y-64741886D01*
X180316215Y-64675372D01*
X180318833Y-64624879D01*
X180327130Y-64553676D01*
X180361899Y-64504279D01*
X180437957Y-64469656D01*
X180570118Y-64442777D01*
X180752750Y-64418991D01*
X180975000Y-64392989D01*
X180975000Y-64692776D01*
X181154916Y-64663052D01*
X181269141Y-64641318D01*
X181342060Y-64622082D01*
X181352572Y-64616898D01*
X181353445Y-64572409D01*
X181345219Y-64463035D01*
X181330107Y-64307802D01*
X181310324Y-64125731D01*
X181300943Y-64045643D01*
X180916744Y-64045643D01*
X180890888Y-64081626D01*
X180808431Y-64098575D01*
X180752943Y-64103994D01*
X180540971Y-64121269D01*
X180398218Y-64127050D01*
X180309875Y-64120200D01*
X180261129Y-64099584D01*
X180237308Y-64064421D01*
X180232444Y-63985385D01*
X180247801Y-63956265D01*
X180300219Y-63935666D01*
X180407132Y-63909965D01*
X180542700Y-63883639D01*
X180681084Y-63861168D01*
X180796443Y-63847028D01*
X180862938Y-63845698D01*
X180869542Y-63848526D01*
X180884782Y-63893277D01*
X180905738Y-63973807D01*
X180916744Y-64045643D01*
X181300943Y-64045643D01*
X181288082Y-63935848D01*
X181265595Y-63757175D01*
X181245077Y-63608735D01*
X181228740Y-63509553D01*
X181220100Y-63478392D01*
X181176043Y-63479416D01*
X181176043Y-63479416D01*
G37*
X181176043Y-63479416D02*
X181063220Y-63489591D01*
X180896851Y-63507350D01*
X180692156Y-63531126D01*
X180603220Y-63541937D01*
X180326912Y-63578269D01*
X180124264Y-63613634D01*
X179984596Y-63654513D01*
X179897230Y-63707385D01*
X179851485Y-63778730D01*
X179836683Y-63875028D01*
X179842145Y-64002759D01*
X179842222Y-64003693D01*
X179872130Y-64179453D01*
X179925599Y-64278706D01*
X179933792Y-64285447D01*
X179977345Y-64339234D01*
X179961533Y-64366268D01*
X179931580Y-64425319D01*
X179917822Y-64532903D01*
X179922024Y-64654123D01*
X179942362Y-64745371D01*
X179965743Y-64787665D01*
X180008011Y-64803085D01*
X180092576Y-64794412D01*
X180191833Y-64775011D01*
X180283324Y-64741886D01*
X180316215Y-64675372D01*
X180318833Y-64624879D01*
X180327130Y-64553676D01*
X180361899Y-64504279D01*
X180437957Y-64469656D01*
X180570118Y-64442777D01*
X180752750Y-64418991D01*
X180975000Y-64392989D01*
X180975000Y-64692776D01*
X181154916Y-64663052D01*
X181269141Y-64641318D01*
X181342060Y-64622082D01*
X181352572Y-64616898D01*
X181353445Y-64572409D01*
X181345219Y-64463035D01*
X181330107Y-64307802D01*
X181310324Y-64125731D01*
X181300943Y-64045643D01*
X180916744Y-64045643D01*
X180890888Y-64081626D01*
X180808431Y-64098575D01*
X180752943Y-64103994D01*
X180540971Y-64121269D01*
X180398218Y-64127050D01*
X180309875Y-64120200D01*
X180261129Y-64099584D01*
X180237308Y-64064421D01*
X180232444Y-63985385D01*
X180247801Y-63956265D01*
X180300219Y-63935666D01*
X180407132Y-63909965D01*
X180542700Y-63883639D01*
X180681084Y-63861168D01*
X180796443Y-63847028D01*
X180862938Y-63845698D01*
X180869542Y-63848526D01*
X180884782Y-63893277D01*
X180905738Y-63973807D01*
X180916744Y-64045643D01*
X181300943Y-64045643D01*
X181288082Y-63935848D01*
X181265595Y-63757175D01*
X181245077Y-63608735D01*
X181228740Y-63509553D01*
X181220100Y-63478392D01*
X181176043Y-63479416D01*
G36*
X179417700Y-63782086D02*
G01*
X179313018Y-63814303D01*
X179228208Y-63847997D01*
X179195662Y-63872049D01*
X179205112Y-63943013D01*
X179233312Y-64068876D01*
X179275047Y-64231553D01*
X179325096Y-64412960D01*
X179378244Y-64595014D01*
X179429271Y-64759630D01*
X179472961Y-64888724D01*
X179504094Y-64964212D01*
X179514277Y-64976317D01*
X179580061Y-64962157D01*
X179688947Y-64933898D01*
X179716031Y-64926408D01*
X179824270Y-64883662D01*
X179858213Y-64833238D01*
X179855448Y-64815341D01*
X179836901Y-64749866D01*
X179801264Y-64621565D01*
X179753753Y-64449289D01*
X179702351Y-64262000D01*
X179649580Y-64071818D01*
X179604507Y-63914096D01*
X179571922Y-63805272D01*
X179556625Y-63761801D01*
X179509740Y-63761275D01*
X179417700Y-63782086D01*
X179417700Y-63782086D01*
G37*
X179417700Y-63782086D02*
X179313018Y-63814303D01*
X179228208Y-63847997D01*
X179195662Y-63872049D01*
X179205112Y-63943013D01*
X179233312Y-64068876D01*
X179275047Y-64231553D01*
X179325096Y-64412960D01*
X179378244Y-64595014D01*
X179429271Y-64759630D01*
X179472961Y-64888724D01*
X179504094Y-64964212D01*
X179514277Y-64976317D01*
X179580061Y-64962157D01*
X179688947Y-64933898D01*
X179716031Y-64926408D01*
X179824270Y-64883662D01*
X179858213Y-64833238D01*
X179855448Y-64815341D01*
X179836901Y-64749866D01*
X179801264Y-64621565D01*
X179753753Y-64449289D01*
X179702351Y-64262000D01*
X179649580Y-64071818D01*
X179604507Y-63914096D01*
X179571922Y-63805272D01*
X179556625Y-63761801D01*
X179509740Y-63761275D01*
X179417700Y-63782086D01*
G36*
X183545649Y-63917289D02*
G01*
X183479467Y-63987803D01*
X183417679Y-64079029D01*
X183388737Y-64146757D01*
X183388430Y-64151293D01*
X183425713Y-64203405D01*
X183515698Y-64253550D01*
X183626944Y-64290382D01*
X183728007Y-64302560D01*
X183775139Y-64290801D01*
X183848662Y-64284087D01*
X183967964Y-64309353D01*
X184105480Y-64356277D01*
X184233647Y-64414537D01*
X184324901Y-64473813D01*
X184350776Y-64506348D01*
X184349155Y-64576289D01*
X184320788Y-64690203D01*
X184299807Y-64750430D01*
X184243391Y-64867239D01*
X184175228Y-64927301D01*
X184079724Y-64932914D01*
X183941290Y-64886378D01*
X183808341Y-64822917D01*
X183665020Y-64739529D01*
X183597335Y-64671316D01*
X183590519Y-64634246D01*
X183563834Y-64569534D01*
X183483782Y-64501555D01*
X183378689Y-64449280D01*
X183287552Y-64431334D01*
X183234551Y-64467659D01*
X183184332Y-64557099D01*
X183177017Y-64577427D01*
X183152010Y-64691002D01*
X183165114Y-64787483D01*
X183224816Y-64875341D01*
X183339599Y-64963047D01*
X183517948Y-65059071D01*
X183768347Y-65171885D01*
X183775523Y-65174959D01*
X183956831Y-65244349D01*
X184127247Y-65295363D01*
X184257370Y-65319482D01*
X184277298Y-65320334D01*
X184396216Y-65307720D01*
X184473696Y-65254501D01*
X184524205Y-65182750D01*
X184603126Y-65036040D01*
X184678884Y-64864216D01*
X184740879Y-64695000D01*
X184778512Y-64556114D01*
X184785000Y-64500646D01*
X184755169Y-64402630D01*
X184688853Y-64313434D01*
X184582016Y-64236847D01*
X184419790Y-64147352D01*
X184227864Y-64056433D01*
X184031926Y-63975571D01*
X183857666Y-63916248D01*
X183744050Y-63891135D01*
X183623402Y-63886506D01*
X183545649Y-63917289D01*
X183545649Y-63917289D01*
G37*
X183545649Y-63917289D02*
X183479467Y-63987803D01*
X183417679Y-64079029D01*
X183388737Y-64146757D01*
X183388430Y-64151293D01*
X183425713Y-64203405D01*
X183515698Y-64253550D01*
X183626944Y-64290382D01*
X183728007Y-64302560D01*
X183775139Y-64290801D01*
X183848662Y-64284087D01*
X183967964Y-64309353D01*
X184105480Y-64356277D01*
X184233647Y-64414537D01*
X184324901Y-64473813D01*
X184350776Y-64506348D01*
X184349155Y-64576289D01*
X184320788Y-64690203D01*
X184299807Y-64750430D01*
X184243391Y-64867239D01*
X184175228Y-64927301D01*
X184079724Y-64932914D01*
X183941290Y-64886378D01*
X183808341Y-64822917D01*
X183665020Y-64739529D01*
X183597335Y-64671316D01*
X183590519Y-64634246D01*
X183563834Y-64569534D01*
X183483782Y-64501555D01*
X183378689Y-64449280D01*
X183287552Y-64431334D01*
X183234551Y-64467659D01*
X183184332Y-64557099D01*
X183177017Y-64577427D01*
X183152010Y-64691002D01*
X183165114Y-64787483D01*
X183224816Y-64875341D01*
X183339599Y-64963047D01*
X183517948Y-65059071D01*
X183768347Y-65171885D01*
X183775523Y-65174959D01*
X183956831Y-65244349D01*
X184127247Y-65295363D01*
X184257370Y-65319482D01*
X184277298Y-65320334D01*
X184396216Y-65307720D01*
X184473696Y-65254501D01*
X184524205Y-65182750D01*
X184603126Y-65036040D01*
X184678884Y-64864216D01*
X184740879Y-64695000D01*
X184778512Y-64556114D01*
X184785000Y-64500646D01*
X184755169Y-64402630D01*
X184688853Y-64313434D01*
X184582016Y-64236847D01*
X184419790Y-64147352D01*
X184227864Y-64056433D01*
X184031926Y-63975571D01*
X183857666Y-63916248D01*
X183744050Y-63891135D01*
X183623402Y-63886506D01*
X183545649Y-63917289D01*
G36*
X185193535Y-65190605D02*
G01*
X185164441Y-65238579D01*
X185140359Y-65314540D01*
X185180389Y-65372070D01*
X185206997Y-65391896D01*
X185291727Y-65456419D01*
X185375766Y-65528155D01*
X185442942Y-65591790D01*
X185477082Y-65632010D01*
X185462333Y-65633665D01*
X185388278Y-65588122D01*
X185285416Y-65516153D01*
X185261682Y-65498555D01*
X185150860Y-65437057D01*
X185057659Y-65422344D01*
X185003058Y-65455449D01*
X184996666Y-65485504D01*
X185027048Y-65532394D01*
X185105684Y-65611653D01*
X185188242Y-65683313D01*
X185287011Y-65770205D01*
X185348008Y-65835644D01*
X185358650Y-65861461D01*
X185317586Y-65848308D01*
X185232591Y-65792629D01*
X185144499Y-65724492D01*
X185006100Y-65628788D01*
X184902234Y-65593284D01*
X184840822Y-65619211D01*
X184827333Y-65675193D01*
X184858381Y-65725001D01*
X184938774Y-65808388D01*
X185049384Y-65909133D01*
X185171081Y-66011017D01*
X185284739Y-66097819D01*
X185371228Y-66153320D01*
X185404836Y-66164900D01*
X185445999Y-66132452D01*
X185522311Y-66048373D01*
X185618883Y-65929330D01*
X185641206Y-65900316D01*
X185841245Y-65637834D01*
X185704706Y-65522641D01*
X185584112Y-65425229D01*
X185442145Y-65316344D01*
X185390343Y-65278097D01*
X185285734Y-65204133D01*
X185227473Y-65176253D01*
X185193535Y-65190605D01*
X185193535Y-65190605D01*
G37*
X185193535Y-65190605D02*
X185164441Y-65238579D01*
X185140359Y-65314540D01*
X185180389Y-65372070D01*
X185206997Y-65391896D01*
X185291727Y-65456419D01*
X185375766Y-65528155D01*
X185442942Y-65591790D01*
X185477082Y-65632010D01*
X185462333Y-65633665D01*
X185388278Y-65588122D01*
X185285416Y-65516153D01*
X185261682Y-65498555D01*
X185150860Y-65437057D01*
X185057659Y-65422344D01*
X185003058Y-65455449D01*
X184996666Y-65485504D01*
X185027048Y-65532394D01*
X185105684Y-65611653D01*
X185188242Y-65683313D01*
X185287011Y-65770205D01*
X185348008Y-65835644D01*
X185358650Y-65861461D01*
X185317586Y-65848308D01*
X185232591Y-65792629D01*
X185144499Y-65724492D01*
X185006100Y-65628788D01*
X184902234Y-65593284D01*
X184840822Y-65619211D01*
X184827333Y-65675193D01*
X184858381Y-65725001D01*
X184938774Y-65808388D01*
X185049384Y-65909133D01*
X185171081Y-66011017D01*
X185284739Y-66097819D01*
X185371228Y-66153320D01*
X185404836Y-66164900D01*
X185445999Y-66132452D01*
X185522311Y-66048373D01*
X185618883Y-65929330D01*
X185641206Y-65900316D01*
X185841245Y-65637834D01*
X185704706Y-65522641D01*
X185584112Y-65425229D01*
X185442145Y-65316344D01*
X185390343Y-65278097D01*
X185285734Y-65204133D01*
X185227473Y-65176253D01*
X185193535Y-65190605D01*
G36*
X176945983Y-65054145D02*
G01*
X176813522Y-65186606D01*
X177073928Y-65475132D01*
X177188673Y-65607374D01*
X177277610Y-65719587D01*
X177327801Y-65794977D01*
X177334333Y-65813240D01*
X177303829Y-65867169D01*
X177225960Y-65953333D01*
X177121189Y-66053291D01*
X177009978Y-66148606D01*
X176912792Y-66220837D01*
X176850092Y-66251547D01*
X176847775Y-66251667D01*
X176796351Y-66222457D01*
X176704720Y-66144353D01*
X176589036Y-66031640D01*
X176534717Y-65974805D01*
X176275726Y-65697943D01*
X176127697Y-65816055D01*
X176038496Y-65892157D01*
X175985770Y-65946663D01*
X175979668Y-65958408D01*
X176008194Y-65995751D01*
X176085782Y-66079235D01*
X176200441Y-66196337D01*
X176334327Y-66328824D01*
X176511623Y-66496219D01*
X176647354Y-66605105D01*
X176756401Y-66660077D01*
X176853644Y-66665730D01*
X176953966Y-66626661D01*
X177063398Y-66553979D01*
X177216150Y-66430048D01*
X177372039Y-66283445D01*
X177517595Y-66129366D01*
X177639346Y-65983011D01*
X177723821Y-65859576D01*
X177757551Y-65774260D01*
X177757666Y-65770695D01*
X177728591Y-65681561D01*
X177649219Y-65550468D01*
X177531330Y-65393031D01*
X177386706Y-65224865D01*
X177227126Y-65061587D01*
X177211646Y-65046925D01*
X177078445Y-64921684D01*
X176945983Y-65054145D01*
X176945983Y-65054145D01*
G37*
X176945983Y-65054145D02*
X176813522Y-65186606D01*
X177073928Y-65475132D01*
X177188673Y-65607374D01*
X177277610Y-65719587D01*
X177327801Y-65794977D01*
X177334333Y-65813240D01*
X177303829Y-65867169D01*
X177225960Y-65953333D01*
X177121189Y-66053291D01*
X177009978Y-66148606D01*
X176912792Y-66220837D01*
X176850092Y-66251547D01*
X176847775Y-66251667D01*
X176796351Y-66222457D01*
X176704720Y-66144353D01*
X176589036Y-66031640D01*
X176534717Y-65974805D01*
X176275726Y-65697943D01*
X176127697Y-65816055D01*
X176038496Y-65892157D01*
X175985770Y-65946663D01*
X175979668Y-65958408D01*
X176008194Y-65995751D01*
X176085782Y-66079235D01*
X176200441Y-66196337D01*
X176334327Y-66328824D01*
X176511623Y-66496219D01*
X176647354Y-66605105D01*
X176756401Y-66660077D01*
X176853644Y-66665730D01*
X176953966Y-66626661D01*
X177063398Y-66553979D01*
X177216150Y-66430048D01*
X177372039Y-66283445D01*
X177517595Y-66129366D01*
X177639346Y-65983011D01*
X177723821Y-65859576D01*
X177757551Y-65774260D01*
X177757666Y-65770695D01*
X177728591Y-65681561D01*
X177649219Y-65550468D01*
X177531330Y-65393031D01*
X177386706Y-65224865D01*
X177227126Y-65061587D01*
X177211646Y-65046925D01*
X177078445Y-64921684D01*
X176945983Y-65054145D01*
G36*
X185891947Y-65804098D02*
G01*
X185805845Y-65873162D01*
X185698838Y-65967986D01*
X185574679Y-66082107D01*
X185505157Y-66158296D01*
X185479970Y-66212948D01*
X185488817Y-66262456D01*
X185499752Y-66284818D01*
X185567585Y-66365390D01*
X185647454Y-66364145D01*
X185715771Y-66315675D01*
X185764108Y-66284110D01*
X185813678Y-66295337D01*
X185887031Y-66358271D01*
X185927591Y-66399412D01*
X186011143Y-66489284D01*
X186042068Y-66544425D01*
X186027272Y-66590307D01*
X185990989Y-66633231D01*
X185938287Y-66700141D01*
X185944723Y-66747523D01*
X185994170Y-66800638D01*
X186037700Y-66838253D01*
X186078406Y-66846822D01*
X186133272Y-66818630D01*
X186219281Y-66745962D01*
X186319583Y-66652814D01*
X186434104Y-66541900D01*
X186519669Y-66452209D01*
X186561240Y-66399705D01*
X186563000Y-66394421D01*
X186537528Y-66343061D01*
X186492344Y-66286093D01*
X186437844Y-66234919D01*
X186392585Y-66240312D01*
X186331101Y-66293122D01*
X186240514Y-66378225D01*
X186098020Y-66231209D01*
X186014356Y-66141232D01*
X185983307Y-66086031D01*
X185997957Y-66040179D01*
X186034344Y-65997103D01*
X186087026Y-65930078D01*
X186080425Y-65882001D01*
X186030655Y-65827508D01*
X185987098Y-65788575D01*
X185946613Y-65778337D01*
X185891947Y-65804098D01*
X185891947Y-65804098D01*
G37*
X185891947Y-65804098D02*
X185805845Y-65873162D01*
X185698838Y-65967986D01*
X185574679Y-66082107D01*
X185505157Y-66158296D01*
X185479970Y-66212948D01*
X185488817Y-66262456D01*
X185499752Y-66284818D01*
X185567585Y-66365390D01*
X185647454Y-66364145D01*
X185715771Y-66315675D01*
X185764108Y-66284110D01*
X185813678Y-66295337D01*
X185887031Y-66358271D01*
X185927591Y-66399412D01*
X186011143Y-66489284D01*
X186042068Y-66544425D01*
X186027272Y-66590307D01*
X185990989Y-66633231D01*
X185938287Y-66700141D01*
X185944723Y-66747523D01*
X185994170Y-66800638D01*
X186037700Y-66838253D01*
X186078406Y-66846822D01*
X186133272Y-66818630D01*
X186219281Y-66745962D01*
X186319583Y-66652814D01*
X186434104Y-66541900D01*
X186519669Y-66452209D01*
X186561240Y-66399705D01*
X186563000Y-66394421D01*
X186537528Y-66343061D01*
X186492344Y-66286093D01*
X186437844Y-66234919D01*
X186392585Y-66240312D01*
X186331101Y-66293122D01*
X186240514Y-66378225D01*
X186098020Y-66231209D01*
X186014356Y-66141232D01*
X185983307Y-66086031D01*
X185997957Y-66040179D01*
X186034344Y-65997103D01*
X186087026Y-65930078D01*
X186080425Y-65882001D01*
X186030655Y-65827508D01*
X185987098Y-65788575D01*
X185946613Y-65778337D01*
X185891947Y-65804098D01*
G36*
X186555430Y-66534633D02*
G01*
X186520007Y-66569961D01*
X186490180Y-66632494D01*
X186525403Y-66698859D01*
X186535991Y-66710878D01*
X186591702Y-66788665D01*
X186590744Y-66853904D01*
X186526376Y-66925575D01*
X186436000Y-66992500D01*
X186318005Y-67086428D01*
X186272006Y-67161031D01*
X186291977Y-67229866D01*
X186317466Y-67259200D01*
X186376259Y-67300184D01*
X186443202Y-67296599D01*
X186538861Y-67243360D01*
X186620100Y-67184326D01*
X186783034Y-67061007D01*
X186882020Y-67174920D01*
X186951610Y-67247329D01*
X186997808Y-67260422D01*
X187049300Y-67221639D01*
X187051984Y-67219007D01*
X187081566Y-67181742D01*
X187085638Y-67138593D01*
X187057599Y-67074074D01*
X186990844Y-66972701D01*
X186885012Y-66827424D01*
X186778305Y-66688080D01*
X186687921Y-66579141D01*
X186626750Y-66515699D01*
X186610214Y-66505667D01*
X186555430Y-66534633D01*
X186555430Y-66534633D01*
G37*
X186555430Y-66534633D02*
X186520007Y-66569961D01*
X186490180Y-66632494D01*
X186525403Y-66698859D01*
X186535991Y-66710878D01*
X186591702Y-66788665D01*
X186590744Y-66853904D01*
X186526376Y-66925575D01*
X186436000Y-66992500D01*
X186318005Y-67086428D01*
X186272006Y-67161031D01*
X186291977Y-67229866D01*
X186317466Y-67259200D01*
X186376259Y-67300184D01*
X186443202Y-67296599D01*
X186538861Y-67243360D01*
X186620100Y-67184326D01*
X186783034Y-67061007D01*
X186882020Y-67174920D01*
X186951610Y-67247329D01*
X186997808Y-67260422D01*
X187049300Y-67221639D01*
X187051984Y-67219007D01*
X187081566Y-67181742D01*
X187085638Y-67138593D01*
X187057599Y-67074074D01*
X186990844Y-66972701D01*
X186885012Y-66827424D01*
X186778305Y-66688080D01*
X186687921Y-66579141D01*
X186626750Y-66515699D01*
X186610214Y-66505667D01*
X186555430Y-66534633D01*
G36*
X175701557Y-66437267D02*
G01*
X175591382Y-66543261D01*
X175471378Y-66698159D01*
X175354408Y-66874313D01*
X175251889Y-67051496D01*
X175175236Y-67209484D01*
X175135866Y-67328049D01*
X175133000Y-67355393D01*
X175162010Y-67462632D01*
X175232031Y-67556458D01*
X175317547Y-67604899D01*
X175333259Y-67606334D01*
X175390270Y-67572438D01*
X175452216Y-67491533D01*
X175501539Y-67394792D01*
X175520677Y-67313391D01*
X175512873Y-67287476D01*
X175516697Y-67234204D01*
X175557930Y-67136862D01*
X175622913Y-67018911D01*
X175697986Y-66903814D01*
X175769491Y-66815029D01*
X175806452Y-66783232D01*
X175856973Y-66770473D01*
X175857733Y-66824775D01*
X175809107Y-66944972D01*
X175711472Y-67129900D01*
X175672821Y-67197584D01*
X175561344Y-67403015D01*
X175501029Y-67556157D01*
X175492025Y-67672294D01*
X175534480Y-67766711D01*
X175628543Y-67854690D01*
X175679569Y-67890774D01*
X175834009Y-67970001D01*
X175962851Y-67974679D01*
X176081943Y-67904084D01*
X176115525Y-67870917D01*
X176219785Y-67744630D01*
X176334900Y-67581284D01*
X176447897Y-67402344D01*
X176545806Y-67229273D01*
X176615653Y-67083535D01*
X176643169Y-66997829D01*
X176646936Y-66890379D01*
X176602432Y-66812552D01*
X176545784Y-66762996D01*
X176425628Y-66668481D01*
X176328694Y-66788157D01*
X176256826Y-66919321D01*
X176255700Y-67007124D01*
X176249763Y-67092681D01*
X176207974Y-67205521D01*
X176142167Y-67328148D01*
X176064178Y-67443064D01*
X175985841Y-67532773D01*
X175918993Y-67579780D01*
X175876306Y-67568002D01*
X175885011Y-67515599D01*
X175929395Y-67408080D01*
X176001616Y-67262956D01*
X176063037Y-67151000D01*
X176152967Y-66986479D01*
X176224116Y-66844228D01*
X176267291Y-66743328D01*
X176276000Y-66708940D01*
X176246107Y-66642334D01*
X176170524Y-66551847D01*
X176126360Y-66510052D01*
X175972116Y-66404627D01*
X175834081Y-66380144D01*
X175701557Y-66437267D01*
X175701557Y-66437267D01*
G37*
X175701557Y-66437267D02*
X175591382Y-66543261D01*
X175471378Y-66698159D01*
X175354408Y-66874313D01*
X175251889Y-67051496D01*
X175175236Y-67209484D01*
X175135866Y-67328049D01*
X175133000Y-67355393D01*
X175162010Y-67462632D01*
X175232031Y-67556458D01*
X175317547Y-67604899D01*
X175333259Y-67606334D01*
X175390270Y-67572438D01*
X175452216Y-67491533D01*
X175501539Y-67394792D01*
X175520677Y-67313391D01*
X175512873Y-67287476D01*
X175516697Y-67234204D01*
X175557930Y-67136862D01*
X175622913Y-67018911D01*
X175697986Y-66903814D01*
X175769491Y-66815029D01*
X175806452Y-66783232D01*
X175856973Y-66770473D01*
X175857733Y-66824775D01*
X175809107Y-66944972D01*
X175711472Y-67129900D01*
X175672821Y-67197584D01*
X175561344Y-67403015D01*
X175501029Y-67556157D01*
X175492025Y-67672294D01*
X175534480Y-67766711D01*
X175628543Y-67854690D01*
X175679569Y-67890774D01*
X175834009Y-67970001D01*
X175962851Y-67974679D01*
X176081943Y-67904084D01*
X176115525Y-67870917D01*
X176219785Y-67744630D01*
X176334900Y-67581284D01*
X176447897Y-67402344D01*
X176545806Y-67229273D01*
X176615653Y-67083535D01*
X176643169Y-66997829D01*
X176646936Y-66890379D01*
X176602432Y-66812552D01*
X176545784Y-66762996D01*
X176425628Y-66668481D01*
X176328694Y-66788157D01*
X176256826Y-66919321D01*
X176255700Y-67007124D01*
X176249763Y-67092681D01*
X176207974Y-67205521D01*
X176142167Y-67328148D01*
X176064178Y-67443064D01*
X175985841Y-67532773D01*
X175918993Y-67579780D01*
X175876306Y-67568002D01*
X175885011Y-67515599D01*
X175929395Y-67408080D01*
X176001616Y-67262956D01*
X176063037Y-67151000D01*
X176152967Y-66986479D01*
X176224116Y-66844228D01*
X176267291Y-66743328D01*
X176276000Y-66708940D01*
X176246107Y-66642334D01*
X176170524Y-66551847D01*
X176126360Y-66510052D01*
X175972116Y-66404627D01*
X175834081Y-66380144D01*
X175701557Y-66437267D01*
G36*
X175173877Y-68397355D02*
G01*
X175143958Y-68457239D01*
X175104802Y-68571177D01*
X175062926Y-68714626D01*
X175024847Y-68863043D01*
X174997082Y-68991886D01*
X174986148Y-69076613D01*
X174988784Y-69094393D01*
X175045174Y-69125360D01*
X175086404Y-69130334D01*
X175138300Y-69106481D01*
X175181314Y-69025255D01*
X175217666Y-68897500D01*
X175253355Y-68771111D01*
X175287512Y-68686552D01*
X175306813Y-68664667D01*
X175314410Y-68700995D01*
X175298720Y-68794542D01*
X175275682Y-68881597D01*
X175239273Y-69041066D01*
X175246001Y-69130125D01*
X175253951Y-69141218D01*
X175323855Y-69170361D01*
X175389604Y-69118048D01*
X175448072Y-68987480D01*
X175466325Y-68923546D01*
X175504450Y-68802334D01*
X175542715Y-68723748D01*
X175562744Y-68707000D01*
X175588654Y-68730149D01*
X175585183Y-68738750D01*
X175564418Y-68793744D01*
X175529311Y-68904198D01*
X175495597Y-69018174D01*
X175424493Y-69265848D01*
X175268163Y-69237534D01*
X175135771Y-69212037D01*
X175023785Y-69188059D01*
X175016583Y-69186354D01*
X174949745Y-69181661D01*
X174924422Y-69226549D01*
X174921333Y-69292225D01*
X174926901Y-69367211D01*
X174955425Y-69415192D01*
X175024637Y-69447445D01*
X175152268Y-69475248D01*
X175230368Y-69488786D01*
X175336460Y-69515909D01*
X175374035Y-69555600D01*
X175371111Y-69587732D01*
X175325044Y-69780562D01*
X175315201Y-69906286D01*
X175341107Y-69974098D01*
X175350725Y-69981640D01*
X175344344Y-70000728D01*
X175262028Y-70013487D01*
X175112358Y-70018645D01*
X175101250Y-70018685D01*
X174794333Y-70019334D01*
X174794333Y-70400334D01*
X174795775Y-70581415D01*
X174802463Y-70693944D01*
X174817940Y-70754015D01*
X174845749Y-70777726D01*
X174878193Y-70781334D01*
X174934166Y-70766319D01*
X174972434Y-70711640D01*
X174998344Y-70602846D01*
X175017246Y-70425486D01*
X175019190Y-70400334D01*
X175026934Y-70322612D01*
X175033056Y-70323162D01*
X175038113Y-70404429D01*
X175040937Y-70495584D01*
X175047507Y-70648193D01*
X175061221Y-70734470D01*
X175087983Y-70772741D01*
X175133000Y-70781334D01*
X175184865Y-70769485D01*
X175210226Y-70719831D01*
X175218060Y-70611212D01*
X175218315Y-70580250D01*
X175227001Y-70446538D01*
X175248183Y-70342419D01*
X175260000Y-70315667D01*
X175283632Y-70306005D01*
X175297163Y-70370358D01*
X175301685Y-70512221D01*
X175311472Y-70679375D01*
X175344109Y-70777149D01*
X175406055Y-70819231D01*
X175448671Y-70823667D01*
X175464495Y-70787215D01*
X175486051Y-70698734D01*
X175487541Y-70691375D01*
X175500525Y-70583875D01*
X175509963Y-70424543D01*
X175513970Y-70246199D01*
X175514000Y-70230369D01*
X175530384Y-69955574D01*
X175576914Y-69625534D01*
X175647860Y-69271445D01*
X175542222Y-69271445D01*
X175536411Y-69296612D01*
X175514000Y-69299667D01*
X175479155Y-69284178D01*
X175485778Y-69271445D01*
X175536017Y-69266378D01*
X175542222Y-69271445D01*
X175647860Y-69271445D01*
X175649651Y-69262510D01*
X175744660Y-68888759D01*
X175761902Y-68828640D01*
X175843703Y-68548113D01*
X175524947Y-68455494D01*
X175370781Y-68415918D01*
X175248440Y-68394204D01*
X175179787Y-68393974D01*
X175173877Y-68397355D01*
X175173877Y-68397355D01*
G37*
X175173877Y-68397355D02*
X175143958Y-68457239D01*
X175104802Y-68571177D01*
X175062926Y-68714626D01*
X175024847Y-68863043D01*
X174997082Y-68991886D01*
X174986148Y-69076613D01*
X174988784Y-69094393D01*
X175045174Y-69125360D01*
X175086404Y-69130334D01*
X175138300Y-69106481D01*
X175181314Y-69025255D01*
X175217666Y-68897500D01*
X175253355Y-68771111D01*
X175287512Y-68686552D01*
X175306813Y-68664667D01*
X175314410Y-68700995D01*
X175298720Y-68794542D01*
X175275682Y-68881597D01*
X175239273Y-69041066D01*
X175246001Y-69130125D01*
X175253951Y-69141218D01*
X175323855Y-69170361D01*
X175389604Y-69118048D01*
X175448072Y-68987480D01*
X175466325Y-68923546D01*
X175504450Y-68802334D01*
X175542715Y-68723748D01*
X175562744Y-68707000D01*
X175588654Y-68730149D01*
X175585183Y-68738750D01*
X175564418Y-68793744D01*
X175529311Y-68904198D01*
X175495597Y-69018174D01*
X175424493Y-69265848D01*
X175268163Y-69237534D01*
X175135771Y-69212037D01*
X175023785Y-69188059D01*
X175016583Y-69186354D01*
X174949745Y-69181661D01*
X174924422Y-69226549D01*
X174921333Y-69292225D01*
X174926901Y-69367211D01*
X174955425Y-69415192D01*
X175024637Y-69447445D01*
X175152268Y-69475248D01*
X175230368Y-69488786D01*
X175336460Y-69515909D01*
X175374035Y-69555600D01*
X175371111Y-69587732D01*
X175325044Y-69780562D01*
X175315201Y-69906286D01*
X175341107Y-69974098D01*
X175350725Y-69981640D01*
X175344344Y-70000728D01*
X175262028Y-70013487D01*
X175112358Y-70018645D01*
X175101250Y-70018685D01*
X174794333Y-70019334D01*
X174794333Y-70400334D01*
X174795775Y-70581415D01*
X174802463Y-70693944D01*
X174817940Y-70754015D01*
X174845749Y-70777726D01*
X174878193Y-70781334D01*
X174934166Y-70766319D01*
X174972434Y-70711640D01*
X174998344Y-70602846D01*
X175017246Y-70425486D01*
X175019190Y-70400334D01*
X175026934Y-70322612D01*
X175033056Y-70323162D01*
X175038113Y-70404429D01*
X175040937Y-70495584D01*
X175047507Y-70648193D01*
X175061221Y-70734470D01*
X175087983Y-70772741D01*
X175133000Y-70781334D01*
X175184865Y-70769485D01*
X175210226Y-70719831D01*
X175218060Y-70611212D01*
X175218315Y-70580250D01*
X175227001Y-70446538D01*
X175248183Y-70342419D01*
X175260000Y-70315667D01*
X175283632Y-70306005D01*
X175297163Y-70370358D01*
X175301685Y-70512221D01*
X175311472Y-70679375D01*
X175344109Y-70777149D01*
X175406055Y-70819231D01*
X175448671Y-70823667D01*
X175464495Y-70787215D01*
X175486051Y-70698734D01*
X175487541Y-70691375D01*
X175500525Y-70583875D01*
X175509963Y-70424543D01*
X175513970Y-70246199D01*
X175514000Y-70230369D01*
X175530384Y-69955574D01*
X175576914Y-69625534D01*
X175647860Y-69271445D01*
X175542222Y-69271445D01*
X175536411Y-69296612D01*
X175514000Y-69299667D01*
X175479155Y-69284178D01*
X175485778Y-69271445D01*
X175536017Y-69266378D01*
X175542222Y-69271445D01*
X175647860Y-69271445D01*
X175649651Y-69262510D01*
X175744660Y-68888759D01*
X175761902Y-68828640D01*
X175843703Y-68548113D01*
X175524947Y-68455494D01*
X175370781Y-68415918D01*
X175248440Y-68394204D01*
X175179787Y-68393974D01*
X175173877Y-68397355D01*
G36*
X175141725Y-70864189D02*
G01*
X175000904Y-70888009D01*
X174885272Y-70922758D01*
X174827913Y-70959839D01*
X174809889Y-71037383D01*
X174809290Y-71169073D01*
X174823046Y-71326909D01*
X174848088Y-71482887D01*
X174881346Y-71609005D01*
X174904635Y-71659750D01*
X174969451Y-71720905D01*
X175050627Y-71754266D01*
X175116973Y-71751341D01*
X175137875Y-71723250D01*
X175136666Y-71629657D01*
X175114975Y-71539474D01*
X175090189Y-71500903D01*
X175060879Y-71448930D01*
X175031703Y-71347464D01*
X175026471Y-71321680D01*
X175012981Y-71215714D01*
X175035056Y-71159766D01*
X175106817Y-71121946D01*
X175116577Y-71118197D01*
X175210433Y-71094214D01*
X175268677Y-71120457D01*
X175290491Y-71146760D01*
X175339869Y-71278593D01*
X175327067Y-71426588D01*
X175295652Y-71495967D01*
X175266505Y-71596545D01*
X175297642Y-71678089D01*
X175378121Y-71712647D01*
X175380488Y-71712667D01*
X175475795Y-71688995D01*
X175530768Y-71611860D01*
X175549042Y-71472086D01*
X175539815Y-71310322D01*
X175517026Y-71120393D01*
X175491256Y-70997494D01*
X175455930Y-70924063D01*
X175404468Y-70882540D01*
X175374811Y-70869776D01*
X175276704Y-70856408D01*
X175141725Y-70864189D01*
X175141725Y-70864189D01*
G37*
X175141725Y-70864189D02*
X175000904Y-70888009D01*
X174885272Y-70922758D01*
X174827913Y-70959839D01*
X174809889Y-71037383D01*
X174809290Y-71169073D01*
X174823046Y-71326909D01*
X174848088Y-71482887D01*
X174881346Y-71609005D01*
X174904635Y-71659750D01*
X174969451Y-71720905D01*
X175050627Y-71754266D01*
X175116973Y-71751341D01*
X175137875Y-71723250D01*
X175136666Y-71629657D01*
X175114975Y-71539474D01*
X175090189Y-71500903D01*
X175060879Y-71448930D01*
X175031703Y-71347464D01*
X175026471Y-71321680D01*
X175012981Y-71215714D01*
X175035056Y-71159766D01*
X175106817Y-71121946D01*
X175116577Y-71118197D01*
X175210433Y-71094214D01*
X175268677Y-71120457D01*
X175290491Y-71146760D01*
X175339869Y-71278593D01*
X175327067Y-71426588D01*
X175295652Y-71495967D01*
X175266505Y-71596545D01*
X175297642Y-71678089D01*
X175378121Y-71712647D01*
X175380488Y-71712667D01*
X175475795Y-71688995D01*
X175530768Y-71611860D01*
X175549042Y-71472086D01*
X175539815Y-71310322D01*
X175517026Y-71120393D01*
X175491256Y-70997494D01*
X175455930Y-70924063D01*
X175404468Y-70882540D01*
X175374811Y-70869776D01*
X175276704Y-70856408D01*
X175141725Y-70864189D01*
G36*
X175024639Y-71833108D02*
G01*
X174948915Y-71852418D01*
X174926001Y-71863719D01*
X174928685Y-71908905D01*
X174949537Y-72016925D01*
X174984663Y-72168871D01*
X175008021Y-72261861D01*
X175056279Y-72441736D01*
X175093727Y-72554471D01*
X175128426Y-72615463D01*
X175168440Y-72640106D01*
X175208158Y-72644000D01*
X175272642Y-72636562D01*
X175295039Y-72598335D01*
X175286289Y-72505453D01*
X175282409Y-72482023D01*
X175255043Y-72320045D01*
X175489515Y-72263796D01*
X175621429Y-72229269D01*
X175688059Y-72198100D01*
X175706983Y-72156266D01*
X175697705Y-72097690D01*
X175674624Y-72011688D01*
X175660759Y-71974743D01*
X175617632Y-71977406D01*
X175517188Y-71997870D01*
X175417339Y-72022433D01*
X175184583Y-72083214D01*
X175145681Y-71950857D01*
X175102357Y-71856399D01*
X175040721Y-71831172D01*
X175024639Y-71833108D01*
X175024639Y-71833108D01*
G37*
X175024639Y-71833108D02*
X174948915Y-71852418D01*
X174926001Y-71863719D01*
X174928685Y-71908905D01*
X174949537Y-72016925D01*
X174984663Y-72168871D01*
X175008021Y-72261861D01*
X175056279Y-72441736D01*
X175093727Y-72554471D01*
X175128426Y-72615463D01*
X175168440Y-72640106D01*
X175208158Y-72644000D01*
X175272642Y-72636562D01*
X175295039Y-72598335D01*
X175286289Y-72505453D01*
X175282409Y-72482023D01*
X175255043Y-72320045D01*
X175489515Y-72263796D01*
X175621429Y-72229269D01*
X175688059Y-72198100D01*
X175706983Y-72156266D01*
X175697705Y-72097690D01*
X175674624Y-72011688D01*
X175660759Y-71974743D01*
X175617632Y-71977406D01*
X175517188Y-71997870D01*
X175417339Y-72022433D01*
X175184583Y-72083214D01*
X175145681Y-71950857D01*
X175102357Y-71856399D01*
X175040721Y-71831172D01*
X175024639Y-71833108D01*
G36*
X175692521Y-72538604D02*
G01*
X175573933Y-72576436D01*
X175493984Y-72604443D01*
X175350477Y-72660471D01*
X175241942Y-72712907D01*
X175190383Y-72751020D01*
X175189429Y-72752995D01*
X175195021Y-72813949D01*
X175226129Y-72927952D01*
X175273964Y-73070650D01*
X175329737Y-73217686D01*
X175384657Y-73344706D01*
X175429935Y-73427354D01*
X175435347Y-73434413D01*
X175524966Y-73483777D01*
X175642247Y-73479851D01*
X175750735Y-73424640D01*
X175759483Y-73416584D01*
X175827813Y-73374615D01*
X175921526Y-73341834D01*
X176009542Y-73325781D01*
X176060778Y-73333997D01*
X176064333Y-73342631D01*
X176029983Y-73368985D01*
X175939831Y-73422800D01*
X175813226Y-73492540D01*
X175810333Y-73494082D01*
X175683240Y-73565435D01*
X175592637Y-73623206D01*
X175557830Y-73655066D01*
X175557833Y-73655315D01*
X175577477Y-73708326D01*
X175611367Y-73774786D01*
X175663400Y-73868406D01*
X175968452Y-73699955D01*
X176117607Y-73615826D01*
X176204623Y-73558198D01*
X176242057Y-73513715D01*
X176242468Y-73469018D01*
X176225623Y-73426419D01*
X176180239Y-73349144D01*
X176146346Y-73321334D01*
X176112061Y-73285893D01*
X176072779Y-73200339D01*
X176071759Y-73197438D01*
X176062166Y-73179484D01*
X175641000Y-73179484D01*
X175625284Y-73234753D01*
X175585816Y-73221455D01*
X175534114Y-73147993D01*
X175501766Y-73077917D01*
X175459949Y-72944462D01*
X175468237Y-72872864D01*
X175512357Y-72855667D01*
X175547746Y-72891581D01*
X175589447Y-72977983D01*
X175624742Y-73082857D01*
X175640913Y-73174191D01*
X175641000Y-73179484D01*
X176062166Y-73179484D01*
X176024727Y-73109418D01*
X175961370Y-73091726D01*
X175948200Y-73094559D01*
X175888204Y-73089688D01*
X175837800Y-73028091D01*
X175800773Y-72944864D01*
X175761703Y-72837603D01*
X175757283Y-72783394D01*
X175789240Y-72757283D01*
X175814358Y-72748556D01*
X175882571Y-72712091D01*
X175883029Y-72654690D01*
X175837663Y-72581769D01*
X175803668Y-72542637D01*
X175762194Y-72527794D01*
X175692521Y-72538604D01*
X175692521Y-72538604D01*
G37*
X175692521Y-72538604D02*
X175573933Y-72576436D01*
X175493984Y-72604443D01*
X175350477Y-72660471D01*
X175241942Y-72712907D01*
X175190383Y-72751020D01*
X175189429Y-72752995D01*
X175195021Y-72813949D01*
X175226129Y-72927952D01*
X175273964Y-73070650D01*
X175329737Y-73217686D01*
X175384657Y-73344706D01*
X175429935Y-73427354D01*
X175435347Y-73434413D01*
X175524966Y-73483777D01*
X175642247Y-73479851D01*
X175750735Y-73424640D01*
X175759483Y-73416584D01*
X175827813Y-73374615D01*
X175921526Y-73341834D01*
X176009542Y-73325781D01*
X176060778Y-73333997D01*
X176064333Y-73342631D01*
X176029983Y-73368985D01*
X175939831Y-73422800D01*
X175813226Y-73492540D01*
X175810333Y-73494082D01*
X175683240Y-73565435D01*
X175592637Y-73623206D01*
X175557830Y-73655066D01*
X175557833Y-73655315D01*
X175577477Y-73708326D01*
X175611367Y-73774786D01*
X175663400Y-73868406D01*
X175968452Y-73699955D01*
X176117607Y-73615826D01*
X176204623Y-73558198D01*
X176242057Y-73513715D01*
X176242468Y-73469018D01*
X176225623Y-73426419D01*
X176180239Y-73349144D01*
X176146346Y-73321334D01*
X176112061Y-73285893D01*
X176072779Y-73200339D01*
X176071759Y-73197438D01*
X176062166Y-73179484D01*
X175641000Y-73179484D01*
X175625284Y-73234753D01*
X175585816Y-73221455D01*
X175534114Y-73147993D01*
X175501766Y-73077917D01*
X175459949Y-72944462D01*
X175468237Y-72872864D01*
X175512357Y-72855667D01*
X175547746Y-72891581D01*
X175589447Y-72977983D01*
X175624742Y-73082857D01*
X175640913Y-73174191D01*
X175641000Y-73179484D01*
X176062166Y-73179484D01*
X176024727Y-73109418D01*
X175961370Y-73091726D01*
X175948200Y-73094559D01*
X175888204Y-73089688D01*
X175837800Y-73028091D01*
X175800773Y-72944864D01*
X175761703Y-72837603D01*
X175757283Y-72783394D01*
X175789240Y-72757283D01*
X175814358Y-72748556D01*
X175882571Y-72712091D01*
X175883029Y-72654690D01*
X175837663Y-72581769D01*
X175803668Y-72542637D01*
X175762194Y-72527794D01*
X175692521Y-72538604D01*
G36*
X176141680Y-73687003D02*
G01*
X176012737Y-73754739D01*
X175890630Y-73843297D01*
X175805148Y-73932767D01*
X175786505Y-73968212D01*
X175793699Y-74053722D01*
X175845818Y-74180532D01*
X175931273Y-74326901D01*
X176038471Y-74471087D01*
X176079203Y-74517250D01*
X176168540Y-74603263D01*
X176234618Y-74628445D01*
X176305129Y-74599584D01*
X176333713Y-74579633D01*
X176382543Y-74503428D01*
X176362022Y-74417588D01*
X176279923Y-74347413D01*
X176259643Y-74338567D01*
X176177216Y-74278916D01*
X176098913Y-74181260D01*
X176094773Y-74174310D01*
X176047861Y-74085653D01*
X176050213Y-74034799D01*
X176108302Y-73986495D01*
X176132152Y-73970778D01*
X176208645Y-73926332D01*
X176259872Y-73929703D01*
X176319248Y-73988862D01*
X176346222Y-74021860D01*
X176408291Y-74121355D01*
X176431422Y-74206395D01*
X176429939Y-74218178D01*
X176439112Y-74306213D01*
X176473684Y-74377077D01*
X176535023Y-74436867D01*
X176604863Y-74426931D01*
X176617171Y-74420660D01*
X176687929Y-74340869D01*
X176688506Y-74216268D01*
X176619257Y-74048881D01*
X176526652Y-73903416D01*
X176419788Y-73764508D01*
X176336711Y-73687924D01*
X176262532Y-73660674D01*
X176247666Y-73660000D01*
X176141680Y-73687003D01*
X176141680Y-73687003D01*
G37*
X176141680Y-73687003D02*
X176012737Y-73754739D01*
X175890630Y-73843297D01*
X175805148Y-73932767D01*
X175786505Y-73968212D01*
X175793699Y-74053722D01*
X175845818Y-74180532D01*
X175931273Y-74326901D01*
X176038471Y-74471087D01*
X176079203Y-74517250D01*
X176168540Y-74603263D01*
X176234618Y-74628445D01*
X176305129Y-74599584D01*
X176333713Y-74579633D01*
X176382543Y-74503428D01*
X176362022Y-74417588D01*
X176279923Y-74347413D01*
X176259643Y-74338567D01*
X176177216Y-74278916D01*
X176098913Y-74181260D01*
X176094773Y-74174310D01*
X176047861Y-74085653D01*
X176050213Y-74034799D01*
X176108302Y-73986495D01*
X176132152Y-73970778D01*
X176208645Y-73926332D01*
X176259872Y-73929703D01*
X176319248Y-73988862D01*
X176346222Y-74021860D01*
X176408291Y-74121355D01*
X176431422Y-74206395D01*
X176429939Y-74218178D01*
X176439112Y-74306213D01*
X176473684Y-74377077D01*
X176535023Y-74436867D01*
X176604863Y-74426931D01*
X176617171Y-74420660D01*
X176687929Y-74340869D01*
X176688506Y-74216268D01*
X176619257Y-74048881D01*
X176526652Y-73903416D01*
X176419788Y-73764508D01*
X176336711Y-73687924D01*
X176262532Y-73660674D01*
X176247666Y-73660000D01*
X176141680Y-73687003D01*
G36*
X176866965Y-74622463D02*
G01*
X176760905Y-74700828D01*
X176654144Y-74803887D01*
X176569692Y-74909103D01*
X176530559Y-74993936D01*
X176530000Y-75002056D01*
X176558404Y-75059717D01*
X176632062Y-75155175D01*
X176733642Y-75270207D01*
X176845810Y-75386591D01*
X176951235Y-75486107D01*
X177032585Y-75550532D01*
X177065469Y-75565000D01*
X177128650Y-75541901D01*
X177188659Y-75503980D01*
X177244167Y-75442753D01*
X177229145Y-75374820D01*
X177224176Y-75366396D01*
X177147029Y-75296828D01*
X177092425Y-75277070D01*
X177007666Y-75239019D01*
X176910009Y-75162122D01*
X176895217Y-75147286D01*
X176783105Y-75030266D01*
X176889671Y-74930153D01*
X176996237Y-74830039D01*
X177124041Y-74952484D01*
X177199248Y-75039614D01*
X177233403Y-75110080D01*
X177232444Y-75125487D01*
X177245732Y-75188845D01*
X177294061Y-75249365D01*
X177365702Y-75296983D01*
X177425126Y-75280408D01*
X177439372Y-75269326D01*
X177498904Y-75183730D01*
X177488400Y-75078661D01*
X177405688Y-74948096D01*
X177273367Y-74809141D01*
X177138477Y-74693615D01*
X177022712Y-74616779D01*
X176949313Y-74591334D01*
X176866965Y-74622463D01*
X176866965Y-74622463D01*
G37*
X176866965Y-74622463D02*
X176760905Y-74700828D01*
X176654144Y-74803887D01*
X176569692Y-74909103D01*
X176530559Y-74993936D01*
X176530000Y-75002056D01*
X176558404Y-75059717D01*
X176632062Y-75155175D01*
X176733642Y-75270207D01*
X176845810Y-75386591D01*
X176951235Y-75486107D01*
X177032585Y-75550532D01*
X177065469Y-75565000D01*
X177128650Y-75541901D01*
X177188659Y-75503980D01*
X177244167Y-75442753D01*
X177229145Y-75374820D01*
X177224176Y-75366396D01*
X177147029Y-75296828D01*
X177092425Y-75277070D01*
X177007666Y-75239019D01*
X176910009Y-75162122D01*
X176895217Y-75147286D01*
X176783105Y-75030266D01*
X176889671Y-74930153D01*
X176996237Y-74830039D01*
X177124041Y-74952484D01*
X177199248Y-75039614D01*
X177233403Y-75110080D01*
X177232444Y-75125487D01*
X177245732Y-75188845D01*
X177294061Y-75249365D01*
X177365702Y-75296983D01*
X177425126Y-75280408D01*
X177439372Y-75269326D01*
X177498904Y-75183730D01*
X177488400Y-75078661D01*
X177405688Y-74948096D01*
X177273367Y-74809141D01*
X177138477Y-74693615D01*
X177022712Y-74616779D01*
X176949313Y-74591334D01*
X176866965Y-74622463D01*
G36*
X178607836Y-64070341D02*
G01*
X178466707Y-64123869D01*
X178292402Y-64201179D01*
X178104724Y-64292531D01*
X177923474Y-64388183D01*
X177768454Y-64478397D01*
X177659467Y-64553432D01*
X177641250Y-64569126D01*
X177569387Y-64671494D01*
X177552994Y-64801109D01*
X177593156Y-64968761D01*
X177690957Y-65185239D01*
X177706088Y-65214014D01*
X177818873Y-65405984D01*
X177922263Y-65524938D01*
X178032584Y-65578527D01*
X178166161Y-65574401D01*
X178339318Y-65520210D01*
X178350333Y-65515922D01*
X178378141Y-65530838D01*
X178434014Y-65589044D01*
X178520233Y-65693628D01*
X178639079Y-65847680D01*
X178792834Y-66054291D01*
X178983778Y-66316550D01*
X179214194Y-66637546D01*
X179486361Y-67020370D01*
X179802561Y-67468110D01*
X180022500Y-67780777D01*
X180297937Y-68173048D01*
X180558845Y-68545049D01*
X180801170Y-68890973D01*
X181020859Y-69205015D01*
X181213858Y-69481366D01*
X181376113Y-69714220D01*
X181503570Y-69897770D01*
X181592177Y-70026209D01*
X181637878Y-70093731D01*
X181643339Y-70102614D01*
X181607092Y-70099023D01*
X181498584Y-70074441D01*
X181326927Y-70031261D01*
X181101231Y-69971875D01*
X180830608Y-69898675D01*
X180524172Y-69814054D01*
X180234373Y-69732677D01*
X179902313Y-69639521D01*
X179596543Y-69555241D01*
X179326471Y-69482313D01*
X179101504Y-69423215D01*
X178931052Y-69380424D01*
X178824522Y-69356418D01*
X178791230Y-69352659D01*
X178809124Y-69391628D01*
X178869108Y-69495512D01*
X178967252Y-69658157D01*
X179099627Y-69873411D01*
X179262302Y-70135119D01*
X179451348Y-70437129D01*
X179662836Y-70773288D01*
X179892834Y-71137443D01*
X180137413Y-71523440D01*
X180392644Y-71925126D01*
X180654597Y-72336348D01*
X180919341Y-72750954D01*
X181182947Y-73162789D01*
X181441485Y-73565700D01*
X181691026Y-73953536D01*
X181927639Y-74320141D01*
X182147395Y-74659364D01*
X182346363Y-74965050D01*
X182520614Y-75231048D01*
X182666219Y-75451203D01*
X182779247Y-75619363D01*
X182855768Y-75729374D01*
X182891853Y-75775083D01*
X182893637Y-75776019D01*
X182972065Y-75754226D01*
X183002487Y-75738018D01*
X183041830Y-75671427D01*
X183039519Y-75622250D01*
X183019372Y-75569205D01*
X182969545Y-75445589D01*
X182893137Y-75258894D01*
X182793248Y-75016611D01*
X182672978Y-74726232D01*
X182535427Y-74395250D01*
X182383694Y-74031156D01*
X182220879Y-73641443D01*
X182140059Y-73448334D01*
X181972661Y-73048460D01*
X181814423Y-72670230D01*
X181668500Y-72321198D01*
X181538045Y-72008920D01*
X181426212Y-71740951D01*
X181336155Y-71524847D01*
X181271029Y-71368162D01*
X181233987Y-71278453D01*
X181227171Y-71261561D01*
X181219069Y-71238820D01*
X181218675Y-71223028D01*
X181232446Y-71216972D01*
X181266841Y-71223442D01*
X181328317Y-71245225D01*
X181423332Y-71285110D01*
X181558345Y-71345885D01*
X181739814Y-71430338D01*
X181974195Y-71541259D01*
X182267948Y-71681434D01*
X182627531Y-71853654D01*
X182890583Y-71979768D01*
X183125890Y-72089703D01*
X183318746Y-72173993D01*
X183460188Y-72229055D01*
X183541255Y-72251309D01*
X183557333Y-72246235D01*
X183546965Y-72197927D01*
X183516911Y-72073854D01*
X183468746Y-71880208D01*
X183404045Y-71623178D01*
X183324384Y-71308953D01*
X183231337Y-70943724D01*
X183126481Y-70533681D01*
X183011389Y-70085014D01*
X182887638Y-69603911D01*
X182756803Y-69096564D01*
X182689500Y-68836061D01*
X182555876Y-68318987D01*
X182428536Y-67825860D01*
X182309049Y-67362780D01*
X182198985Y-66935849D01*
X182099914Y-66551166D01*
X182013406Y-66214833D01*
X181941030Y-65932951D01*
X181884355Y-65711621D01*
X181844953Y-65556943D01*
X181824392Y-65475019D01*
X181821666Y-65463216D01*
X181781292Y-65458503D01*
X181668006Y-65453890D01*
X181493560Y-65449630D01*
X181269711Y-65445974D01*
X181008212Y-65443178D01*
X180837416Y-65442014D01*
X180510285Y-65439150D01*
X180168448Y-65434243D01*
X179835528Y-65427767D01*
X179535146Y-65420193D01*
X179290926Y-65411994D01*
X179249605Y-65410264D01*
X178646044Y-65383834D01*
X178932105Y-65214500D01*
X179077483Y-65125187D01*
X179164465Y-65058623D01*
X179209156Y-64997327D01*
X179227656Y-64923814D01*
X179231100Y-64889865D01*
X179222064Y-64788367D01*
X178812194Y-64788367D01*
X178804435Y-64866077D01*
X178758565Y-64910175D01*
X178659173Y-64975699D01*
X178530112Y-65049710D01*
X178395239Y-65119269D01*
X178278409Y-65171435D01*
X178203479Y-65193270D01*
X178201089Y-65193334D01*
X178142192Y-65161071D01*
X178078941Y-65087319D01*
X178017529Y-64964236D01*
X177985654Y-64862190D01*
X177978911Y-64802137D01*
X177996137Y-64754556D01*
X178051136Y-64706422D01*
X178157713Y-64644711D01*
X178286683Y-64578189D01*
X178611535Y-64413303D01*
X178692727Y-64517568D01*
X178775206Y-64655747D01*
X178812194Y-64788367D01*
X179222064Y-64788367D01*
X179217787Y-64740333D01*
X179151533Y-64555240D01*
X179113452Y-64475884D01*
X179001548Y-64274029D01*
X178901961Y-64142973D01*
X178804165Y-64071985D01*
X178697634Y-64050337D01*
X178695987Y-64050333D01*
X178607836Y-64070341D01*
X178607836Y-64070341D01*
G37*
X178607836Y-64070341D02*
X178466707Y-64123869D01*
X178292402Y-64201179D01*
X178104724Y-64292531D01*
X177923474Y-64388183D01*
X177768454Y-64478397D01*
X177659467Y-64553432D01*
X177641250Y-64569126D01*
X177569387Y-64671494D01*
X177552994Y-64801109D01*
X177593156Y-64968761D01*
X177690957Y-65185239D01*
X177706088Y-65214014D01*
X177818873Y-65405984D01*
X177922263Y-65524938D01*
X178032584Y-65578527D01*
X178166161Y-65574401D01*
X178339318Y-65520210D01*
X178350333Y-65515922D01*
X178378141Y-65530838D01*
X178434014Y-65589044D01*
X178520233Y-65693628D01*
X178639079Y-65847680D01*
X178792834Y-66054291D01*
X178983778Y-66316550D01*
X179214194Y-66637546D01*
X179486361Y-67020370D01*
X179802561Y-67468110D01*
X180022500Y-67780777D01*
X180297937Y-68173048D01*
X180558845Y-68545049D01*
X180801170Y-68890973D01*
X181020859Y-69205015D01*
X181213858Y-69481366D01*
X181376113Y-69714220D01*
X181503570Y-69897770D01*
X181592177Y-70026209D01*
X181637878Y-70093731D01*
X181643339Y-70102614D01*
X181607092Y-70099023D01*
X181498584Y-70074441D01*
X181326927Y-70031261D01*
X181101231Y-69971875D01*
X180830608Y-69898675D01*
X180524172Y-69814054D01*
X180234373Y-69732677D01*
X179902313Y-69639521D01*
X179596543Y-69555241D01*
X179326471Y-69482313D01*
X179101504Y-69423215D01*
X178931052Y-69380424D01*
X178824522Y-69356418D01*
X178791230Y-69352659D01*
X178809124Y-69391628D01*
X178869108Y-69495512D01*
X178967252Y-69658157D01*
X179099627Y-69873411D01*
X179262302Y-70135119D01*
X179451348Y-70437129D01*
X179662836Y-70773288D01*
X179892834Y-71137443D01*
X180137413Y-71523440D01*
X180392644Y-71925126D01*
X180654597Y-72336348D01*
X180919341Y-72750954D01*
X181182947Y-73162789D01*
X181441485Y-73565700D01*
X181691026Y-73953536D01*
X181927639Y-74320141D01*
X182147395Y-74659364D01*
X182346363Y-74965050D01*
X182520614Y-75231048D01*
X182666219Y-75451203D01*
X182779247Y-75619363D01*
X182855768Y-75729374D01*
X182891853Y-75775083D01*
X182893637Y-75776019D01*
X182972065Y-75754226D01*
X183002487Y-75738018D01*
X183041830Y-75671427D01*
X183039519Y-75622250D01*
X183019372Y-75569205D01*
X182969545Y-75445589D01*
X182893137Y-75258894D01*
X182793248Y-75016611D01*
X182672978Y-74726232D01*
X182535427Y-74395250D01*
X182383694Y-74031156D01*
X182220879Y-73641443D01*
X182140059Y-73448334D01*
X181972661Y-73048460D01*
X181814423Y-72670230D01*
X181668500Y-72321198D01*
X181538045Y-72008920D01*
X181426212Y-71740951D01*
X181336155Y-71524847D01*
X181271029Y-71368162D01*
X181233987Y-71278453D01*
X181227171Y-71261561D01*
X181219069Y-71238820D01*
X181218675Y-71223028D01*
X181232446Y-71216972D01*
X181266841Y-71223442D01*
X181328317Y-71245225D01*
X181423332Y-71285110D01*
X181558345Y-71345885D01*
X181739814Y-71430338D01*
X181974195Y-71541259D01*
X182267948Y-71681434D01*
X182627531Y-71853654D01*
X182890583Y-71979768D01*
X183125890Y-72089703D01*
X183318746Y-72173993D01*
X183460188Y-72229055D01*
X183541255Y-72251309D01*
X183557333Y-72246235D01*
X183546965Y-72197927D01*
X183516911Y-72073854D01*
X183468746Y-71880208D01*
X183404045Y-71623178D01*
X183324384Y-71308953D01*
X183231337Y-70943724D01*
X183126481Y-70533681D01*
X183011389Y-70085014D01*
X182887638Y-69603911D01*
X182756803Y-69096564D01*
X182689500Y-68836061D01*
X182555876Y-68318987D01*
X182428536Y-67825860D01*
X182309049Y-67362780D01*
X182198985Y-66935849D01*
X182099914Y-66551166D01*
X182013406Y-66214833D01*
X181941030Y-65932951D01*
X181884355Y-65711621D01*
X181844953Y-65556943D01*
X181824392Y-65475019D01*
X181821666Y-65463216D01*
X181781292Y-65458503D01*
X181668006Y-65453890D01*
X181493560Y-65449630D01*
X181269711Y-65445974D01*
X181008212Y-65443178D01*
X180837416Y-65442014D01*
X180510285Y-65439150D01*
X180168448Y-65434243D01*
X179835528Y-65427767D01*
X179535146Y-65420193D01*
X179290926Y-65411994D01*
X179249605Y-65410264D01*
X178646044Y-65383834D01*
X178932105Y-65214500D01*
X179077483Y-65125187D01*
X179164465Y-65058623D01*
X179209156Y-64997327D01*
X179227656Y-64923814D01*
X179231100Y-64889865D01*
X179222064Y-64788367D01*
X178812194Y-64788367D01*
X178804435Y-64866077D01*
X178758565Y-64910175D01*
X178659173Y-64975699D01*
X178530112Y-65049710D01*
X178395239Y-65119269D01*
X178278409Y-65171435D01*
X178203479Y-65193270D01*
X178201089Y-65193334D01*
X178142192Y-65161071D01*
X178078941Y-65087319D01*
X178017529Y-64964236D01*
X177985654Y-64862190D01*
X177978911Y-64802137D01*
X177996137Y-64754556D01*
X178051136Y-64706422D01*
X178157713Y-64644711D01*
X178286683Y-64578189D01*
X178611535Y-64413303D01*
X178692727Y-64517568D01*
X178775206Y-64655747D01*
X178812194Y-64788367D01*
X179222064Y-64788367D01*
X179217787Y-64740333D01*
X179151533Y-64555240D01*
X179113452Y-64475884D01*
X179001548Y-64274029D01*
X178901961Y-64142973D01*
X178804165Y-64071985D01*
X178697634Y-64050337D01*
X178695987Y-64050333D01*
X178607836Y-64070341D01*
G36*
X177565465Y-75216257D02*
G01*
X177480766Y-75297809D01*
X177391217Y-75405830D01*
X177316571Y-75517496D01*
X177288425Y-75573632D01*
X177261167Y-75666289D01*
X177283417Y-75737041D01*
X177336652Y-75800302D01*
X177449359Y-75901673D01*
X177590092Y-76003058D01*
X177734144Y-76089224D01*
X177856803Y-76144940D01*
X177916360Y-76157667D01*
X177998802Y-76126867D01*
X178092892Y-76050533D01*
X178113749Y-76027404D01*
X178215427Y-75873258D01*
X178258372Y-75731031D01*
X177996297Y-75731031D01*
X177978097Y-75788330D01*
X177964917Y-75810340D01*
X177910103Y-75880251D01*
X177850964Y-75896486D01*
X177764297Y-75858884D01*
X177686492Y-75808417D01*
X177576283Y-75707357D01*
X177550394Y-75611373D01*
X177596800Y-75531134D01*
X177661906Y-75487726D01*
X177735066Y-75496531D01*
X177836738Y-75562402D01*
X177881450Y-75598673D01*
X177967594Y-75676721D01*
X177996297Y-75731031D01*
X178258372Y-75731031D01*
X178258718Y-75729887D01*
X178238227Y-75615702D01*
X178235606Y-75611365D01*
X178181632Y-75556024D01*
X178080905Y-75474555D01*
X177954749Y-75381898D01*
X177824490Y-75292992D01*
X177711451Y-75222775D01*
X177636959Y-75186187D01*
X177625566Y-75184000D01*
X177565465Y-75216257D01*
X177565465Y-75216257D01*
G37*
X177565465Y-75216257D02*
X177480766Y-75297809D01*
X177391217Y-75405830D01*
X177316571Y-75517496D01*
X177288425Y-75573632D01*
X177261167Y-75666289D01*
X177283417Y-75737041D01*
X177336652Y-75800302D01*
X177449359Y-75901673D01*
X177590092Y-76003058D01*
X177734144Y-76089224D01*
X177856803Y-76144940D01*
X177916360Y-76157667D01*
X177998802Y-76126867D01*
X178092892Y-76050533D01*
X178113749Y-76027404D01*
X178215427Y-75873258D01*
X178258372Y-75731031D01*
X177996297Y-75731031D01*
X177978097Y-75788330D01*
X177964917Y-75810340D01*
X177910103Y-75880251D01*
X177850964Y-75896486D01*
X177764297Y-75858884D01*
X177686492Y-75808417D01*
X177576283Y-75707357D01*
X177550394Y-75611373D01*
X177596800Y-75531134D01*
X177661906Y-75487726D01*
X177735066Y-75496531D01*
X177836738Y-75562402D01*
X177881450Y-75598673D01*
X177967594Y-75676721D01*
X177996297Y-75731031D01*
X178258372Y-75731031D01*
X178258718Y-75729887D01*
X178238227Y-75615702D01*
X178235606Y-75611365D01*
X178181632Y-75556024D01*
X178080905Y-75474555D01*
X177954749Y-75381898D01*
X177824490Y-75292992D01*
X177711451Y-75222775D01*
X177636959Y-75186187D01*
X177625566Y-75184000D01*
X177565465Y-75216257D01*
G36*
X178349200Y-75785159D02*
G01*
X178302121Y-75883320D01*
X178244666Y-76009831D01*
X178186830Y-76142002D01*
X178138610Y-76257142D01*
X178110002Y-76332562D01*
X178106542Y-76349464D01*
X178174700Y-76390159D01*
X178278977Y-76438897D01*
X178382217Y-76479634D01*
X178446685Y-76496334D01*
X178513425Y-76467624D01*
X178597358Y-76397779D01*
X178604333Y-76390500D01*
X178692914Y-76308139D01*
X178744884Y-76297559D01*
X178768858Y-76363023D01*
X178773666Y-76474306D01*
X178779813Y-76595641D01*
X178812378Y-76667249D01*
X178892552Y-76723910D01*
X178941313Y-76749473D01*
X179047318Y-76801264D01*
X179118201Y-76831658D01*
X179130784Y-76835000D01*
X179157540Y-76799465D01*
X179209259Y-76705073D01*
X179276084Y-76570142D01*
X179295930Y-76528084D01*
X179359743Y-76381865D01*
X179401966Y-76266045D01*
X179415559Y-76200632D01*
X179413376Y-76194175D01*
X179355547Y-76161324D01*
X179296344Y-76139705D01*
X179237866Y-76134078D01*
X179193188Y-76170928D01*
X179146257Y-76266895D01*
X179127352Y-76314864D01*
X179049514Y-76517500D01*
X179022092Y-76295612D01*
X179001885Y-76156618D01*
X178980558Y-76046634D01*
X178970163Y-76009862D01*
X178911033Y-75954248D01*
X178811571Y-75958338D01*
X178689570Y-76020269D01*
X178660498Y-76042254D01*
X178523313Y-76151989D01*
X178444692Y-76209118D01*
X178416779Y-76213543D01*
X178431719Y-76165164D01*
X178481657Y-76063884D01*
X178493689Y-76040161D01*
X178606239Y-75818053D01*
X178499274Y-75769317D01*
X178416251Y-75739365D01*
X178375905Y-75738040D01*
X178349200Y-75785159D01*
X178349200Y-75785159D01*
G37*
X178349200Y-75785159D02*
X178302121Y-75883320D01*
X178244666Y-76009831D01*
X178186830Y-76142002D01*
X178138610Y-76257142D01*
X178110002Y-76332562D01*
X178106542Y-76349464D01*
X178174700Y-76390159D01*
X178278977Y-76438897D01*
X178382217Y-76479634D01*
X178446685Y-76496334D01*
X178513425Y-76467624D01*
X178597358Y-76397779D01*
X178604333Y-76390500D01*
X178692914Y-76308139D01*
X178744884Y-76297559D01*
X178768858Y-76363023D01*
X178773666Y-76474306D01*
X178779813Y-76595641D01*
X178812378Y-76667249D01*
X178892552Y-76723910D01*
X178941313Y-76749473D01*
X179047318Y-76801264D01*
X179118201Y-76831658D01*
X179130784Y-76835000D01*
X179157540Y-76799465D01*
X179209259Y-76705073D01*
X179276084Y-76570142D01*
X179295930Y-76528084D01*
X179359743Y-76381865D01*
X179401966Y-76266045D01*
X179415559Y-76200632D01*
X179413376Y-76194175D01*
X179355547Y-76161324D01*
X179296344Y-76139705D01*
X179237866Y-76134078D01*
X179193188Y-76170928D01*
X179146257Y-76266895D01*
X179127352Y-76314864D01*
X179049514Y-76517500D01*
X179022092Y-76295612D01*
X179001885Y-76156618D01*
X178980558Y-76046634D01*
X178970163Y-76009862D01*
X178911033Y-75954248D01*
X178811571Y-75958338D01*
X178689570Y-76020269D01*
X178660498Y-76042254D01*
X178523313Y-76151989D01*
X178444692Y-76209118D01*
X178416779Y-76213543D01*
X178431719Y-76165164D01*
X178481657Y-76063884D01*
X178493689Y-76040161D01*
X178606239Y-75818053D01*
X178499274Y-75769317D01*
X178416251Y-75739365D01*
X178375905Y-75738040D01*
X178349200Y-75785159D01*
G36*
X179500652Y-76251089D02*
G01*
X179464235Y-76319115D01*
X179420714Y-76447614D01*
X179403830Y-76502692D01*
X179362857Y-76653906D01*
X179338517Y-76776961D01*
X179335739Y-76846573D01*
X179336395Y-76848574D01*
X179386225Y-76887214D01*
X179494440Y-76933639D01*
X179636182Y-76980176D01*
X179786591Y-77019150D01*
X179920810Y-77042886D01*
X179978038Y-77046667D01*
X180073317Y-77019343D01*
X180120988Y-76972584D01*
X180186577Y-76800823D01*
X180185040Y-76765291D01*
X179953319Y-76765291D01*
X179939478Y-76790006D01*
X179881995Y-76812597D01*
X179779563Y-76804547D01*
X179664605Y-76769601D01*
X179632837Y-76754596D01*
X179605034Y-76702376D01*
X179614482Y-76675135D01*
X179656782Y-76644725D01*
X179737805Y-76654472D01*
X179792478Y-76671444D01*
X179903175Y-76710514D01*
X179950963Y-76737098D01*
X179953319Y-76765291D01*
X180185040Y-76765291D01*
X180180944Y-76670661D01*
X180100457Y-76574454D01*
X179941488Y-76504558D01*
X179892273Y-76491105D01*
X179772973Y-76452937D01*
X179717424Y-76407573D01*
X179705000Y-76348076D01*
X179676953Y-76266076D01*
X179598633Y-76231870D01*
X179541580Y-76227390D01*
X179500652Y-76251089D01*
X179500652Y-76251089D01*
G37*
X179500652Y-76251089D02*
X179464235Y-76319115D01*
X179420714Y-76447614D01*
X179403830Y-76502692D01*
X179362857Y-76653906D01*
X179338517Y-76776961D01*
X179335739Y-76846573D01*
X179336395Y-76848574D01*
X179386225Y-76887214D01*
X179494440Y-76933639D01*
X179636182Y-76980176D01*
X179786591Y-77019150D01*
X179920810Y-77042886D01*
X179978038Y-77046667D01*
X180073317Y-77019343D01*
X180120988Y-76972584D01*
X180186577Y-76800823D01*
X180185040Y-76765291D01*
X179953319Y-76765291D01*
X179939478Y-76790006D01*
X179881995Y-76812597D01*
X179779563Y-76804547D01*
X179664605Y-76769601D01*
X179632837Y-76754596D01*
X179605034Y-76702376D01*
X179614482Y-76675135D01*
X179656782Y-76644725D01*
X179737805Y-76654472D01*
X179792478Y-76671444D01*
X179903175Y-76710514D01*
X179950963Y-76737098D01*
X179953319Y-76765291D01*
X180185040Y-76765291D01*
X180180944Y-76670661D01*
X180100457Y-76574454D01*
X179941488Y-76504558D01*
X179892273Y-76491105D01*
X179772973Y-76452937D01*
X179717424Y-76407573D01*
X179705000Y-76348076D01*
X179676953Y-76266076D01*
X179598633Y-76231870D01*
X179541580Y-76227390D01*
X179500652Y-76251089D01*
G36*
X182721250Y-76377105D02*
G01*
X182642417Y-76397244D01*
X182609691Y-76451081D01*
X182603296Y-76540677D01*
X182579355Y-76671443D01*
X182519743Y-76824995D01*
X182486880Y-76886882D01*
X182403583Y-77043414D01*
X182373259Y-77137857D01*
X182396348Y-77168718D01*
X182403750Y-77167902D01*
X182466907Y-77156068D01*
X182532978Y-77143499D01*
X182625333Y-77087910D01*
X182699569Y-76979931D01*
X182756440Y-76874686D01*
X182803417Y-76842504D01*
X182860753Y-76877329D01*
X182901166Y-76919667D01*
X183012358Y-76987078D01*
X183149976Y-77000984D01*
X183255306Y-76966415D01*
X183268994Y-76932689D01*
X183226850Y-76875372D01*
X183121635Y-76785769D01*
X183075389Y-76750310D01*
X182935641Y-76634834D01*
X182860115Y-76544678D01*
X182837666Y-76467269D01*
X182824659Y-76393476D01*
X182768385Y-76373660D01*
X182721250Y-76377105D01*
X182721250Y-76377105D01*
G37*
X182721250Y-76377105D02*
X182642417Y-76397244D01*
X182609691Y-76451081D01*
X182603296Y-76540677D01*
X182579355Y-76671443D01*
X182519743Y-76824995D01*
X182486880Y-76886882D01*
X182403583Y-77043414D01*
X182373259Y-77137857D01*
X182396348Y-77168718D01*
X182403750Y-77167902D01*
X182466907Y-77156068D01*
X182532978Y-77143499D01*
X182625333Y-77087910D01*
X182699569Y-76979931D01*
X182756440Y-76874686D01*
X182803417Y-76842504D01*
X182860753Y-76877329D01*
X182901166Y-76919667D01*
X183012358Y-76987078D01*
X183149976Y-77000984D01*
X183255306Y-76966415D01*
X183268994Y-76932689D01*
X183226850Y-76875372D01*
X183121635Y-76785769D01*
X183075389Y-76750310D01*
X182935641Y-76634834D01*
X182860115Y-76544678D01*
X182837666Y-76467269D01*
X182824659Y-76393476D01*
X182768385Y-76373660D01*
X182721250Y-76377105D01*
G36*
X180256943Y-76414935D02*
G01*
X180221076Y-76444574D01*
X180223874Y-76464584D01*
X180247459Y-76529428D01*
X180289994Y-76648189D01*
X180341386Y-76792667D01*
X180407234Y-76970146D01*
X180460884Y-77081930D01*
X180515595Y-77143074D01*
X180584625Y-77168634D01*
X180676918Y-77173667D01*
X180760594Y-77168103D01*
X180825927Y-77141557D01*
X180891681Y-77079245D01*
X180976619Y-76966384D01*
X181020984Y-76902592D01*
X181100404Y-76794521D01*
X180743313Y-76794521D01*
X180742213Y-76859158D01*
X180716055Y-76904459D01*
X180669600Y-76946481D01*
X180639593Y-76913498D01*
X180630719Y-76892021D01*
X180603543Y-76811896D01*
X180596975Y-76782084D01*
X180623939Y-76753163D01*
X180685445Y-76756648D01*
X180739395Y-76788958D01*
X180743313Y-76794521D01*
X181100404Y-76794521D01*
X181126844Y-76758544D01*
X181198426Y-76690568D01*
X181242043Y-76700433D01*
X181264010Y-76789909D01*
X181270640Y-76960767D01*
X181270685Y-76972584D01*
X181271333Y-77216000D01*
X181461401Y-77216000D01*
X181564762Y-77212175D01*
X181636256Y-77190118D01*
X181698956Y-77133954D01*
X181775935Y-77027809D01*
X181810651Y-76975716D01*
X181969833Y-76735431D01*
X181982529Y-76975716D01*
X181994046Y-77115814D01*
X182019310Y-77187184D01*
X182072890Y-77205759D01*
X182169354Y-77187473D01*
X182174844Y-77186062D01*
X182231368Y-77144877D01*
X182228339Y-77074556D01*
X182214562Y-76981880D01*
X182205408Y-76841592D01*
X182203245Y-76739750D01*
X182202666Y-76496334D01*
X182011243Y-76496334D01*
X181910710Y-76499540D01*
X181840762Y-76519356D01*
X181780275Y-76571079D01*
X181708125Y-76670007D01*
X181651410Y-76756897D01*
X181483000Y-77017460D01*
X181483000Y-76517500D01*
X181239583Y-76517500D01*
X181097736Y-76525568D01*
X180996786Y-76546707D01*
X180964557Y-76566407D01*
X180901166Y-76596137D01*
X180790807Y-76596549D01*
X180663933Y-76572590D01*
X180551000Y-76529205D01*
X180497101Y-76490501D01*
X180422182Y-76440481D01*
X180333054Y-76414431D01*
X180256943Y-76414935D01*
X180256943Y-76414935D01*
G37*
X180256943Y-76414935D02*
X180221076Y-76444574D01*
X180223874Y-76464584D01*
X180247459Y-76529428D01*
X180289994Y-76648189D01*
X180341386Y-76792667D01*
X180407234Y-76970146D01*
X180460884Y-77081930D01*
X180515595Y-77143074D01*
X180584625Y-77168634D01*
X180676918Y-77173667D01*
X180760594Y-77168103D01*
X180825927Y-77141557D01*
X180891681Y-77079245D01*
X180976619Y-76966384D01*
X181020984Y-76902592D01*
X181100404Y-76794521D01*
X180743313Y-76794521D01*
X180742213Y-76859158D01*
X180716055Y-76904459D01*
X180669600Y-76946481D01*
X180639593Y-76913498D01*
X180630719Y-76892021D01*
X180603543Y-76811896D01*
X180596975Y-76782084D01*
X180623939Y-76753163D01*
X180685445Y-76756648D01*
X180739395Y-76788958D01*
X180743313Y-76794521D01*
X181100404Y-76794521D01*
X181126844Y-76758544D01*
X181198426Y-76690568D01*
X181242043Y-76700433D01*
X181264010Y-76789909D01*
X181270640Y-76960767D01*
X181270685Y-76972584D01*
X181271333Y-77216000D01*
X181461401Y-77216000D01*
X181564762Y-77212175D01*
X181636256Y-77190118D01*
X181698956Y-77133954D01*
X181775935Y-77027809D01*
X181810651Y-76975716D01*
X181969833Y-76735431D01*
X181982529Y-76975716D01*
X181994046Y-77115814D01*
X182019310Y-77187184D01*
X182072890Y-77205759D01*
X182169354Y-77187473D01*
X182174844Y-77186062D01*
X182231368Y-77144877D01*
X182228339Y-77074556D01*
X182214562Y-76981880D01*
X182205408Y-76841592D01*
X182203245Y-76739750D01*
X182202666Y-76496334D01*
X182011243Y-76496334D01*
X181910710Y-76499540D01*
X181840762Y-76519356D01*
X181780275Y-76571079D01*
X181708125Y-76670007D01*
X181651410Y-76756897D01*
X181483000Y-77017460D01*
X181483000Y-76517500D01*
X181239583Y-76517500D01*
X181097736Y-76525568D01*
X180996786Y-76546707D01*
X180964557Y-76566407D01*
X180901166Y-76596137D01*
X180790807Y-76596549D01*
X180663933Y-76572590D01*
X180551000Y-76529205D01*
X180497101Y-76490501D01*
X180422182Y-76440481D01*
X180333054Y-76414431D01*
X180256943Y-76414935D01*
D11*
G36*
X182374580Y-82785371D02*
G01*
X182503961Y-82798114D01*
X182752971Y-82873651D01*
X182752973Y-82873652D01*
X182982458Y-82996314D01*
X183183608Y-83161392D01*
X183348685Y-83362541D01*
X183471349Y-83592029D01*
X183546886Y-83841039D01*
X183572391Y-84100000D01*
X183546886Y-84358961D01*
X183471349Y-84607971D01*
X183471348Y-84607973D01*
X183348686Y-84837458D01*
X183183608Y-85038608D01*
X182982458Y-85203686D01*
X182752973Y-85326348D01*
X182752971Y-85326349D01*
X182503961Y-85401886D01*
X182374580Y-85414629D01*
X182309891Y-85421000D01*
X179640109Y-85421000D01*
X179575420Y-85414629D01*
X179446039Y-85401886D01*
X179197029Y-85326349D01*
X179197027Y-85326348D01*
X178967542Y-85203686D01*
X178766392Y-85038608D01*
X178601314Y-84837458D01*
X178478652Y-84607973D01*
X178478651Y-84607971D01*
X178403114Y-84358961D01*
X178377609Y-84100000D01*
X178403114Y-83841039D01*
X178478651Y-83592029D01*
X178601315Y-83362541D01*
X178766392Y-83161392D01*
X178967542Y-82996314D01*
X179197027Y-82873652D01*
X179197029Y-82873651D01*
X179446039Y-82798114D01*
X179575420Y-82785371D01*
X179640109Y-82779000D01*
X182309891Y-82779000D01*
X182374580Y-82785371D01*
X182374580Y-82785371D01*
G37*
G36*
X190811231Y-80254003D02*
G01*
X191005412Y-80334436D01*
X191005414Y-80334437D01*
X191180173Y-80451207D01*
X191328793Y-80599827D01*
X191445563Y-80774586D01*
X191445564Y-80774588D01*
X191525997Y-80968769D01*
X191567000Y-81174908D01*
X191567000Y-81385092D01*
X191525997Y-81591231D01*
X191445564Y-81785412D01*
X191445563Y-81785414D01*
X191328793Y-81960173D01*
X191180173Y-82108793D01*
X191005414Y-82225563D01*
X191005413Y-82225564D01*
X191005412Y-82225564D01*
X190811231Y-82305997D01*
X190605092Y-82347000D01*
X190394908Y-82347000D01*
X190188769Y-82305997D01*
X189994588Y-82225564D01*
X189994587Y-82225564D01*
X189994586Y-82225563D01*
X189819827Y-82108793D01*
X189671207Y-81960173D01*
X189554437Y-81785414D01*
X189554436Y-81785412D01*
X189474003Y-81591231D01*
X189433000Y-81385092D01*
X189433000Y-81174908D01*
X189474003Y-80968769D01*
X189554436Y-80774588D01*
X189554437Y-80774586D01*
X189671207Y-80599827D01*
X189819827Y-80451207D01*
X189994586Y-80334437D01*
X189994588Y-80334436D01*
X190188769Y-80254003D01*
X190394908Y-80213000D01*
X190605092Y-80213000D01*
X190811231Y-80254003D01*
X190811231Y-80254003D01*
G37*
G36*
X194107000Y-82347000D02*
G01*
X191973000Y-82347000D01*
X191973000Y-80213000D01*
X194107000Y-80213000D01*
X194107000Y-82347000D01*
X194107000Y-82347000D01*
G37*
G36*
X172517000Y-82347000D02*
G01*
X170383000Y-82347000D01*
X170383000Y-80213000D01*
X172517000Y-80213000D01*
X172517000Y-82347000D01*
X172517000Y-82347000D01*
G37*
G36*
X169221231Y-80254003D02*
G01*
X169415412Y-80334436D01*
X169415414Y-80334437D01*
X169590173Y-80451207D01*
X169738793Y-80599827D01*
X169855563Y-80774586D01*
X169855564Y-80774588D01*
X169935997Y-80968769D01*
X169977000Y-81174908D01*
X169977000Y-81385092D01*
X169935997Y-81591231D01*
X169855564Y-81785412D01*
X169855563Y-81785414D01*
X169738793Y-81960173D01*
X169590173Y-82108793D01*
X169415414Y-82225563D01*
X169415413Y-82225564D01*
X169415412Y-82225564D01*
X169221231Y-82305997D01*
X169015092Y-82347000D01*
X168804908Y-82347000D01*
X168598769Y-82305997D01*
X168404588Y-82225564D01*
X168404587Y-82225564D01*
X168404586Y-82225563D01*
X168229827Y-82108793D01*
X168081207Y-81960173D01*
X167964437Y-81785414D01*
X167964436Y-81785412D01*
X167884003Y-81591231D01*
X167843000Y-81385092D01*
X167843000Y-81174908D01*
X167884003Y-80968769D01*
X167964436Y-80774588D01*
X167964437Y-80774586D01*
X168081207Y-80599827D01*
X168229827Y-80451207D01*
X168404586Y-80334437D01*
X168404588Y-80334436D01*
X168598769Y-80254003D01*
X168804908Y-80213000D01*
X169015092Y-80213000D01*
X169221231Y-80254003D01*
X169221231Y-80254003D01*
G37*
G36*
X169221231Y-68824003D02*
G01*
X169415412Y-68904436D01*
X169415414Y-68904437D01*
X169590173Y-69021207D01*
X169738793Y-69169827D01*
X169855563Y-69344586D01*
X169855564Y-69344588D01*
X169935997Y-69538769D01*
X169977000Y-69744908D01*
X169977000Y-69955092D01*
X169935997Y-70161231D01*
X169855564Y-70355412D01*
X169855563Y-70355414D01*
X169738793Y-70530173D01*
X169590173Y-70678793D01*
X169415414Y-70795563D01*
X169415413Y-70795564D01*
X169415412Y-70795564D01*
X169221231Y-70875997D01*
X169015092Y-70917000D01*
X168804908Y-70917000D01*
X168598769Y-70875997D01*
X168404588Y-70795564D01*
X168404587Y-70795564D01*
X168404586Y-70795563D01*
X168229827Y-70678793D01*
X168081207Y-70530173D01*
X167964437Y-70355414D01*
X167964436Y-70355412D01*
X167884003Y-70161231D01*
X167843000Y-69955092D01*
X167843000Y-69744908D01*
X167884003Y-69538769D01*
X167964436Y-69344588D01*
X167964437Y-69344586D01*
X168081207Y-69169827D01*
X168229827Y-69021207D01*
X168404586Y-68904437D01*
X168404588Y-68904436D01*
X168598769Y-68824003D01*
X168804908Y-68783000D01*
X169015092Y-68783000D01*
X169221231Y-68824003D01*
X169221231Y-68824003D01*
G37*
G36*
X172517000Y-70917000D02*
G01*
X170383000Y-70917000D01*
X170383000Y-68783000D01*
X172517000Y-68783000D01*
X172517000Y-70917000D01*
X172517000Y-70917000D01*
G37*
G36*
X190811231Y-68824003D02*
G01*
X191005412Y-68904436D01*
X191005414Y-68904437D01*
X191180173Y-69021207D01*
X191328793Y-69169827D01*
X191445563Y-69344586D01*
X191445564Y-69344588D01*
X191525997Y-69538769D01*
X191567000Y-69744908D01*
X191567000Y-69955092D01*
X191525997Y-70161231D01*
X191445564Y-70355412D01*
X191445563Y-70355414D01*
X191328793Y-70530173D01*
X191180173Y-70678793D01*
X191005414Y-70795563D01*
X191005413Y-70795564D01*
X191005412Y-70795564D01*
X190811231Y-70875997D01*
X190605092Y-70917000D01*
X190394908Y-70917000D01*
X190188769Y-70875997D01*
X189994588Y-70795564D01*
X189994587Y-70795564D01*
X189994586Y-70795563D01*
X189819827Y-70678793D01*
X189671207Y-70530173D01*
X189554437Y-70355414D01*
X189554436Y-70355412D01*
X189474003Y-70161231D01*
X189433000Y-69955092D01*
X189433000Y-69744908D01*
X189474003Y-69538769D01*
X189554436Y-69344588D01*
X189554437Y-69344586D01*
X189671207Y-69169827D01*
X189819827Y-69021207D01*
X189994586Y-68904437D01*
X189994588Y-68904436D01*
X190188769Y-68824003D01*
X190394908Y-68783000D01*
X190605092Y-68783000D01*
X190811231Y-68824003D01*
X190811231Y-68824003D01*
G37*
G36*
X194107000Y-70917000D02*
G01*
X191973000Y-70917000D01*
X191973000Y-68783000D01*
X194107000Y-68783000D01*
X194107000Y-70917000D01*
X194107000Y-70917000D01*
G37*
G36*
X170491231Y-63744003D02*
G01*
X170685412Y-63824436D01*
X170685414Y-63824437D01*
X170860173Y-63941207D01*
X171008793Y-64089827D01*
X171125563Y-64264586D01*
X171125564Y-64264588D01*
X171205997Y-64458769D01*
X171247000Y-64664908D01*
X171247000Y-64875092D01*
X171205997Y-65081231D01*
X171125564Y-65275412D01*
X171125563Y-65275414D01*
X171008793Y-65450173D01*
X170860173Y-65598793D01*
X170685414Y-65715563D01*
X170685413Y-65715564D01*
X170685412Y-65715564D01*
X170491231Y-65795997D01*
X170285092Y-65837000D01*
X170074908Y-65837000D01*
X169868769Y-65795997D01*
X169674588Y-65715564D01*
X169674587Y-65715564D01*
X169674586Y-65715563D01*
X169499827Y-65598793D01*
X169351207Y-65450173D01*
X169234437Y-65275414D01*
X169234436Y-65275412D01*
X169154003Y-65081231D01*
X169113000Y-64875092D01*
X169113000Y-64664908D01*
X169154003Y-64458769D01*
X169234436Y-64264588D01*
X169234437Y-64264586D01*
X169351207Y-64089827D01*
X169499827Y-63941207D01*
X169674586Y-63824437D01*
X169674588Y-63824436D01*
X169868769Y-63744003D01*
X170074908Y-63703000D01*
X170285092Y-63703000D01*
X170491231Y-63744003D01*
X170491231Y-63744003D01*
G37*
G36*
X192594890Y-60864017D02*
G01*
X192713364Y-60913091D01*
X192819988Y-60984335D01*
X192910665Y-61075012D01*
X192981909Y-61181636D01*
X193030983Y-61300110D01*
X193056000Y-61425882D01*
X193056000Y-61554118D01*
X193030983Y-61679890D01*
X192981909Y-61798364D01*
X192910665Y-61904988D01*
X192819988Y-61995665D01*
X192713364Y-62066909D01*
X192713363Y-62066910D01*
X192713362Y-62066910D01*
X192594890Y-62115983D01*
X192469119Y-62141000D01*
X192340881Y-62141000D01*
X192215110Y-62115983D01*
X192096638Y-62066910D01*
X192096637Y-62066910D01*
X192096636Y-62066909D01*
X191990012Y-61995665D01*
X191899335Y-61904988D01*
X191828091Y-61798364D01*
X191779017Y-61679890D01*
X191754000Y-61554118D01*
X191754000Y-61425882D01*
X191779017Y-61300110D01*
X191828091Y-61181636D01*
X191899335Y-61075012D01*
X191990012Y-60984335D01*
X192096636Y-60913091D01*
X192215110Y-60864017D01*
X192340881Y-60839000D01*
X192469119Y-60839000D01*
X192594890Y-60864017D01*
X192594890Y-60864017D01*
G37*
G36*
X192594890Y-59064017D02*
G01*
X192713364Y-59113091D01*
X192819988Y-59184335D01*
X192910665Y-59275012D01*
X192981909Y-59381636D01*
X193030983Y-59500110D01*
X193056000Y-59625882D01*
X193056000Y-59754118D01*
X193030983Y-59879890D01*
X192981909Y-59998364D01*
X192910665Y-60104988D01*
X192819988Y-60195665D01*
X192713364Y-60266909D01*
X192713363Y-60266910D01*
X192713362Y-60266910D01*
X192594890Y-60315983D01*
X192469119Y-60341000D01*
X192340881Y-60341000D01*
X192215110Y-60315983D01*
X192096638Y-60266910D01*
X192096637Y-60266910D01*
X192096636Y-60266909D01*
X191990012Y-60195665D01*
X191899335Y-60104988D01*
X191828091Y-59998364D01*
X191779017Y-59879890D01*
X191754000Y-59754118D01*
X191754000Y-59625882D01*
X191779017Y-59500110D01*
X191828091Y-59381636D01*
X191899335Y-59275012D01*
X191990012Y-59184335D01*
X192096636Y-59113091D01*
X192215110Y-59064017D01*
X192340881Y-59039000D01*
X192469119Y-59039000D01*
X192594890Y-59064017D01*
X192594890Y-59064017D01*
G37*
G36*
X192594890Y-57264017D02*
G01*
X192713364Y-57313091D01*
X192819988Y-57384335D01*
X192910665Y-57475012D01*
X192981909Y-57581636D01*
X193030983Y-57700110D01*
X193056000Y-57825882D01*
X193056000Y-57954118D01*
X193030983Y-58079890D01*
X192981909Y-58198364D01*
X192910665Y-58304988D01*
X192819988Y-58395665D01*
X192713364Y-58466909D01*
X192713363Y-58466910D01*
X192713362Y-58466910D01*
X192594890Y-58515983D01*
X192469119Y-58541000D01*
X192340881Y-58541000D01*
X192215110Y-58515983D01*
X192096638Y-58466910D01*
X192096637Y-58466910D01*
X192096636Y-58466909D01*
X191990012Y-58395665D01*
X191899335Y-58304988D01*
X191828091Y-58198364D01*
X191779017Y-58079890D01*
X191754000Y-57954118D01*
X191754000Y-57825882D01*
X191779017Y-57700110D01*
X191828091Y-57581636D01*
X191899335Y-57475012D01*
X191990012Y-57384335D01*
X192096636Y-57313091D01*
X192215110Y-57264017D01*
X192340881Y-57239000D01*
X192469119Y-57239000D01*
X192594890Y-57264017D01*
X192594890Y-57264017D01*
G37*
G36*
X193056000Y-56741000D02*
G01*
X191754000Y-56741000D01*
X191754000Y-55439000D01*
X193056000Y-55439000D01*
X193056000Y-56741000D01*
X193056000Y-56741000D01*
G37*
G36*
X170491231Y-53584003D02*
G01*
X170685412Y-53664436D01*
X170685414Y-53664437D01*
X170860173Y-53781207D01*
X171008793Y-53929827D01*
X171125563Y-54104586D01*
X171125564Y-54104588D01*
X171205997Y-54298769D01*
X171247000Y-54504908D01*
X171247000Y-54715092D01*
X171205997Y-54921231D01*
X171125564Y-55115412D01*
X171125563Y-55115414D01*
X171008793Y-55290173D01*
X170860173Y-55438793D01*
X170685414Y-55555563D01*
X170685413Y-55555564D01*
X170685412Y-55555564D01*
X170491231Y-55635997D01*
X170285092Y-55677000D01*
X170074908Y-55677000D01*
X169868769Y-55635997D01*
X169674588Y-55555564D01*
X169674587Y-55555564D01*
X169674586Y-55555563D01*
X169499827Y-55438793D01*
X169351207Y-55290173D01*
X169234437Y-55115414D01*
X169234436Y-55115412D01*
X169154003Y-54921231D01*
X169113000Y-54715092D01*
X169113000Y-54504908D01*
X169154003Y-54298769D01*
X169234436Y-54104588D01*
X169234437Y-54104586D01*
X169351207Y-53929827D01*
X169499827Y-53781207D01*
X169674586Y-53664437D01*
X169674588Y-53664436D01*
X169868769Y-53584003D01*
X170074908Y-53543000D01*
X170285092Y-53543000D01*
X170491231Y-53584003D01*
X170491231Y-53584003D01*
G37*
G36*
X182374580Y-36785371D02*
G01*
X182503961Y-36798114D01*
X182752971Y-36873651D01*
X182752973Y-36873652D01*
X182982458Y-36996314D01*
X183183608Y-37161392D01*
X183348686Y-37362542D01*
X183471348Y-37592027D01*
X183471349Y-37592029D01*
X183546886Y-37841039D01*
X183572391Y-38100000D01*
X183546886Y-38358961D01*
X183540200Y-38381000D01*
X183471348Y-38607973D01*
X183348686Y-38837458D01*
X183183608Y-39038608D01*
X182982458Y-39203686D01*
X182752973Y-39326348D01*
X182752971Y-39326349D01*
X182503961Y-39401886D01*
X182374580Y-39414629D01*
X182309891Y-39421000D01*
X179640109Y-39421000D01*
X179575420Y-39414629D01*
X179446039Y-39401886D01*
X179197029Y-39326349D01*
X179197027Y-39326348D01*
X178967542Y-39203686D01*
X178766392Y-39038608D01*
X178601314Y-38837458D01*
X178478652Y-38607973D01*
X178409800Y-38381000D01*
X178403114Y-38358961D01*
X178377609Y-38100000D01*
X178403114Y-37841039D01*
X178478651Y-37592029D01*
X178478652Y-37592027D01*
X178601314Y-37362542D01*
X178766392Y-37161392D01*
X178967542Y-36996314D01*
X179197027Y-36873652D01*
X179197029Y-36873651D01*
X179446039Y-36798114D01*
X179575420Y-36785371D01*
X179640109Y-36779000D01*
X182309891Y-36779000D01*
X182374580Y-36785371D01*
X182374580Y-36785371D01*
G37*
G36*
X168577585Y-35308802D02*
G01*
X168727410Y-35338604D01*
X169009674Y-35455521D01*
X169263705Y-35625259D01*
X169479741Y-35841295D01*
X169649479Y-36095326D01*
X169766396Y-36377590D01*
X169826000Y-36677240D01*
X169826000Y-36982760D01*
X169766396Y-37282410D01*
X169649479Y-37564674D01*
X169479741Y-37818705D01*
X169263705Y-38034741D01*
X169009674Y-38204479D01*
X168727410Y-38321396D01*
X168577585Y-38351198D01*
X168427761Y-38381000D01*
X168122239Y-38381000D01*
X167972415Y-38351198D01*
X167822590Y-38321396D01*
X167540326Y-38204479D01*
X167286295Y-38034741D01*
X167070259Y-37818705D01*
X166900521Y-37564674D01*
X166783604Y-37282410D01*
X166724000Y-36982760D01*
X166724000Y-36677240D01*
X166783604Y-36377590D01*
X166900521Y-36095326D01*
X167070259Y-35841295D01*
X167286295Y-35625259D01*
X167540326Y-35455521D01*
X167822590Y-35338604D01*
X167972415Y-35308802D01*
X168122239Y-35279000D01*
X168427761Y-35279000D01*
X168577585Y-35308802D01*
X168577585Y-35308802D01*
G37*
G36*
X173636000Y-38381000D02*
G01*
X170534000Y-38381000D01*
X170534000Y-35279000D01*
X173636000Y-35279000D01*
X173636000Y-38381000D01*
X173636000Y-38381000D01*
G37*
G36*
X185518254Y-29489335D02*
G01*
X185683289Y-29539398D01*
X185848321Y-29589460D01*
X186152510Y-29752052D01*
X186419135Y-29970865D01*
X186637948Y-30237490D01*
X186781945Y-30506890D01*
X186800539Y-30541677D01*
X186900665Y-30871746D01*
X186934472Y-31215000D01*
X186900665Y-31558254D01*
X186900664Y-31558256D01*
X186800540Y-31888321D01*
X186637948Y-32192510D01*
X186419135Y-32459135D01*
X186152510Y-32677948D01*
X185848321Y-32840540D01*
X185683288Y-32890602D01*
X185518254Y-32940665D01*
X185261021Y-32966000D01*
X176488979Y-32966000D01*
X176231746Y-32940665D01*
X176066712Y-32890602D01*
X175901679Y-32840540D01*
X175597490Y-32677948D01*
X175330865Y-32459135D01*
X175112052Y-32192510D01*
X174949460Y-31888321D01*
X174849336Y-31558256D01*
X174849335Y-31558254D01*
X174815528Y-31215000D01*
X174849335Y-30871746D01*
X174949461Y-30541677D01*
X174968055Y-30506890D01*
X175112052Y-30237490D01*
X175330865Y-29970865D01*
X175597490Y-29752052D01*
X175901679Y-29589460D01*
X176066711Y-29539398D01*
X176231746Y-29489335D01*
X176488979Y-29464000D01*
X185261021Y-29464000D01*
X185518254Y-29489335D01*
X185518254Y-29489335D01*
G37*
M02*
