M48
; DRILL file {KiCad (5.1.0)-1} date 16/11/2020 17:40:55
; FORMAT={-:-/ absolute / inch / decimal}
; #@! TF.CreationDate,2020-11-16T17:40:55+00:00
; #@! TF.GenerationSoftware,Kicad,Pcbnew,(5.1.0)-1
FMAT,2
INCH
T1C0.0315
T2C0.0315
T3C0.0320
T4C0.0394
T5C0.0394
T6C0.1339
%
G90
G05
T1
X7.575Y-2.2083
X7.575Y-2.2791
X7.575Y-2.35
X7.575Y-2.4209
T2
X6.7Y-2.15
X6.7Y-2.55
T3
X7.5Y-2.75
X7.6Y-2.75
X6.65Y-3.2
X6.75Y-3.2
X6.65Y-2.75
X6.75Y-2.75
X7.5Y-3.2
X7.6Y-3.2
T5
X6.625Y-1.45
X6.775Y-1.45
T4
G00X7.1506Y-1.5
M15
G01X7.0994Y-1.5
M16
G05
G00X7.1506Y-3.311
M15
G01X7.0994Y-3.311
M16
G05
T6
G00X6.9518Y-1.2289
M15
G01X7.2904Y-1.2289
M16
G05
T0
M30
